<svg width="134" height="134" viewBox="0 0 134 134" fill="none" xmlns="http://www.w3.org/2000/svg">
<g clip-path="url(#clip0_0_337)">
<path d="M94.4287 124.882H59.2887L61.2487 108.082H92.4687L94.4287 124.882Z" fill="#CCCBCA"/>
<path d="M101.429 126.842H52.2891V126.002C52.2891 125.722 52.4291 125.442 52.6391 125.232C52.8491 125.022 53.1291 124.882 53.4091 124.882H100.309C100.589 124.882 100.869 125.022 101.079 125.232C101.289 125.442 101.429 125.722 101.429 126.002V126.842Z" fill="#E6E5E5"/>
<path d="M139.999 105.208C139.999 105.908 139.719 106.678 139.159 107.168C138.599 107.728 137.899 108.008 137.199 108.008H16.5187C15.8187 108.008 15.1187 107.728 14.5587 107.168C13.9987 106.608 13.7188 105.908 13.7188 105.208V96.8081H139.999V105.208Z" fill="#E6E5E5"/>
<path d="M139.999 15.9597C139.999 15.2597 139.719 14.4897 139.159 13.9997C138.599 13.4397 137.899 13.1597 137.199 13.1597H16.5187C15.8187 13.1597 15.1187 13.4397 14.5587 13.9997C13.9987 14.5597 13.7188 15.2597 13.7188 15.9597V96.8097H139.999V15.9597Z" fill="#282828"/>
<path d="M133.7 19.4604H20.0195V90.5105H133.7V19.4604Z" fill="white"/>
<path d="M36.1903 72.1011H28.0703V83.8611H36.1903V72.1011Z" fill="#F15625"/>
<path d="M44.3105 51.8H36.1905V83.79H44.3105V51.8Z" fill="#CBCBCB"/>
<path d="M52.4286 62.5112H44.3086V83.8612H52.4286V62.5112Z" fill="#F9A81F"/>
<path d="M60.6207 57.8899H52.5007V83.8599H60.6207V57.8899Z" fill="#F15625"/>
<path d="M68.7411 66.2222H60.6211V83.8622H68.7411V66.2222Z" fill="#CBCBCB"/>
<path d="M76.8583 45.0815H68.7383V83.8615H76.8583V45.0815Z" fill="#F9A81F"/>
<path d="M84.9794 58.5894H76.8594V83.8594H84.9794V58.5894Z" fill="#F15625"/>
<path d="M93.1005 61.1089H84.9805V83.8589H93.1005V61.1089Z" fill="#CBCBCB"/>
<path d="M101.222 51.8003H93.1016V83.7903H101.222V51.8003Z" fill="#F9A81F"/>
<path d="M109.339 41.5112H101.219V83.8612H109.339V41.5112Z" fill="#F15625"/>
<path d="M117.46 36.8901H109.34V83.8602H117.46V36.8901Z" fill="#CBCBCB"/>
<path d="M125.581 47.7417H117.461V83.8617H125.581V47.7417Z" fill="#F9A81F"/>
<path d="M73.1483 27.7925H68.7383V32.2025H73.1483V27.7925Z" fill="#F9A81F"/>
<path d="M85.3267 30.0347H75.3867V32.2747H85.3267V30.0347Z" fill="#E6E5E5"/>
<path d="M93.2383 27.7925H88.8283V32.2025H93.2383V27.7925Z" fill="#F15625"/>
<path d="M105.417 30.0347H95.4767V32.2747H105.417V30.0347Z" fill="#E6E5E5"/>
<path d="M113.398 27.7925H108.988V32.2025H113.398V27.7925Z" fill="#CBCBCB"/>
<path d="M125.577 30.0347H115.637V32.2747H125.577V30.0347Z" fill="#E6E5E5"/>
<path d="M60.5503 24.0815H28.0703V32.2015H60.5503V24.0815Z" fill="#4B7BA5"/>
<path d="M44.3112 27.1636H31.7812V29.4036H44.3112V27.1636Z" fill="white"/>
<path d="M60.5503 34.4413H28.0703V36.6813H60.5503V34.4413Z" fill="#E6E5E5"/>
<path d="M44.3103 38.851H28.0703V41.091H44.3103V38.851Z" fill="#E6E5E5"/>
<path d="M108.007 96.9487H102.617V103.529H108.007V96.9487Z" fill="#4B7BA5"/>
<path d="M127.818 74.8989C127.818 87.3589 117.738 97.4389 105.278 97.4389C92.8183 97.4389 82.7383 87.3589 82.7383 74.8989C82.7383 62.4389 92.8183 52.3589 105.278 52.3589C117.738 52.3589 127.818 62.4389 127.818 74.8989Z" fill="#282828"/>
<path d="M123.339 74.8997C123.339 84.8397 115.289 92.8897 105.349 92.8897C95.4094 92.8897 87.3594 84.8397 87.3594 74.8997C87.3594 64.9597 95.4094 56.9097 105.349 56.9097C115.219 56.9097 123.339 64.9597 123.339 74.8997Z" fill="white"/>
<path d="M109.548 108.078H101.008V126.908H109.548V108.078Z" fill="#4B7BA5"/>
<path d="M110.249 103.531H100.309V108.011H110.249V103.531Z" fill="#282828"/>
<path d="M99.3285 84.2095H87.2885V131.529H99.3285V84.2095Z" fill="#F9A81F"/>
<path d="M111.298 68.9491H99.258V131.529H111.298V68.9491Z" fill="#F15625"/>
<path d="M123.336 62.1593H111.296V131.529H123.336V62.1593Z" fill="#CBCBCB"/>
<path d="M0 64.8912C0 63.5612 1.05 62.5112 2.38 62.5112H41.93C43.26 62.5112 44.31 63.6312 44.31 64.8912V124.391C44.31 125.721 43.19 126.771 41.93 126.771H2.38C1.05 126.771 0 125.721 0 124.391V64.8912Z" fill="#282828"/>
<path d="M19.7414 124.18C19.1814 124.18 18.6914 123.69 18.6914 123.13V122.85C18.6914 122.29 19.1814 121.8 19.7414 121.8H24.6414C25.2014 121.8 25.6914 122.29 25.6914 122.85V123.13C25.6914 123.69 25.2014 124.18 24.6414 124.18H19.7414Z" fill="#474F59"/>
<path d="M22.1903 66.7825C21.5603 66.7825 21.0703 66.2925 21.0703 65.6625C21.0703 65.0325 21.5603 64.5425 22.1903 64.5425C22.8203 64.5425 23.3103 65.0325 23.3103 65.6625C23.3103 66.2225 22.7503 66.7825 22.1903 66.7825Z" fill="#474F59"/>
<path d="M22.1898 66.0812C21.9098 66.0812 21.6998 65.8712 21.6998 65.5912C21.6998 65.3112 21.9098 65.1012 22.1898 65.1012C22.4698 65.1012 22.6798 65.3112 22.6798 65.5912C22.6098 65.8712 22.3998 66.0812 22.1898 66.0812Z" fill="#282828"/>
<path d="M41.8595 68.812H2.51953V119.072H41.8595V68.812Z" fill="white"/>
<path d="M36.5402 110.111H7.84021V111.091H36.5402V110.111Z" fill="#E6E5E5"/>
<path d="M36.5402 105.631H7.84021V109.131H36.5402V105.631Z" fill="#CCCBCA"/>
<path d="M36.5402 112.073H7.84021V113.053H36.5402V112.073Z" fill="#E6E5E5"/>
<path d="M22.1902 114.101H7.84021V115.081H22.1902V114.101Z" fill="#E6E5E5"/>
<path d="M29.6785 88.762C29.6785 90.862 28.8385 92.682 27.5085 94.082L31.2885 97.862C33.5985 95.552 35.0685 92.332 35.0685 88.762C34.9985 88.762 29.6785 88.762 29.6785 88.762Z" fill="#E6E5E5"/>
<path d="M27.4386 94.0825C26.1086 95.4125 24.2186 96.2526 22.1186 96.2526C17.9886 96.2526 14.6286 92.8926 14.6286 88.7626C14.6286 85.6125 16.5186 82.9525 19.2486 81.8325L17.2186 76.8625C12.5286 78.8225 9.30859 83.3726 9.30859 88.7626C9.30859 95.8326 15.0486 101.643 22.1886 101.643C25.7586 101.643 28.9786 100.173 31.2886 97.8626L27.4386 94.0825Z" fill="#CBCBCB"/>
<path d="M22.1885 81.2723V75.8823C20.4385 75.8823 18.7585 76.2323 17.2885 76.8623L19.3185 81.8323C20.1585 81.4823 21.1385 81.2723 22.1885 81.2723Z" fill="#F9A81F"/>
<path d="M22.1872 81.2723C26.3172 81.2723 29.6772 84.6323 29.6772 88.7623H34.9972C34.9972 81.6923 29.2572 75.8823 22.1172 75.8823L22.1872 81.2723Z" fill="#EE2E26"/>
</g>
<defs>
<clipPath id="clip0_0_337">
<rect width="134" height="134" fill="white"/>
</clipPath>
</defs>
</svg>
