<svg width="134" height="134" viewBox="0 0 134 134" fill="none" xmlns="http://www.w3.org/2000/svg">
<g clip-path="url(#clip0_0_266)">
<path d="M47.7701 44.8029C47.7701 47.917 50.3034 50.4449 53.4175 50.4449C56.5303 50.4449 59.0542 47.917 59.0542 44.8029C59.0542 41.6907 56.531 39.1675 53.4175 39.1675C50.3027 39.1675 47.7701 41.6907 47.7701 44.8029Z" fill="#0EAAFF"/>
<path d="M50.8599 38.5099C50.8599 39.927 52.0036 41.0706 53.4207 41.0706C54.825 41.0706 55.9727 39.9263 55.9727 38.5099C55.9727 37.1002 54.825 35.9565 53.4207 35.9565C52.0036 35.9572 50.8599 37.1002 50.8599 38.5099Z" fill="#0EAAFF"/>
<path d="M24.8717 43.6748C24.8717 47.4134 27.9027 50.4459 31.6333 50.4459C35.3759 50.4459 38.4083 47.4134 38.4083 43.6748C38.4083 39.9416 35.3759 36.9065 31.6333 36.9065C27.9027 36.9065 24.8717 39.9416 24.8717 43.6748Z" fill="#0EAAFF"/>
<path d="M31.3552 40.3826C31.3552 46.4776 36.2924 51.4142 42.3827 51.4142C48.4704 51.4142 53.419 46.4769 53.419 40.3826C53.419 34.291 48.4704 29.3511 42.3827 29.3511C36.2918 29.3511 31.3552 34.291 31.3552 40.3826Z" fill="#0EAAFF"/>
<path d="M93.3827 92.0883C89.3432 92.0883 86.075 88.8046 86.075 84.7779H87.9704C87.9704 87.7534 90.3958 90.1794 93.3827 90.1794C96.3622 90.1794 98.7849 87.754 98.7849 84.7779V79.645H100.682V84.7779C100.682 88.8046 97.4127 92.0883 93.3827 92.0883Z" fill="#353F49"/>
<path d="M47.4132 34.0858C43.828 34.0858 40.9102 31.1727 40.9102 27.5868V22.9531H42.4324V27.5868C42.4324 30.3298 44.6575 32.5603 47.4125 32.5603V34.0858H47.4132Z" fill="#353F49"/>
<path d="M77.6133 58.8133V57.2883C78.9821 57.2883 80.103 56.1788 80.103 54.8013V52.1836H81.6192V54.8013C81.6185 57.0143 79.8249 58.8133 77.6133 58.8133Z" fill="#353F49"/>
<path d="M77.9102 26.3513V24.8264C79.9604 24.8264 81.626 23.1527 81.626 21.1038V17.4805H83.1502V21.1038C83.1502 23.9976 80.7952 26.3513 77.9102 26.3513Z" fill="#353F49"/>
<path d="M67.4432 61.5266H60.366C55.3779 61.5266 50.6604 59.5769 47.1101 56.0373C43.5638 52.4823 41.6094 47.7708 41.6094 42.7646C41.6094 37.7342 43.5638 33.0194 47.1128 29.4818C50.6591 25.9482 55.3658 24.0039 60.3654 24.0039H74.5205C79.528 24.0039 84.2314 25.9509 87.7751 29.4899C91.3207 33.0201 93.2771 37.7396 93.2771 42.7686H88.7144C88.7144 38.9657 87.2377 35.3912 84.551 32.7233C81.865 30.0433 78.3019 28.57 74.5198 28.57H60.366C56.5799 28.57 53.0181 30.0413 50.3355 32.7173C47.6568 35.3899 46.1694 38.959 46.1694 42.7646C46.1694 46.5501 47.6575 50.1158 50.3375 52.8065C53.0282 55.4839 56.5892 56.9652 60.366 56.9652H67.4432V61.5266Z" fill="#FF7F00"/>
<path d="M74.5218 94.4936H60.366C55.3705 94.4936 50.6597 92.5492 47.1101 89.0069C43.5638 85.4754 41.6094 80.7599 41.6094 75.7255H46.1687C46.1687 79.5358 47.6568 83.1069 50.3321 85.7722C53.0201 88.4495 56.5825 89.9288 60.366 89.9288H74.5211C78.3059 89.9288 81.8663 88.4528 84.5503 85.7742C87.2391 83.1082 88.7157 79.5358 88.7157 75.7295C88.7157 71.9427 87.237 68.3776 84.5483 65.6862C81.8563 63.0149 78.2946 61.5269 74.5211 61.5269H67.4432V56.9648H74.5211C79.524 56.9648 84.2247 58.9165 87.7757 62.4542C91.3234 66.0186 93.2778 70.728 93.2778 75.7295C93.2778 80.7646 91.3214 85.478 87.773 89.0096C84.2348 92.5512 79.5307 94.4936 74.5218 94.4936Z" fill="#FF7F00"/>
<path d="M71.0582 15.3477H63.8242V101.634H71.0582V15.3477Z" fill="#FF7F00"/>
<path d="M29.228 77.2458C29.228 83.1465 24.4422 87.933 18.5542 87.933C12.6576 87.933 7.87109 83.1458 7.87109 77.2458C7.87109 71.3464 12.6582 66.5734 18.5542 66.5734C24.4422 66.5734 29.228 71.3464 29.228 77.2458Z" fill="#0EAAFF"/>
<path d="M57.4519 67.9889C57.4519 71.3289 54.7377 74.0357 51.4011 74.0357C48.0645 74.0357 45.351 71.3289 45.351 67.9889C45.351 64.6496 48.0645 61.9515 51.4011 61.9515C54.7377 61.9515 57.4519 64.649 57.4519 67.9889Z" fill="#0EAAFF"/>
<path d="M59.9567 78.8526C59.9567 83.3195 56.336 86.9275 51.8866 86.9275C47.4257 86.9275 43.8131 83.3195 43.8131 78.8526C43.8131 74.3985 47.4257 70.7811 51.8866 70.7811C56.336 70.7818 59.9567 74.3985 59.9567 78.8526Z" fill="#0EAAFF"/>
<path d="M48.9544 67.9887C48.9544 75.8974 42.5546 82.3086 34.6432 82.3086C26.7459 82.3086 20.332 75.8974 20.332 67.9887C20.332 60.0881 26.7459 53.6829 34.6432 53.6829C42.5553 53.6829 48.9544 60.0881 48.9544 67.9887Z" fill="#0EAAFF"/>
<path d="M48.4195 79.8084C48.4195 86.5493 42.957 92.0098 36.2188 92.0098C29.4873 92.0098 24.0234 86.5493 24.0234 79.8084C24.0234 73.0709 29.4866 67.6165 36.2188 67.6165C42.957 67.6171 48.4195 73.0716 48.4195 79.8084Z" fill="#0EAAFF"/>
<path d="M50.8585 11.7442C50.8585 15.0346 53.5278 17.7052 56.8135 17.7052C60.1126 17.7052 62.7812 15.0346 62.7812 11.7442C62.7812 8.45316 60.1126 5.78455 56.8135 5.78455C53.5285 5.78455 50.8585 8.45316 50.8585 11.7442Z" fill="#0EAAFF"/>
<path d="M71.839 11.0852C71.839 13.5729 73.8624 15.5903 76.3421 15.5903C78.8378 15.5903 80.8478 13.5736 80.8478 11.0852C80.8478 8.59885 78.8378 6.57812 76.3421 6.57812C73.8617 6.5788 71.839 8.59885 71.839 11.0852Z" fill="#0EAAFF"/>
<path d="M70.3116 16.3497C70.3116 18.0147 71.6691 19.3647 73.324 19.3647C74.9956 19.3647 76.341 18.014 76.341 16.3497C76.341 14.6861 74.9956 13.332 73.324 13.332C71.6697 13.332 70.3116 14.6861 70.3116 16.3497Z" fill="#0EAAFF"/>
<path d="M67.1458 15.9808C71.5588 15.9808 75.1362 12.4034 75.1362 7.99042C75.1362 3.57743 71.5588 0 67.1458 0C62.7328 0 59.1554 3.57743 59.1554 7.99042C59.1554 12.4034 62.7328 15.9808 67.1458 15.9808Z" fill="#0EAAFF"/>
<path d="M58.5109 14.0286C58.5109 17.7847 61.548 20.8365 65.3134 20.8365C69.0694 20.8365 72.1219 17.7847 72.1219 14.0286C72.1219 10.2706 69.0694 7.21875 65.3134 7.21875C61.548 7.21942 58.5109 10.2706 58.5109 14.0286Z" fill="#0EAAFF"/>
<path d="M97.2469 71.153C97.2469 77.197 92.3459 82.084 86.3145 82.084C80.2705 82.084 75.3741 77.1964 75.3741 71.153C75.3741 65.1082 80.2711 60.2192 86.3145 60.2192C92.3452 60.2192 97.2469 65.1082 97.2469 71.153Z" fill="#0EAAFF"/>
<path d="M126.127 68.7909C126.127 72.4886 123.126 75.4869 119.429 75.4869C115.73 75.4869 112.733 72.4879 112.733 68.7909C112.733 65.0952 115.73 62.0942 119.429 62.0942C123.125 62.0942 126.127 65.0952 126.127 68.7909Z" fill="#0EAAFF"/>
<path d="M100.242 80.5122C100.242 83.6646 97.6856 86.2199 94.5433 86.2199C91.3923 86.2199 88.839 83.6652 88.839 80.5122C88.839 77.3592 91.3923 74.8052 94.5433 74.8052C97.6856 74.8058 100.242 77.3592 100.242 80.5122Z" fill="#0EAAFF"/>
<path d="M118.192 65.322C118.192 73.6387 111.442 80.3736 103.126 80.3736C94.8094 80.3736 88.0739 73.6387 88.0739 65.322C88.0739 56.9953 94.8094 50.2544 103.126 50.2544C111.442 50.2544 118.192 56.9953 118.192 65.322Z" fill="#0EAAFF"/>
<path d="M119.531 75.1293C119.531 81.3475 114.492 86.3859 108.275 86.3859C102.047 86.3859 97.0069 81.3475 97.0069 75.1293C97.0069 68.9103 102.047 63.8599 108.275 63.8599C114.493 63.8599 119.531 68.9103 119.531 75.1293Z" fill="#0EAAFF"/>
<path d="M85.78 39.033C85.78 41.2145 84.0252 42.9739 81.841 42.9739C79.6622 42.9739 77.9102 41.2152 77.9102 39.033C77.9102 36.8588 79.6622 35.0974 81.841 35.0974C84.0252 35.0974 85.78 36.8588 85.78 39.033Z" fill="#0EAAFF"/>
<path d="M102.537 38.3796C102.537 41.2901 100.18 43.6518 97.2629 43.6518C94.3457 43.6518 91.9913 41.2901 91.9913 38.3796C91.9913 35.4617 94.3457 33.1013 97.2629 33.1013C100.18 33.1013 102.537 35.4617 102.537 38.3796Z" fill="#0EAAFF"/>
<path d="M97.2629 36.9916C97.2629 41.2488 93.8144 44.6966 89.5586 44.6966C85.3014 44.6966 81.8408 41.2488 81.8408 36.9916C81.8408 32.7331 85.3007 29.2812 89.5586 29.2812C93.8137 29.2812 97.2629 32.7331 97.2629 36.9916Z" fill="#0EAAFF"/>
<path d="M43.3398 23.9578C43.3398 25.73 44.7656 27.1618 46.5404 27.1618C48.3146 27.1618 49.741 25.73 49.741 23.9578C49.741 22.1877 48.3146 20.7539 46.5404 20.7539C44.7656 20.7539 43.3398 22.1877 43.3398 23.9578Z" fill="#0EAAFF"/>
<path d="M35.9883 21.7775C35.9883 24.6953 38.35 27.0577 41.2679 27.0577C44.1857 27.0577 46.5421 24.6953 46.5421 21.7775C46.5421 18.8663 44.1857 16.5039 41.2679 16.5039C38.35 16.5039 35.9883 18.867 35.9883 21.7775Z" fill="#0EAAFF"/>
<path d="M34.3555 25.0782C34.3555 26.3204 35.3565 27.3187 36.5893 27.3187C37.8341 27.3187 38.8358 26.3204 38.8358 25.0782C38.8358 23.8414 37.8348 22.8397 36.5893 22.8397C35.3565 22.8397 34.3555 23.8414 34.3555 25.0782Z" fill="#0EAAFF"/>
<path d="M80.918 51.1841C80.918 52.7935 82.2251 54.0986 83.8358 54.0986C85.4445 54.0986 86.7563 52.7935 86.7563 51.1841C86.7563 49.5735 85.4445 48.2656 83.8358 48.2656C82.2258 48.2656 80.918 49.5735 80.918 51.1841Z" fill="#0EAAFF"/>
<path d="M73.1836 49.8884C73.1836 52.5423 75.343 54.6956 77.9975 54.6956C80.6487 54.6956 82.7954 52.5429 82.7954 49.8884C82.7954 47.2372 80.6487 45.0898 77.9975 45.0898C75.343 45.0898 73.1836 47.2372 73.1836 49.8884Z" fill="#0EAAFF"/>
<path d="M82.1974 20.1328C82.1974 21.2497 81.2915 22.1602 80.1773 22.1602C79.0597 22.1602 78.1445 21.2497 78.1445 20.1328C78.1445 19.0126 79.0597 18.1061 80.1773 18.1061C81.2915 18.1061 82.1974 19.0126 82.1974 20.1328Z" fill="#0EAAFF"/>
<path d="M83.5124 22.5677C85.3551 22.5677 86.849 21.0739 86.849 19.2311C86.849 17.3884 85.3551 15.8945 83.5124 15.8945C81.6696 15.8945 80.1758 17.3884 80.1758 19.2311C80.1758 21.0739 81.6696 22.5677 83.5124 22.5677Z" fill="#0EAAFF"/>
<path d="M98.976 99.1719H35.9062V106.038H98.976V99.1719Z" fill="#FF7F00"/>
<path d="M86.9167 134.002H47.9736L40.8984 106.039H94.0013L86.9167 134.002Z" fill="#1429A9"/>
</g>
<defs>
<clipPath id="clip0_0_266">
<rect width="134" height="134" fill="white"/>
</clipPath>
</defs>
</svg>
