<svg width="136" height="136" viewBox="0 0 136 136" fill="none" xmlns="http://www.w3.org/2000/svg">
<path d="M84.9254 105.824H51.0512L44.4266 112.443V132.293H91.5425V112.443L84.9254 105.824Z" fill="#474F59"/>
<path d="M80.2741 113.445H55.6914V124.667H80.2741V113.445Z" fill="#FF7F00"/>
<path d="M44.4266 112.443L51.0512 105.824L44.4266 132.293V112.443Z" fill="#353F49"/>
<path d="M91.5423 112.443L84.9252 105.824L91.5423 132.293V112.443Z" fill="#353F49"/>
<path d="M95.787 132.293H40.2031V135.998H95.787V132.293Z" fill="#353F49"/>
<path d="M36.793 44.8344H42.7648C43.3414 48.4425 46.1254 51.5508 49.0534 51.5508V48.8478C47.6016 48.8478 45.3672 46.5412 45.3672 43.4778V42.1246H34.0547V43.4778C34.0547 57.5443 41.6782 64.09 46.7197 68.4189C47.7254 69.2893 48.6577 70.0828 49.4254 70.8601L51.3471 68.9452C50.5257 68.1251 49.5397 67.2833 48.4816 66.3666C43.7155 62.273 37.2459 56.7168 36.793 44.8344Z" fill="#FFBF7F"/>
<path d="M90.6293 42.1246V43.4778C90.6293 46.5412 88.3921 48.8478 86.9403 48.8478V51.5508C89.8698 51.5508 92.6516 48.4425 93.2262 44.8344H99.2075C98.7471 56.7168 92.2797 62.273 87.5136 66.3666C86.4534 67.2833 85.4722 68.1251 84.6487 68.9452L86.5684 70.8601C87.3374 70.0822 88.2697 69.2886 89.2802 68.4189C94.319 64.09 101.94 57.5443 101.94 43.4778V42.1246H90.6293Z" fill="#FFBF7F"/>
<path d="M88.4889 67.035C88.4889 72.2799 86.4822 77.5179 82.4831 81.5211C78.4874 85.527 73.2419 87.5228 67.9984 87.5228C62.7529 87.5228 57.5087 85.5263 53.5097 81.5211C49.5113 77.5172 47.5039 72.2799 47.5039 67.035V38.4648H88.4882V67.035H88.4889Z" fill="#FF7F00"/>
<path d="M90.6302 33.7031H45.3681V38.4672H90.6302V33.7031Z" fill="#FFBF7F"/>
<path d="M78.3221 102.887H57.6719V105.826H78.3221V102.887Z" fill="#FFBF7F"/>
<path d="M69.7381 94.2766V91.1051H66.2545V94.2766C66.2545 99.0237 62.4193 102.888 57.6729 102.888H78.3231C73.5706 102.888 69.7381 99.0237 69.7381 94.2766Z" fill="#FF7F00"/>
<path d="M72.4117 87.0508H63.5859V89.5008C63.5859 90.1863 63.8525 90.8703 64.3713 91.3946C64.8943 91.9148 65.5749 92.1725 66.2556 92.1725H69.7393C70.4179 92.1725 71.102 91.9148 71.6256 91.3946C72.1458 90.8703 72.4117 90.1863 72.4117 89.5008V87.0508Z" fill="#FFBF7F"/>
<path d="M80.3902 33.7031H73.1992V53.5782L76.7903 49.983L80.3902 53.5782V33.7031Z" fill="#F77B55"/>
<path d="M94.9544 21.8569C94.9544 26.0871 91.5265 29.5137 87.2949 29.5137C83.0626 29.5137 79.6367 26.0865 79.6367 21.8569C79.6367 17.6286 83.0626 14.1953 87.2949 14.1953C91.5265 14.1953 94.9544 17.6286 94.9544 21.8569Z" fill="#FF7F00"/>
<path d="M93.4183 21.8572C93.4183 25.2429 90.6786 27.9806 87.2949 27.9806C83.9092 27.9806 81.1688 25.2422 81.1688 21.8572C81.1688 18.4728 83.9092 15.7311 87.2949 15.7311C90.6779 15.7311 93.4183 18.4728 93.4183 21.8572Z" fill="#FFBF7F"/>
<path d="M87.9384 22.3613H86.6525C86.1146 22.3613 85.6087 22.1505 85.2333 21.769C84.8553 21.3991 84.6445 20.8945 84.6445 20.3525C84.6445 19.814 84.8559 19.3115 85.2333 18.9307C85.6053 18.5573 86.1112 18.3479 86.6525 18.3479H89.4351V19.3604H86.6525C86.3832 19.3604 86.1303 19.4624 85.9507 19.646C85.7569 19.8364 85.6563 20.0853 85.6563 20.3532C85.6563 20.6205 85.7563 20.8693 85.9474 21.0543C86.1378 21.2474 86.3832 21.3515 86.6525 21.3515H87.9384V22.3613Z" fill="#FF7F00"/>
<path d="M87.9386 25.3634H85.1526V24.3536H87.9386C88.2051 24.3536 88.4513 24.2488 88.6417 24.0605C88.8253 23.8789 88.9348 23.6267 88.9348 23.3587C88.9348 23.0908 88.8328 22.8426 88.6458 22.6597C88.4513 22.4666 88.2051 22.3625 87.9386 22.3625H86.6527V21.3521H87.9386C88.4724 21.3521 88.9783 21.5608 89.3577 21.9409C89.7338 22.3102 89.9432 22.8175 89.9432 23.3581C89.9432 23.8959 89.7345 24.4018 89.3577 24.7772C88.9735 25.156 88.4669 25.3634 87.9386 25.3634Z" fill="#FF7F00"/>
<path d="M87.7995 18.0002H86.789V25.7142H87.7995V18.0002Z" fill="#FF7F00"/>
<path d="M60.3876 11.322C63.514 11.322 66.0486 8.78748 66.0486 5.661C66.0486 2.53452 63.514 0 60.3876 0C57.2611 0 54.7266 2.53452 54.7266 5.661C54.7266 8.78748 57.2611 11.322 60.3876 11.322Z" fill="#FF7F00"/>
<path d="M64.9154 5.66161C64.9154 8.16333 62.8911 10.1877 60.3894 10.1877C57.8863 10.1877 55.8633 8.16333 55.8633 5.66161C55.8633 3.15921 57.887 1.13281 60.3894 1.13281C62.8911 1.13213 64.9154 3.15921 64.9154 5.66161Z" fill="#FFBF7F"/>
<path d="M60.8648 6.03652H59.9128C59.517 6.03652 59.143 5.88148 58.8656 5.59928C58.5868 5.32456 58.4297 4.95192 58.4297 4.55208C58.4297 4.1536 58.5868 3.78233 58.8656 3.50149C59.1403 3.22609 59.5136 3.07104 59.9128 3.07104H61.9704V3.81905H59.9128C59.7149 3.81905 59.5286 3.89452 59.396 4.03052C59.2525 4.16992 59.1777 4.35488 59.1777 4.55276C59.1777 4.75064 59.2525 4.93356 59.3926 5.07092C59.5333 5.21372 59.7149 5.28988 59.9128 5.28988H60.8648V6.03652Z" fill="#FF7F00"/>
<path d="M60.865 8.25479H58.8053V7.50815H60.865C61.0609 7.50815 61.2438 7.43063 61.3852 7.29191C61.5205 7.15727 61.6001 6.97095 61.6001 6.77239C61.6001 6.57383 61.5246 6.39091 61.3873 6.25491C61.2445 6.11347 61.0609 6.03595 60.865 6.03595H59.913V5.28931H60.865C61.2601 5.28931 61.6348 5.44435 61.9136 5.72587C62.191 5.99855 62.3467 6.37323 62.3467 6.77307C62.3467 7.17087 62.1924 7.54487 61.9136 7.82163C61.6293 8.10179 61.2553 8.25479 60.865 8.25479Z" fill="#FF7F00"/>
<path d="M60.7622 2.8125H60.0162V8.5143H60.7622V2.8125Z" fill="#FF7F00"/>
<path d="M64.7164 22.5799C66.2036 22.5799 67.4092 21.3743 67.4092 19.8871C67.4092 18.3999 66.2036 17.1943 64.7164 17.1943C63.2292 17.1943 62.0236 18.3999 62.0236 19.8871C62.0236 21.3743 63.2292 22.5799 64.7164 22.5799Z" fill="#FF7F00"/>
<path d="M66.8706 19.8873C66.8706 21.078 65.907 22.0409 64.7177 22.0409C63.5264 22.0409 62.5635 21.078 62.5635 19.8873C62.5635 18.6973 63.5264 17.7338 64.7177 17.7338C65.907 17.7338 66.8706 18.6973 66.8706 19.8873Z" fill="#FFBF7F"/>
<path d="M64.9438 20.0672H64.4902C64.3018 20.0672 64.125 19.9945 63.9924 19.8585C63.8592 19.7293 63.785 19.5518 63.785 19.3614C63.785 19.173 63.8592 18.9956 63.9924 18.8616C64.123 18.7304 64.3005 18.6562 64.4902 18.6562H65.4687V19.0126H64.4902C64.397 19.0126 64.308 19.0486 64.2454 19.1132C64.1767 19.1798 64.14 19.2676 64.14 19.3614C64.14 19.4552 64.1767 19.543 64.2427 19.6082C64.3086 19.6762 64.397 19.7123 64.4902 19.7123H64.9438V20.0672Z" fill="#FF7F00"/>
<path d="M64.9435 21.1211H63.9643V20.7654H64.9435C65.036 20.7654 65.1237 20.7287 65.1903 20.6627C65.2542 20.5981 65.2923 20.5097 65.2923 20.4159C65.2923 20.3227 65.257 20.2343 65.1917 20.1704C65.123 20.1024 65.036 20.0664 64.9428 20.0664H64.4893V19.7114H64.9428C65.1298 19.7114 65.308 19.7849 65.4419 19.9188C65.5738 20.048 65.6466 20.2269 65.6466 20.4166C65.6466 20.6063 65.5745 20.7838 65.4419 20.9157C65.3073 21.049 65.1285 21.1211 64.9435 21.1211Z" fill="#FF7F00"/>
<path d="M64.8932 18.5312H64.5389V21.2438H64.8932V18.5312Z" fill="#FF7F00"/>
<path d="M42.6527 31.0992C44.7348 31.0992 46.4226 29.4113 46.4226 27.3292C46.4226 25.2472 44.7348 23.5593 42.6527 23.5593C40.5707 23.5593 38.8828 25.2472 38.8828 27.3292C38.8828 29.4113 40.5707 31.0992 42.6527 31.0992Z" fill="#FF7F00"/>
<path d="M45.667 27.3304C45.667 28.9978 44.3185 30.3455 42.6518 30.3455C40.9838 30.3455 39.6367 28.9978 39.6367 27.3304C39.6367 25.6637 40.9838 24.3132 42.6518 24.3132C44.3185 24.3132 45.667 25.6637 45.667 27.3304Z" fill="#FFBF7F"/>
<path d="M42.9696 27.5765H42.3365C42.072 27.5765 41.8224 27.4745 41.6395 27.2855C41.4525 27.1032 41.3484 26.8544 41.3484 26.5871C41.3484 26.3226 41.4525 26.0758 41.6395 25.8881C41.821 25.7045 42.0706 25.6018 42.3365 25.6018H43.7074V26.0996H42.3365C42.2032 26.0996 42.0801 26.1499 41.9917 26.2396C41.8959 26.3328 41.8455 26.4566 41.8455 26.5871C41.8455 26.719 41.8958 26.8421 41.989 26.9326C42.0835 27.0278 42.2032 27.0788 42.3365 27.0788H42.9696V27.5765Z" fill="#FF7F00"/>
<path d="M42.9707 29.0532H41.5984V28.5561H42.9707C43.1013 28.5561 43.2237 28.5051 43.3182 28.4113C43.4073 28.3222 43.461 28.1985 43.461 28.0665C43.461 27.9333 43.4113 27.8115 43.3195 27.7218C43.2243 27.6273 43.1019 27.5756 42.9714 27.5756H42.3383V27.0785H42.9714C43.2352 27.0785 43.4855 27.1812 43.6704 27.3695C43.8554 27.5511 43.9581 27.8 43.9581 28.0665C43.9581 28.3324 43.8561 28.5806 43.6704 28.7642C43.4793 28.9512 43.2318 29.0532 42.9707 29.0532Z" fill="#FF7F00"/>
<path d="M42.9002 25.4301H42.4031V29.2272H42.9002V25.4301Z" fill="#FF7F00"/>
</svg>
