<svg width="959" height="182" viewBox="0 0 959 182" fill="none" xmlns="http://www.w3.org/2000/svg">
<path d="M36.5 26L943.5 15.5L932 167H15L36.5 26Z" fill="#F5F5F5"/>
<path d="M217.53 78.28C214.89 78.28 212.463 77.6667 210.25 76.44C208.063 75.2133 206.316 73.5067 205.01 71.32C203.73 69.1067 203.09 66.6267 203.09 63.88C203.09 61.1333 203.73 58.6667 205.01 56.48C206.316 54.2933 208.063 52.5867 210.25 51.36C212.463 50.1333 214.89 49.52 217.53 49.52C220.17 49.52 222.583 50.1333 224.77 51.36C226.983 52.5867 228.716 54.2933 229.97 56.48C231.25 58.6667 231.89 61.1333 231.89 63.88C231.89 66.6267 231.25 69.1067 229.97 71.32C228.69 73.5067 226.956 75.2133 224.77 76.44C222.583 77.6667 220.17 78.28 217.53 78.28ZM217.53 72.04C219.77 72.04 221.556 71.2933 222.89 69.8C224.25 68.3067 224.93 66.3333 224.93 63.88C224.93 61.4 224.25 59.4267 222.89 57.96C221.556 56.4667 219.77 55.72 217.53 55.72C215.263 55.72 213.45 56.4533 212.09 57.92C210.756 59.3867 210.09 61.3733 210.09 63.88C210.09 66.36 210.756 68.3467 212.09 69.84C213.45 71.3067 215.263 72.04 217.53 72.04ZM257.735 55.68V78H250.895V74.96C250.202 75.9467 249.255 76.7467 248.055 77.36C246.882 77.9467 245.575 78.24 244.135 78.24C242.428 78.24 240.922 77.8667 239.615 77.12C238.308 76.3467 237.295 75.24 236.575 73.8C235.855 72.36 235.495 70.6667 235.495 68.72V55.68H242.295V67.8C242.295 69.2933 242.682 70.4533 243.455 71.28C244.228 72.1067 245.268 72.52 246.575 72.52C247.908 72.52 248.962 72.1067 249.735 71.28C250.508 70.4533 250.895 69.2933 250.895 67.8V55.68H257.735ZM269.488 59.4C270.288 58.1733 271.288 57.2133 272.488 56.52C273.688 55.8 275.021 55.44 276.488 55.44V62.68H274.608C272.901 62.68 271.621 63.0533 270.768 63.8C269.915 64.52 269.488 65.8 269.488 67.64V78H262.648V55.68H269.488V59.4ZM286.874 66.8C286.874 64.5067 287.301 62.4933 288.154 60.76C289.034 59.0267 290.221 57.6933 291.714 56.76C293.207 55.8267 294.874 55.36 296.714 55.36C298.287 55.36 299.661 55.68 300.834 56.32C302.034 56.96 302.954 57.8 303.594 58.84V55.68H310.434V78H303.594V74.84C302.927 75.88 301.994 76.72 300.794 77.36C299.621 78 298.247 78.32 296.674 78.32C294.861 78.32 293.207 77.8533 291.714 76.92C290.221 75.96 289.034 74.6133 288.154 72.88C287.301 71.12 286.874 69.0933 286.874 66.8ZM303.594 66.84C303.594 65.1333 303.114 63.7867 302.154 62.8C301.221 61.8133 300.074 61.32 298.714 61.32C297.354 61.32 296.194 61.8133 295.234 62.8C294.301 63.76 293.834 65.0933 293.834 66.8C293.834 68.5067 294.301 69.8667 295.234 70.88C296.194 71.8667 297.354 72.36 298.714 72.36C300.074 72.36 301.221 71.8667 302.154 70.88C303.114 69.8933 303.594 68.5467 303.594 66.84ZM322.222 58.84C322.889 57.8 323.809 56.96 324.982 56.32C326.156 55.68 327.529 55.36 329.102 55.36C330.942 55.36 332.609 55.8267 334.102 56.76C335.596 57.6933 336.769 59.0267 337.622 60.76C338.502 62.4933 338.942 64.5067 338.942 66.8C338.942 69.0933 338.502 71.12 337.622 72.88C336.769 74.6133 335.596 75.96 334.102 76.92C332.609 77.8533 330.942 78.32 329.102 78.32C327.556 78.32 326.182 78 324.982 77.36C323.809 76.72 322.889 75.8933 322.222 74.88V88.64H315.382V55.68H322.222V58.84ZM331.982 66.8C331.982 65.0933 331.502 63.76 330.542 62.8C329.609 61.8133 328.449 61.32 327.062 61.32C325.702 61.32 324.542 61.8133 323.582 62.8C322.649 63.7867 322.182 65.1333 322.182 66.84C322.182 68.5467 322.649 69.8933 323.582 70.88C324.542 71.8667 325.702 72.36 327.062 72.36C328.422 72.36 329.582 71.8667 330.542 70.88C331.502 69.8667 331.982 68.5067 331.982 66.8ZM349.371 58.84C350.037 57.8 350.957 56.96 352.131 56.32C353.304 55.68 354.677 55.36 356.251 55.36C358.091 55.36 359.757 55.8267 361.251 56.76C362.744 57.6933 363.917 59.0267 364.771 60.76C365.651 62.4933 366.091 64.5067 366.091 66.8C366.091 69.0933 365.651 71.12 364.771 72.88C363.917 74.6133 362.744 75.96 361.251 76.92C359.757 77.8533 358.091 78.32 356.251 78.32C354.704 78.32 353.331 78 352.131 77.36C350.957 76.72 350.037 75.8933 349.371 74.88V88.64H342.531V55.68H349.371V58.84ZM359.131 66.8C359.131 65.0933 358.651 63.76 357.691 62.8C356.757 61.8133 355.597 61.32 354.211 61.32C352.851 61.32 351.691 61.8133 350.731 62.8C349.797 63.7867 349.331 65.1333 349.331 66.84C349.331 68.5467 349.797 69.8933 350.731 70.88C351.691 71.8667 352.851 72.36 354.211 72.36C355.571 72.36 356.731 71.8667 357.691 70.88C358.651 69.8667 359.131 68.5067 359.131 66.8ZM410.196 55.68L404.156 78H396.596L393.076 63.52L389.436 78H381.916L375.836 55.68H382.676L385.836 71.64L389.596 55.68H396.836L400.636 71.56L403.756 55.68H410.196ZM416.244 53.36C415.044 53.36 414.058 53.0133 413.284 52.32C412.538 51.6 412.164 50.72 412.164 49.68C412.164 48.6133 412.538 47.7333 413.284 47.04C414.058 46.32 415.044 45.96 416.244 45.96C417.418 45.96 418.378 46.32 419.124 47.04C419.898 47.7333 420.284 48.6133 420.284 49.68C420.284 50.72 419.898 51.6 419.124 52.32C418.378 53.0133 417.418 53.36 416.244 53.36ZM419.644 55.68V78H412.804V55.68H419.644ZM431.441 48.4V78H424.601V48.4H431.441ZM443.238 48.4V78H436.398V48.4H443.238ZM463.511 58.84C464.151 57.8 465.071 56.96 466.271 56.32C467.471 55.68 468.845 55.36 470.391 55.36C472.231 55.36 473.898 55.8267 475.391 56.76C476.885 57.6933 478.058 59.0267 478.911 60.76C479.791 62.4933 480.231 64.5067 480.231 66.8C480.231 69.0933 479.791 71.12 478.911 72.88C478.058 74.6133 476.885 75.96 475.391 76.92C473.898 77.8533 472.231 78.32 470.391 78.32C468.818 78.32 467.445 78.0133 466.271 77.4C465.098 76.76 464.178 75.92 463.511 74.88V78H456.671V48.4H463.511V58.84ZM473.271 66.8C473.271 65.0933 472.791 63.76 471.831 62.8C470.898 61.8133 469.738 61.32 468.351 61.32C466.991 61.32 465.831 61.8133 464.871 62.8C463.938 63.7867 463.471 65.1333 463.471 66.84C463.471 68.5467 463.938 69.8933 464.871 70.88C465.831 71.8667 466.991 72.36 468.351 72.36C469.711 72.36 470.871 71.8667 471.831 70.88C472.791 69.8667 473.271 68.5067 473.271 66.8ZM504.86 66.48C504.86 67.12 504.82 67.7867 504.74 68.48H489.26C489.367 69.8667 489.807 70.9333 490.58 71.68C491.38 72.4 492.353 72.76 493.5 72.76C495.207 72.76 496.393 72.04 497.06 70.6H504.34C503.967 72.0667 503.287 73.3867 502.3 74.56C501.34 75.7333 500.127 76.6533 498.66 77.32C497.193 77.9867 495.553 78.32 493.74 78.32C491.553 78.32 489.607 77.8533 487.9 76.92C486.193 75.9867 484.86 74.6533 483.9 72.92C482.94 71.1867 482.46 69.16 482.46 66.84C482.46 64.52 482.927 62.4933 483.86 60.76C484.82 59.0267 486.153 57.6933 487.86 56.76C489.567 55.8267 491.527 55.36 493.74 55.36C495.9 55.36 497.82 55.8133 499.5 56.72C501.18 57.6267 502.487 58.92 503.42 60.6C504.38 62.28 504.86 64.24 504.86 66.48ZM497.86 64.68C497.86 63.5067 497.46 62.5733 496.66 61.88C495.86 61.1867 494.86 60.84 493.66 60.84C492.513 60.84 491.54 61.1733 490.74 61.84C489.967 62.5067 489.487 63.4533 489.3 64.68H497.86ZM526.025 78.32C524.078 78.32 522.345 77.9867 520.825 77.32C519.305 76.6533 518.105 75.7467 517.225 74.6C516.345 73.4267 515.852 72.12 515.745 70.68H522.505C522.585 71.4533 522.945 72.08 523.585 72.56C524.225 73.04 525.012 73.28 525.945 73.28C526.798 73.28 527.452 73.12 527.905 72.8C528.385 72.4533 528.625 72.0133 528.625 71.48C528.625 70.84 528.292 70.3733 527.625 70.08C526.958 69.76 525.878 69.4133 524.385 69.04C522.785 68.6667 521.452 68.28 520.385 67.88C519.318 67.4533 518.398 66.8 517.625 65.92C516.852 65.0133 516.465 63.8 516.465 62.28C516.465 61 516.812 59.84 517.505 58.8C518.225 57.7333 519.265 56.8933 520.625 56.28C522.012 55.6667 523.652 55.36 525.545 55.36C528.345 55.36 530.545 56.0533 532.145 57.44C533.772 58.8267 534.705 60.6667 534.945 62.96H528.625C528.518 62.1867 528.172 61.5733 527.585 61.12C527.025 60.6667 526.278 60.44 525.345 60.44C524.545 60.44 523.932 60.6 523.505 60.92C523.078 61.2133 522.865 61.6267 522.865 62.16C522.865 62.8 523.198 63.28 523.865 63.6C524.558 63.92 525.625 64.24 527.065 64.56C528.718 64.9867 530.065 65.4133 531.105 65.84C532.145 66.24 533.052 66.9067 533.825 67.84C534.625 68.7467 535.038 69.9733 535.065 71.52C535.065 72.8267 534.692 74 533.945 75.04C533.225 76.0533 532.172 76.8533 530.785 77.44C529.425 78.0267 527.838 78.32 526.025 78.32ZM542.69 53.36C541.49 53.36 540.503 53.0133 539.73 52.32C538.983 51.6 538.61 50.72 538.61 49.68C538.61 48.6133 538.983 47.7333 539.73 47.04C540.503 46.32 541.49 45.96 542.69 45.96C543.863 45.96 544.823 46.32 545.57 47.04C546.343 47.7333 546.73 48.6133 546.73 49.68C546.73 50.72 546.343 51.6 545.57 52.32C544.823 53.0133 543.863 53.36 542.69 53.36ZM546.09 55.68V78H539.25V55.68H546.09ZM579.526 55.44C582.3 55.44 584.5 56.28 586.126 57.96C587.78 59.64 588.606 61.9733 588.606 64.96V78H581.806V65.88C581.806 64.44 581.42 63.3333 580.646 62.56C579.9 61.76 578.86 61.36 577.526 61.36C576.193 61.36 575.14 61.76 574.366 62.56C573.62 63.3333 573.246 64.44 573.246 65.88V78H566.446V65.88C566.446 64.44 566.06 63.3333 565.286 62.56C564.54 61.76 563.5 61.36 562.166 61.36C560.833 61.36 559.78 61.76 559.006 62.56C558.26 63.3333 557.886 64.44 557.886 65.88V78H551.046V55.68H557.886V58.48C558.58 57.5467 559.486 56.8133 560.606 56.28C561.726 55.72 562.993 55.44 564.406 55.44C566.086 55.44 567.58 55.8 568.886 56.52C570.22 57.24 571.26 58.2667 572.006 59.6C572.78 58.3733 573.833 57.3733 575.166 56.6C576.5 55.8267 577.953 55.44 579.526 55.44ZM600.23 58.84C600.897 57.8 601.817 56.96 602.99 56.32C604.163 55.68 605.537 55.36 607.11 55.36C608.95 55.36 610.617 55.8267 612.11 56.76C613.603 57.6933 614.777 59.0267 615.63 60.76C616.51 62.4933 616.95 64.5067 616.95 66.8C616.95 69.0933 616.51 71.12 615.63 72.88C614.777 74.6133 613.603 75.96 612.11 76.92C610.617 77.8533 608.95 78.32 607.11 78.32C605.563 78.32 604.19 78 602.99 77.36C601.817 76.72 600.897 75.8933 600.23 74.88V88.64H593.39V55.68H600.23V58.84ZM609.99 66.8C609.99 65.0933 609.51 63.76 608.55 62.8C607.617 61.8133 606.457 61.32 605.07 61.32C603.71 61.32 602.55 61.8133 601.59 62.8C600.657 63.7867 600.19 65.1333 600.19 66.84C600.19 68.5467 600.657 69.8933 601.59 70.88C602.55 71.8667 603.71 72.36 605.07 72.36C606.43 72.36 607.59 71.8667 608.55 70.88C609.51 69.8667 609.99 68.5067 609.99 66.8ZM627.379 48.4V78H620.539V48.4H627.379ZM653.375 66.48C653.375 67.12 653.335 67.7867 653.255 68.48H637.775C637.882 69.8667 638.322 70.9333 639.095 71.68C639.895 72.4 640.869 72.76 642.015 72.76C643.722 72.76 644.909 72.04 645.575 70.6H652.855C652.482 72.0667 651.802 73.3867 650.815 74.56C649.855 75.7333 648.642 76.6533 647.175 77.32C645.709 77.9867 644.069 78.32 642.255 78.32C640.069 78.32 638.122 77.8533 636.415 76.92C634.709 75.9867 633.375 74.6533 632.415 72.92C631.455 71.1867 630.975 69.16 630.975 66.84C630.975 64.52 631.442 62.4933 632.375 60.76C633.335 59.0267 634.669 57.6933 636.375 56.76C638.082 55.8267 640.042 55.36 642.255 55.36C644.415 55.36 646.335 55.8133 648.015 56.72C649.695 57.6267 651.002 58.92 651.935 60.6C652.895 62.28 653.375 64.24 653.375 66.48ZM646.375 64.68C646.375 63.5067 645.975 62.5733 645.175 61.88C644.375 61.1867 643.375 60.84 642.175 60.84C641.029 60.84 640.055 61.1733 639.255 61.84C638.482 62.5067 638.002 63.4533 637.815 64.68H646.375ZM664.1 66.8C664.1 64.5067 664.527 62.4933 665.38 60.76C666.26 59.0267 667.447 57.6933 668.94 56.76C670.434 55.8267 672.1 55.36 673.94 55.36C675.514 55.36 676.887 55.68 678.06 56.32C679.26 56.96 680.18 57.8 680.82 58.84V55.68H687.66V78H680.82V74.84C680.154 75.88 679.22 76.72 678.02 77.36C676.847 78 675.474 78.32 673.9 78.32C672.087 78.32 670.434 77.8533 668.94 76.92C667.447 75.96 666.26 74.6133 665.38 72.88C664.527 71.12 664.1 69.0933 664.1 66.8ZM680.82 66.84C680.82 65.1333 680.34 63.7867 679.38 62.8C678.447 61.8133 677.3 61.32 675.94 61.32C674.58 61.32 673.42 61.8133 672.46 62.8C671.527 63.76 671.06 65.0933 671.06 66.8C671.06 68.5067 671.527 69.8667 672.46 70.88C673.42 71.8667 674.58 72.36 675.94 72.36C677.3 72.36 678.447 71.8667 679.38 70.88C680.34 69.8933 680.82 68.5467 680.82 66.84ZM706.209 55.44C708.822 55.44 710.902 56.2933 712.449 58C714.022 59.68 714.809 62 714.809 64.96V78H708.009V65.88C708.009 64.3867 707.622 63.2267 706.849 62.4C706.076 61.5733 705.036 61.16 703.729 61.16C702.422 61.16 701.382 61.5733 700.609 62.4C699.836 63.2267 699.449 64.3867 699.449 65.88V78H692.609V55.68H699.449V58.64C700.142 57.6533 701.076 56.88 702.249 56.32C703.422 55.7333 704.742 55.44 706.209 55.44ZM718.202 66.8C718.202 64.5067 718.629 62.4933 719.482 60.76C720.362 59.0267 721.549 57.6933 723.042 56.76C724.535 55.8267 726.202 55.36 728.042 55.36C729.509 55.36 730.842 55.6667 732.042 56.28C733.269 56.8933 734.229 57.72 734.922 58.76V48.4H741.762V78H734.922V74.8C734.282 75.8667 733.362 76.72 732.162 77.36C730.989 78 729.615 78.32 728.042 78.32C726.202 78.32 724.535 77.8533 723.042 76.92C721.549 75.96 720.362 74.6133 719.482 72.88C718.629 71.12 718.202 69.0933 718.202 66.8ZM734.922 66.84C734.922 65.1333 734.442 63.7867 733.482 62.8C732.549 61.8133 731.402 61.32 730.042 61.32C728.682 61.32 727.522 61.8133 726.562 62.8C725.629 63.76 725.162 65.0933 725.162 66.8C725.162 68.5067 725.629 69.8667 726.562 70.88C727.522 71.8667 728.682 72.36 730.042 72.36C731.402 72.36 732.549 71.8667 733.482 70.88C734.442 69.8933 734.922 68.5467 734.922 66.84ZM339.473 115.68V138H332.633V134.96C331.94 135.947 330.993 136.747 329.793 137.36C328.62 137.947 327.313 138.24 325.873 138.24C324.166 138.24 322.66 137.867 321.353 137.12C320.046 136.347 319.033 135.24 318.313 133.8C317.593 132.36 317.233 130.667 317.233 128.72V115.68H324.033V127.8C324.033 129.293 324.42 130.453 325.193 131.28C325.966 132.107 327.006 132.52 328.313 132.52C329.646 132.52 330.7 132.107 331.473 131.28C332.246 130.453 332.633 129.293 332.633 127.8V115.68H339.473ZM357.986 115.44C360.6 115.44 362.68 116.293 364.226 118C365.8 119.68 366.586 122 366.586 124.96V138H359.786V125.88C359.786 124.387 359.4 123.227 358.626 122.4C357.853 121.573 356.813 121.16 355.506 121.16C354.2 121.16 353.16 121.573 352.386 122.4C351.613 123.227 351.226 124.387 351.226 125.88V138H344.386V115.68H351.226V118.64C351.92 117.653 352.853 116.88 354.026 116.32C355.2 115.733 356.52 115.44 357.986 115.44ZM369.979 126.84C369.979 124.52 370.446 122.493 371.379 120.76C372.339 119.027 373.659 117.693 375.339 116.76C377.046 115.827 378.993 115.36 381.179 115.36C383.979 115.36 386.313 116.093 388.179 117.56C390.073 119.027 391.313 121.093 391.899 123.76H384.619C384.006 122.053 382.819 121.2 381.059 121.2C379.806 121.2 378.806 121.693 378.059 122.68C377.313 123.64 376.939 125.027 376.939 126.84C376.939 128.653 377.313 130.053 378.059 131.04C378.806 132 379.806 132.48 381.059 132.48C382.819 132.48 384.006 131.627 384.619 129.92H391.899C391.313 132.533 390.073 134.587 388.179 136.08C386.286 137.573 383.953 138.32 381.179 138.32C378.993 138.32 377.046 137.853 375.339 136.92C373.659 135.987 372.339 134.653 371.379 132.92C370.446 131.187 369.979 129.16 369.979 126.84ZM405.718 138.32C403.531 138.32 401.558 137.853 399.798 136.92C398.065 135.987 396.691 134.653 395.678 132.92C394.691 131.187 394.198 129.16 394.198 126.84C394.198 124.547 394.705 122.533 395.718 120.8C396.731 119.04 398.118 117.693 399.878 116.76C401.638 115.827 403.611 115.36 405.798 115.36C407.985 115.36 409.958 115.827 411.718 116.76C413.478 117.693 414.865 119.04 415.878 120.8C416.891 122.533 417.398 124.547 417.398 126.84C417.398 129.133 416.878 131.16 415.838 132.92C414.825 134.653 413.425 135.987 411.638 136.92C409.878 137.853 407.905 138.32 405.718 138.32ZM405.718 132.4C407.025 132.4 408.131 131.92 409.038 130.96C409.971 130 410.438 128.627 410.438 126.84C410.438 125.053 409.985 123.68 409.078 122.72C408.198 121.76 407.105 121.28 405.798 121.28C404.465 121.28 403.358 121.76 402.478 122.72C401.598 123.653 401.158 125.027 401.158 126.84C401.158 128.627 401.585 130 402.438 130.96C403.318 131.92 404.411 132.4 405.718 132.4ZM449.507 115.44C452.28 115.44 454.48 116.28 456.107 117.96C457.76 119.64 458.587 121.973 458.587 124.96V138H451.787V125.88C451.787 124.44 451.4 123.333 450.627 122.56C449.88 121.76 448.84 121.36 447.507 121.36C446.174 121.36 445.12 121.76 444.347 122.56C443.6 123.333 443.227 124.44 443.227 125.88V138H436.427V125.88C436.427 124.44 436.04 123.333 435.267 122.56C434.52 121.76 433.48 121.36 432.147 121.36C430.814 121.36 429.76 121.76 428.987 122.56C428.24 123.333 427.867 124.44 427.867 125.88V138H421.027V115.68H427.867V118.48C428.56 117.547 429.467 116.813 430.587 116.28C431.707 115.72 432.974 115.44 434.387 115.44C436.067 115.44 437.56 115.8 438.867 116.52C440.2 117.24 441.24 118.267 441.987 119.6C442.76 118.373 443.814 117.373 445.147 116.6C446.48 115.827 447.934 115.44 449.507 115.44ZM470.211 118.84C470.877 117.8 471.797 116.96 472.971 116.32C474.144 115.68 475.517 115.36 477.091 115.36C478.931 115.36 480.597 115.827 482.091 116.76C483.584 117.693 484.757 119.027 485.611 120.76C486.491 122.493 486.931 124.507 486.931 126.8C486.931 129.093 486.491 131.12 485.611 132.88C484.757 134.613 483.584 135.96 482.091 136.92C480.597 137.853 478.931 138.32 477.091 138.32C475.544 138.32 474.171 138 472.971 137.36C471.797 136.72 470.877 135.893 470.211 134.88V148.64H463.371V115.68H470.211V118.84ZM479.971 126.8C479.971 125.093 479.491 123.76 478.531 122.8C477.597 121.813 476.437 121.32 475.051 121.32C473.691 121.32 472.531 121.813 471.571 122.8C470.637 123.787 470.171 125.133 470.171 126.84C470.171 128.547 470.637 129.893 471.571 130.88C472.531 131.867 473.691 132.36 475.051 132.36C476.411 132.36 477.571 131.867 478.531 130.88C479.491 129.867 479.971 128.507 479.971 126.8ZM497.359 108.4V138H490.519V108.4H497.359ZM505.756 113.36C504.556 113.36 503.569 113.013 502.796 112.32C502.049 111.6 501.676 110.72 501.676 109.68C501.676 108.613 502.049 107.733 502.796 107.04C503.569 106.32 504.556 105.96 505.756 105.96C506.929 105.96 507.889 106.32 508.636 107.04C509.409 107.733 509.796 108.613 509.796 109.68C509.796 110.72 509.409 111.6 508.636 112.32C507.889 113.013 506.929 113.36 505.756 113.36ZM509.156 115.68V138H502.316V115.68H509.156ZM512.753 126.84C512.753 124.52 513.219 122.493 514.153 120.76C515.113 119.027 516.433 117.693 518.113 116.76C519.819 115.827 521.766 115.36 523.953 115.36C526.753 115.36 529.086 116.093 530.953 117.56C532.846 119.027 534.086 121.093 534.673 123.76H527.393C526.779 122.053 525.593 121.2 523.833 121.2C522.579 121.2 521.579 121.693 520.833 122.68C520.086 123.64 519.713 125.027 519.713 126.84C519.713 128.653 520.086 130.053 520.833 131.04C521.579 132 522.579 132.48 523.833 132.48C525.593 132.48 526.779 131.627 527.393 129.92H534.673C534.086 132.533 532.846 134.587 530.953 136.08C529.059 137.573 526.726 138.32 523.953 138.32C521.766 138.32 519.819 137.853 518.113 136.92C516.433 135.987 515.113 134.653 514.153 132.92C513.219 131.187 512.753 129.16 512.753 126.84ZM536.972 126.8C536.972 124.507 537.398 122.493 538.252 120.76C539.132 119.027 540.318 117.693 541.812 116.76C543.305 115.827 544.972 115.36 546.812 115.36C548.385 115.36 549.758 115.68 550.932 116.32C552.132 116.96 553.052 117.8 553.692 118.84V115.68H560.532V138H553.692V134.84C553.025 135.88 552.092 136.72 550.892 137.36C549.718 138 548.345 138.32 546.772 138.32C544.958 138.32 543.305 137.853 541.812 136.92C540.318 135.96 539.132 134.613 538.252 132.88C537.398 131.12 536.972 129.093 536.972 126.8ZM553.692 126.84C553.692 125.133 553.212 123.787 552.252 122.8C551.318 121.813 550.172 121.32 548.812 121.32C547.452 121.32 546.292 121.813 545.332 122.8C544.398 123.76 543.932 125.093 543.932 126.8C543.932 128.507 544.398 129.867 545.332 130.88C546.292 131.867 547.452 132.36 548.812 132.36C550.172 132.36 551.318 131.867 552.252 130.88C553.212 129.893 553.692 128.547 553.692 126.84ZM577.92 132.2V138H574.44C571.96 138 570.027 137.4 568.64 136.2C567.253 134.973 566.56 132.987 566.56 130.24V121.36H563.84V115.68H566.56V110.24H573.4V115.68H577.88V121.36H573.4V130.32C573.4 130.987 573.56 131.467 573.88 131.76C574.2 132.053 574.733 132.2 575.48 132.2H577.92ZM602.77 126.48C602.77 127.12 602.73 127.787 602.65 128.48H587.17C587.277 129.867 587.717 130.933 588.49 131.68C589.29 132.4 590.263 132.76 591.41 132.76C593.117 132.76 594.303 132.04 594.97 130.6H602.25C601.877 132.067 601.197 133.387 600.21 134.56C599.25 135.733 598.037 136.653 596.57 137.32C595.103 137.987 593.463 138.32 591.65 138.32C589.463 138.32 587.517 137.853 585.81 136.92C584.103 135.987 582.77 134.653 581.81 132.92C580.85 131.187 580.37 129.16 580.37 126.84C580.37 124.52 580.837 122.493 581.77 120.76C582.73 119.027 584.063 117.693 585.77 116.76C587.477 115.827 589.437 115.36 591.65 115.36C593.81 115.36 595.73 115.813 597.41 116.72C599.09 117.627 600.397 118.92 601.33 120.6C602.29 122.28 602.77 124.24 602.77 126.48ZM595.77 124.68C595.77 123.507 595.37 122.573 594.57 121.88C593.77 121.187 592.77 120.84 591.57 120.84C590.423 120.84 589.45 121.173 588.65 121.84C587.877 122.507 587.397 123.453 587.21 124.68H595.77ZM605.018 126.8C605.018 124.507 605.445 122.493 606.298 120.76C607.178 119.027 608.365 117.693 609.858 116.76C611.352 115.827 613.018 115.36 614.858 115.36C616.325 115.36 617.658 115.667 618.858 116.28C620.085 116.893 621.045 117.72 621.738 118.76V108.4H628.578V138H621.738V134.8C621.098 135.867 620.178 136.72 618.978 137.36C617.805 138 616.432 138.32 614.858 138.32C613.018 138.32 611.352 137.853 609.858 136.92C608.365 135.96 607.178 134.613 606.298 132.88C605.445 131.12 605.018 129.093 605.018 126.8ZM621.738 126.84C621.738 125.133 621.258 123.787 620.298 122.8C619.365 121.813 618.218 121.32 616.858 121.32C615.498 121.32 614.338 121.813 613.378 122.8C612.445 123.76 611.978 125.093 611.978 126.8C611.978 128.507 612.445 129.867 613.378 130.88C614.338 131.867 615.498 132.36 616.858 132.36C618.218 132.36 619.365 131.867 620.298 130.88C621.258 129.893 621.738 128.547 621.738 126.84Z" fill="#3E4E61"/>
<rect x="5" y="5" width="75" height="75" fill="#0EAAFF"/>
<rect x="954" y="177" width="75" height="75" transform="rotate(-180 954 177)" fill="#0EAAFF"/>
<rect width="75" height="75" fill="#FF7F00"/>
<rect x="959" y="182" width="75" height="75" transform="rotate(-180 959 182)" fill="#FF7F00"/>
</svg>
