<svg width="172" height="62" viewBox="0 0 172 62" fill="none" xmlns="http://www.w3.org/2000/svg">
<rect x="1" y="1" width="170" height="60" rx="16" stroke="#203A59" stroke-width="2"/>
<path d="M44.1904 32.1643C44.2216 29.6967 45.4908 27.4174 47.5533 26.125C46.2462 24.2223 44.1355 23.0592 41.8578 22.9865C39.4614 22.7302 37.1383 24.4481 35.9172 24.4481C34.6724 24.4481 32.7923 23.012 30.7678 23.0544C28.104 23.1422 25.6808 24.6485 24.3848 27.0223C21.6249 31.8927 23.6835 39.0506 26.3273 42.9875C27.65 44.9152 29.1958 47.0686 31.2186 46.9923C33.198 46.9086 33.9372 45.7057 36.3265 45.7057C38.6936 45.7057 39.3872 46.9923 41.4509 46.9437C43.5749 46.9086 44.9131 45.0074 46.1894 43.0613C47.1398 41.6877 47.8711 40.1696 48.3562 38.5631C45.8336 37.4756 44.1933 34.9561 44.1904 32.1643Z" fill="#203A59"/>
<path d="M40.2923 20.3976C41.4503 18.9805 42.0209 17.1592 41.8827 15.3203C40.1135 15.5097 38.4791 16.3716 37.3054 17.7343C36.1464 19.0787 35.5593 20.8376 35.6733 22.6236C37.4663 22.6424 39.1687 21.822 40.2923 20.3976Z" fill="#203A59"/>
<path d="M64.3942 46L65.3658 43.0149H70.0895L71.0611 46H74.027L69.5142 32.9091H65.9474L61.4283 46H64.3942ZM66.0689 40.8544L67.6797 35.9006H67.782L69.3928 40.8544H66.0689ZM75.5515 49.6818H78.2745V44.4276H78.3576C78.7347 45.2457 79.5593 46.1598 81.1445 46.1598C83.3817 46.1598 85.1268 44.3892 85.1268 41.1037C85.1268 37.7287 83.305 36.054 81.1509 36.054C79.5082 36.054 78.7219 37.032 78.3576 37.831H78.2362V36.1818H75.5515V49.6818ZM78.217 41.0909C78.217 39.3395 78.9585 38.2209 80.2816 38.2209C81.6303 38.2209 82.3462 39.3906 82.3462 41.0909C82.3462 42.804 81.6175 43.9929 80.2816 43.9929C78.9712 43.9929 78.217 42.8423 78.217 41.0909ZM86.9421 49.6818H89.6651V44.4276H89.7482C90.1254 45.2457 90.9499 46.1598 92.5352 46.1598C94.7724 46.1598 96.5174 44.3892 96.5174 41.1037C96.5174 37.7287 94.6957 36.054 92.5415 36.054C90.8988 36.054 90.1126 37.032 89.7482 37.831H89.6268V36.1818H86.9421V49.6818ZM89.6076 41.0909C89.6076 39.3395 90.3491 38.2209 91.6722 38.2209C93.021 38.2209 93.7369 39.3906 93.7369 41.0909C93.7369 42.804 93.0082 43.9929 91.6722 43.9929C90.3619 43.9929 89.6076 42.8423 89.6076 41.0909ZM109.651 36.674H112.304C112.266 34.3409 110.348 32.7301 107.433 32.7301C104.563 32.7301 102.46 34.3153 102.473 36.6932C102.467 38.6236 103.828 39.7294 106.04 40.2599L107.465 40.6179C108.891 40.9631 109.683 41.3722 109.69 42.2543C109.683 43.2131 108.776 43.8651 107.369 43.8651C105.931 43.8651 104.896 43.2003 104.806 41.8899H102.128C102.198 44.7216 104.225 46.1854 107.401 46.1854C110.597 46.1854 112.477 44.6577 112.483 42.2607C112.477 40.081 110.834 38.924 108.558 38.4126L107.382 38.1314C106.244 37.8693 105.292 37.4474 105.311 36.5078C105.311 35.6641 106.059 35.044 107.414 35.044C108.737 35.044 109.549 35.6449 109.651 36.674ZM119.516 36.1818H117.669V33.8295H114.946V36.1818H113.603V38.2273H114.946V43.3409C114.933 45.2649 116.243 46.2173 118.218 46.1342C118.922 46.1087 119.42 45.968 119.695 45.8786L119.267 43.8523C119.132 43.8778 118.845 43.9418 118.589 43.9418C118.046 43.9418 117.669 43.7372 117.669 42.983V38.2273H119.516V36.1818ZM125.62 46.1918C128.599 46.1918 130.453 44.1527 130.453 41.1293C130.453 38.0866 128.599 36.054 125.62 36.054C122.642 36.054 120.788 38.0866 120.788 41.1293C120.788 44.1527 122.642 46.1918 125.62 46.1918ZM125.633 44.0824C124.259 44.0824 123.556 42.8232 123.556 41.1101C123.556 39.397 124.259 38.1314 125.633 38.1314C126.982 38.1314 127.685 39.397 127.685 41.1101C127.685 42.8232 126.982 44.0824 125.633 44.0824ZM132.223 46H134.946V40.4453C134.946 39.2372 135.828 38.4062 137.03 38.4062C137.407 38.4062 137.925 38.4702 138.181 38.5533V36.1371C137.938 36.0795 137.599 36.0412 137.324 36.0412C136.225 36.0412 135.324 36.6804 134.966 37.8949H134.863V36.1818H132.223V46ZM143.606 46.1918C146.035 46.1918 147.671 45.0092 148.055 43.1875L145.536 43.0213C145.262 43.7692 144.558 44.1591 143.651 44.1591C142.289 44.1591 141.426 43.2578 141.426 41.794V41.7876H148.112V41.0398C148.112 37.7031 146.093 36.054 143.497 36.054C140.608 36.054 138.735 38.1058 138.735 41.1357C138.735 44.2486 140.583 46.1918 143.606 46.1918ZM141.426 40.1001C141.484 38.9815 142.334 38.0866 143.542 38.0866C144.725 38.0866 145.543 38.9304 145.549 40.1001H141.426Z" fill="#203A59"/>
<path d="M68.125 24C70.3409 24 71.5909 22.6222 71.5909 20.3494C71.5909 18.0909 70.3409 16.7273 68.2244 16.7273H65.8807V24H68.125ZM66.7614 23.2188V17.5085H68.1676C69.8722 17.5085 70.7386 18.5881 70.7386 20.3494C70.7386 22.125 69.8722 23.2188 68.0682 23.2188H66.7614ZM75.1705 24.1136C76.6477 24.1136 77.642 22.9915 77.642 21.3011C77.642 19.5966 76.6477 18.4744 75.1705 18.4744C73.6932 18.4744 72.6989 19.5966 72.6989 21.3011C72.6989 22.9915 73.6932 24.1136 75.1705 24.1136ZM75.1705 23.3608C74.0483 23.3608 73.5369 22.3949 73.5369 21.3011C73.5369 20.2074 74.0483 19.2273 75.1705 19.2273C76.2926 19.2273 76.804 20.2074 76.804 21.3011C76.804 22.3949 76.2926 23.3608 75.1705 23.3608ZM79.9716 24H80.7955L81.9886 19.8097H82.0739L83.267 24H84.0909L85.7528 18.5455H84.8722L83.6932 22.7074H83.6364L82.4858 18.5455H81.5909L80.4261 22.7216H80.3693L79.1903 18.5455H78.3097L79.9716 24ZM87.6989 20.7188C87.6989 19.767 88.2884 19.2273 89.0909 19.2273C89.8686 19.2273 90.3409 19.7351 90.3409 20.5909V24H91.179V20.5341C91.179 19.142 90.4368 18.4744 89.3324 18.4744C88.5085 18.4744 87.9972 18.8438 87.7415 19.3977H87.6705V18.5455H86.8608V24H87.6989V20.7188ZM93.5485 16.7273H92.7104V24H93.5485V16.7273ZM97.2994 24.1136C98.7766 24.1136 99.771 22.9915 99.771 21.3011C99.771 19.5966 98.7766 18.4744 97.2994 18.4744C95.8221 18.4744 94.8278 19.5966 94.8278 21.3011C94.8278 22.9915 95.8221 24.1136 97.2994 24.1136ZM97.2994 23.3608C96.1772 23.3608 95.6658 22.3949 95.6658 21.3011C95.6658 20.2074 96.1772 19.2273 97.2994 19.2273C98.4215 19.2273 98.9329 20.2074 98.9329 21.3011C98.9329 22.3949 98.4215 23.3608 97.2994 23.3608ZM102.655 24.1278C103.607 24.1278 104.104 23.6165 104.275 23.2614H104.317V24H105.155V20.4062C105.155 18.6733 103.834 18.4744 103.138 18.4744C102.314 18.4744 101.377 18.7585 100.951 19.7528L101.746 20.0369C101.931 19.6392 102.368 19.2131 103.167 19.2131C103.937 19.2131 104.317 19.6214 104.317 20.321V20.3494C104.317 20.7543 103.905 20.7188 102.911 20.8466C101.899 20.978 100.795 21.2017 100.795 22.4517C100.795 23.517 101.618 24.1278 102.655 24.1278ZM102.783 23.375C102.116 23.375 101.633 23.0767 101.633 22.4943C101.633 21.8551 102.215 21.6562 102.868 21.571C103.224 21.5284 104.175 21.429 104.317 21.2585V22.0256C104.317 22.7074 103.778 23.375 102.783 23.375ZM108.745 24.1136C109.796 24.1136 110.151 23.4602 110.336 23.1619H110.435V24H111.245V16.7273H110.407V19.4119H110.336C110.151 19.1278 109.824 18.4744 108.759 18.4744C107.381 18.4744 106.429 19.5682 106.429 21.2869C106.429 23.0199 107.381 24.1136 108.745 24.1136ZM108.858 23.3608C107.807 23.3608 107.267 22.4375 107.267 21.2727C107.267 20.1222 107.793 19.2273 108.858 19.2273C109.881 19.2273 110.421 20.0511 110.421 21.2727C110.421 22.5085 109.867 23.3608 108.858 23.3608ZM117.924 24.1136C119.402 24.1136 120.396 22.9915 120.396 21.3011C120.396 19.5966 119.402 18.4744 117.924 18.4744C116.447 18.4744 115.453 19.5966 115.453 21.3011C115.453 22.9915 116.447 24.1136 117.924 24.1136ZM117.924 23.3608C116.802 23.3608 116.291 22.3949 116.291 21.3011C116.291 20.2074 116.802 19.2273 117.924 19.2273C119.047 19.2273 119.558 20.2074 119.558 21.3011C119.558 22.3949 119.047 23.3608 117.924 23.3608ZM122.513 20.7188C122.513 19.767 123.103 19.2273 123.905 19.2273C124.683 19.2273 125.155 19.7351 125.155 20.5909V24H125.993V20.5341C125.993 19.142 125.251 18.4744 124.147 18.4744C123.323 18.4744 122.812 18.8438 122.556 19.3977H122.485V18.5455H121.675V24H122.513V20.7188ZM132.71 18.5455H131.545V17.2386H130.707V18.5455H129.883V19.2557H130.707V22.6648C130.707 23.6165 131.474 24.071 132.184 24.071C132.496 24.071 132.695 24.0142 132.809 23.9716L132.638 23.2188C132.567 23.233 132.454 23.2614 132.269 23.2614C131.9 23.2614 131.545 23.1477 131.545 22.4375V19.2557H132.71V18.5455ZM134.925 20.7188C134.925 19.767 135.533 19.2273 136.36 19.2273C137.148 19.2273 137.624 19.7244 137.624 20.5909V24H138.462V20.5341C138.462 19.1314 137.717 18.4744 136.602 18.4744C135.742 18.4744 135.252 18.8331 134.996 19.3977H134.925V16.7273H134.087V24H134.925V20.7188ZM142.282 24.1136C143.39 24.1136 144.2 23.5597 144.456 22.7358L143.646 22.5085C143.433 23.0767 142.939 23.3608 142.282 23.3608C141.299 23.3608 140.621 22.7251 140.581 21.5568H144.541V21.2017C144.541 19.1705 143.334 18.4744 142.197 18.4744C140.72 18.4744 139.74 19.6392 139.74 21.3153C139.74 22.9915 140.706 24.1136 142.282 24.1136ZM140.581 20.8324C140.638 19.9837 141.238 19.2273 142.197 19.2273C143.106 19.2273 143.689 19.9091 143.689 20.8324H140.581Z" fill="#203A59"/>
</svg>
