<svg width="30" height="30" viewBox="0 0 30 30" fill="none" xmlns="http://www.w3.org/2000/svg">
<path d="M5.25 30L24.75 30C27.6495 30 30 27.6495 30 24.75L30 5.25C30 2.35051 27.6495 0 24.75 0L5.25 0C2.35051 0 0 2.35051 0 5.25L0 24.75C0 27.6495 2.35051 30 5.25 30Z" fill="url(#paint0_radial_0_553)"/>
<path d="M20.625 26.25H9.375C7.88316 26.25 6.45242 25.6574 5.39752 24.6025C4.34263 23.5476 3.75 22.1168 3.75 20.625V9.375C3.75 7.88316 4.34263 6.45242 5.39752 5.39752C6.45242 4.34263 7.88316 3.75 9.375 3.75H20.625C22.1168 3.75 23.5476 4.34263 24.6025 5.39752C25.6574 6.45242 26.25 7.88316 26.25 9.375V20.625C26.25 22.1168 25.6574 23.5476 24.6025 24.6025C23.5476 25.6574 22.1168 26.25 20.625 26.25ZM9.375 6C8.48028 6.00124 7.62255 6.35722 6.98988 6.98988C6.35722 7.62255 6.00124 8.48028 6 9.375V20.625C6.00124 21.5197 6.35722 22.3774 6.98988 23.0101C7.62255 23.6428 8.48028 23.9988 9.375 24H20.625C21.5197 23.9988 22.3774 23.6428 23.0101 23.0101C23.6428 22.3774 23.9988 21.5197 24 20.625V9.375C23.9988 8.48028 23.6428 7.62255 23.0101 6.98988C22.3774 6.35722 21.5197 6.00124 20.625 6H9.375Z" fill="white"/>
<path d="M15.0006 21.3755C13.7398 21.3755 12.5072 21.0016 11.4589 20.3011C10.4105 19.6006 9.59341 18.605 9.11091 17.4401C8.6284 16.2752 8.50215 14.9934 8.74813 13.7568C8.99411 12.5202 9.60127 11.3842 10.4928 10.4927C11.3844 9.60113 12.5203 8.99397 13.7569 8.74798C14.9936 8.502 16.2754 8.62825 17.4402 9.11076C18.6051 9.59327 19.6008 10.4104 20.3013 11.4587C21.0017 12.5071 21.3756 13.7396 21.3756 15.0005C21.3744 16.6909 20.7023 18.3116 19.5071 19.5069C18.3118 20.7022 16.691 21.3742 15.0006 21.3755ZM15.0006 10.8755C14.1848 10.8755 13.3873 11.1174 12.7089 11.5707C12.0306 12.0239 11.5018 12.6682 11.1896 13.4219C10.8774 14.1757 10.7957 15.0051 10.9549 15.8052C11.1141 16.6054 11.5069 17.3404 12.0838 17.9173C12.6607 18.4942 13.3957 18.8871 14.1959 19.0462C14.9961 19.2054 15.8255 19.1237 16.5792 18.8115C17.333 18.4993 17.9772 17.9706 18.4304 17.2922C18.8837 16.6139 19.1256 15.8163 19.1256 15.0005C19.1244 13.9069 18.6894 12.8584 17.9161 12.085C17.1428 11.3117 16.0943 10.8767 15.0006 10.8755Z" fill="white"/>
<path d="M21.375 10.125C21.9963 10.125 22.5 9.62132 22.5 9C22.5 8.37868 21.9963 7.875 21.375 7.875C20.7537 7.875 20.25 8.37868 20.25 9C20.25 9.62132 20.7537 10.125 21.375 10.125Z" fill="white"/>
<defs>
<radialGradient id="paint0_radial_0_553" cx="0" cy="0" r="1" gradientUnits="userSpaceOnUse" gradientTransform="translate(-0.603514 29.3906) rotate(180) scale(69.2789)">
<stop stop-color="#F9ED32"/>
<stop offset="0.36" stop-color="#EE2A7B"/>
<stop offset="0.44" stop-color="#D22A8A"/>
<stop offset="0.6" stop-color="#8B2AB2"/>
<stop offset="0.83" stop-color="#1B2AF0"/>
<stop offset="0.88" stop-color="#002AFF"/>
</radialGradient>
</defs>
</svg>
