<svg width="205" height="50" viewBox="0 0 205 50" fill="none" xmlns="http://www.w3.org/2000/svg">
<path d="M41.8543 36.4505C42.2707 35.908 42.8153 35.4932 43.4452 35.2273C44.4062 34.8232 45.4632 34.8232 46.4241 35.2167C47.3851 35.6102 48.1431 36.3547 48.5382 37.312C49.072 38.5777 48.8799 40.0561 48.047 41.1516C47.6306 41.694 47.0861 42.1088 46.4562 42.3747C44.4702 43.1937 42.1853 42.2684 41.3632 40.2901C40.8293 39.0138 41.0215 37.546 41.8543 36.4505Z" fill="#212D63"/>
<path d="M6.18356 36.4505C6.59996 35.908 7.14449 35.4932 7.77444 35.2273C8.73538 34.8232 9.79241 34.8232 10.7533 35.2167C11.7143 35.6102 12.4724 36.3547 12.8674 37.312C13.4013 38.5777 13.2091 40.0561 12.3763 41.1516C11.9599 41.694 11.4153 42.1088 10.7854 42.3747C8.79944 43.1937 6.51454 42.2684 5.69241 40.2901C5.15855 39.0138 5.35074 37.546 6.18356 36.4505Z" fill="#40BAEC"/>
<path d="M17.1987 11.8441C22.9537 11.8654 28.3456 14.1096 32.4029 18.1726C36.4602 22.2355 38.681 27.628 38.6597 33.3608C38.649 37.9131 37.2183 42.2526 34.5383 45.9114L34.1646 46.4219L31.0789 44.1777L31.4526 43.6671C33.6521 40.6571 34.8266 37.0834 34.8373 33.3396C34.8693 23.6076 26.9469 15.6731 17.1774 15.6412H16.5367L16.5474 11.8335L17.1987 11.8441Z" fill="#212D63"/>
<path d="M27.0891 10.8577C26.4057 10.8577 25.7437 10.6769 25.1458 10.3365C24.2489 9.82598 23.5976 8.98573 23.3307 7.98594C23.0638 6.98616 23.2026 5.93319 23.7258 5.03976C24.4198 3.84853 25.7117 3.104 27.0891 3.104C27.7724 3.104 28.4344 3.28482 29.0323 3.62517C30.8901 4.69941 31.5307 7.07124 30.463 8.92191C29.769 10.1238 28.4771 10.8577 27.0891 10.8577Z" fill="#F57F20"/>
<path d="M19.8748 46.3846C16.4047 41.8218 14.9206 36.174 15.7107 30.505C16.5008 24.8254 19.4477 19.7945 24.0388 16.3378C27.6797 13.5937 32.0039 12.0834 36.5524 11.9877L37.193 11.9771L37.2784 15.7741L36.6378 15.7847C32.9008 15.8698 29.3347 17.1036 26.3451 19.3585C18.5615 25.2295 17.024 36.3229 22.9284 44.0766L23.3128 44.5871L20.2698 46.8845L19.8748 46.3846Z" fill="#F57F20"/>
<path d="M46.0909 26.9373C43.4217 32.0107 38.9373 35.7545 33.4493 37.4669C27.9612 39.1793 22.1316 38.6582 17.0386 35.9992C12.992 33.8932 9.77817 30.628 7.74952 26.5756L7.46124 26.0119L10.8779 24.3208L11.1662 24.8845C12.8318 28.2242 15.4797 30.9045 18.8003 32.6382C27.4487 37.1479 38.1792 33.8081 42.7063 25.1823L43.0053 24.6186L46.3899 26.3842L46.0909 26.9373Z" fill="#40BAEC"/>
<path d="M77.7821 18.2377V13.3877H57.3248V18.727H69.8811L56.9832 34.9788V40.0522H77.8248V34.7342H64.724L77.7821 18.2377Z" fill="#212D63"/>
<path d="M105.904 15.729C103.875 13.655 100.918 12.6021 97.1165 12.6021C93.3154 12.6021 90.3579 13.655 88.3292 15.729C85.6279 18.1753 84.2612 21.8554 84.2612 26.6842C84.2612 31.4278 85.6279 35.1079 88.3185 37.6393C90.3472 39.7239 93.3047 40.7769 97.1165 40.7769C100.918 40.7769 103.875 39.7239 105.904 37.6499C108.594 35.1185 109.95 31.4278 109.95 26.6948C109.95 21.8554 108.594 18.1753 105.904 15.729ZM92.2584 20.1749C93.4756 18.6752 95.0665 17.9413 97.1165 17.9413C99.1665 17.9413 100.747 18.6752 101.953 20.1855C103.16 21.6959 103.768 23.8869 103.768 26.6948C103.768 29.5133 103.16 31.7044 101.953 33.2147C100.757 34.7144 99.1771 35.4483 97.1165 35.4483C95.0665 35.4483 93.4756 34.7144 92.2584 33.2147C91.0412 31.7044 90.4219 29.5133 90.4219 26.6948C90.4219 23.8656 91.0412 21.6746 92.2584 20.1749Z" fill="#212D63"/>
<path d="M133.039 29.6821C133.039 31.3945 132.837 32.6496 132.452 33.4154L132.441 33.4366C131.844 34.7555 130.562 35.3937 128.512 35.3937C126.452 35.3937 125.16 34.7555 124.562 33.4366L124.551 33.4154C124.156 32.6496 123.964 31.3945 123.964 29.6821V13.3877H117.686V29.6927C117.686 32.5007 118.134 34.7236 119.02 36.3084C120.697 39.2333 123.889 40.7117 128.512 40.7117C133.135 40.7117 136.317 39.2333 137.983 36.2977C138.869 34.7129 139.318 32.49 139.318 29.6821V13.3877H133.039V29.6821Z" fill="#212D63"/>
<path d="M171.924 13.3877H163.831L154.317 23.4919V13.3877H148.221V40.0522H154.317V31.1605L156.506 28.9482L164.375 40.0522H172.308L160.83 24.4598L171.924 13.3877Z" fill="#212D63"/>
<path d="M197.142 26.5098C196.106 25.6908 194.537 25.042 192.497 24.5528L187.928 23.4785C186.209 23.0744 185.077 22.734 184.564 22.4468C183.849 22.0533 183.497 21.4896 183.497 20.7025C183.497 19.8197 183.86 19.1497 184.607 18.6604C185.397 18.1392 186.486 17.8733 187.842 17.8733C189.07 17.8733 190.095 18.0754 190.906 18.4796C192.092 19.0752 192.711 20.0644 192.796 21.4896L192.818 21.8406H198.786L198.776 21.4577C198.679 18.5966 197.59 16.3843 195.54 14.8633C193.522 13.3743 191.056 12.6191 188.216 12.6191C184.81 12.6191 182.183 13.4275 180.411 15.0229C178.617 16.6289 177.71 18.6604 177.71 21.0854C177.71 23.7444 178.649 25.744 180.496 26.9991C181.585 27.7542 183.497 28.4137 186.337 29.0412L189.155 29.6581C190.757 29.9984 191.931 30.392 192.647 30.828C193.298 31.2322 193.608 31.7746 193.608 32.4979C193.608 33.7955 192.935 34.6676 191.536 35.1463C190.768 35.4122 189.732 35.5504 188.472 35.5504C186.411 35.5504 184.949 35.0612 184.127 34.0827C183.678 33.5509 183.379 32.7212 183.219 31.6151L183.176 31.296H177.283V31.6683C177.283 34.4762 178.318 36.7098 180.368 38.3158C182.386 39.9006 185.184 40.7089 188.686 40.7089C192.113 40.7089 194.814 39.8899 196.715 38.2733C198.626 36.6459 199.598 34.5613 199.598 32.0937C199.608 29.6793 198.786 27.7968 197.142 26.5098Z" fill="#212D63"/>
</svg>
