<svg width="45" height="46" viewBox="0 0 45 46" fill="none" xmlns="http://www.w3.org/2000/svg">
<path d="M35.1984 33.5343C35.5648 33.0353 36.0438 32.6536 36.5981 32.409C37.4435 32.0372 38.3735 32.0372 39.2189 32.3992C40.0644 32.7613 40.7313 33.4462 41.0789 34.3269C41.5486 35.4913 41.3795 36.8515 40.6468 37.8593C40.2804 38.3584 39.8013 38.74 39.2471 38.9846C37.4999 39.7381 35.4896 38.8868 34.7663 37.0667C34.2966 35.8925 34.4657 34.5422 35.1984 33.5343Z" fill="#212D63"/>
<path d="M3.81391 33.5343C4.18027 33.0353 4.65935 32.6536 5.21358 32.409C6.05902 32.0372 6.989 32.0372 7.83444 32.3992C8.67987 32.7613 9.34683 33.4462 9.6944 34.3269C10.1641 35.4913 9.995 36.8515 9.26229 37.8593C8.89593 38.3584 8.41685 38.74 7.86262 38.9846C6.11538 39.7381 4.10512 38.8868 3.3818 37.0667C2.90272 35.8925 3.07181 34.5422 3.81391 33.5343Z" fill="#40BAEC"/>
<path d="M13.5082 10.9004C18.5714 10.92 23.3153 12.9846 26.8849 16.7226C30.4545 20.4605 32.4084 25.4216 32.3896 30.6958C32.3802 34.8838 31.1215 38.8762 28.7636 42.2423L28.4349 42.7119L25.7201 40.6473L26.0488 40.1776C27.984 37.4084 29.0173 34.1206 29.0267 30.6762C29.0548 21.7228 22.0847 14.4231 13.4894 14.3937H12.9258L12.9352 10.8906L13.5082 10.9004Z" fill="#212D63"/>
<path d="M22.2068 9.9908C21.6056 9.9908 21.0232 9.82445 20.4972 9.51132C19.7081 9.04164 19.1351 8.26861 18.9002 7.34881C18.6654 6.429 18.7875 5.46027 19.2478 4.63832C19.8584 3.54238 20.9951 2.85742 22.2068 2.85742C22.808 2.85742 23.3905 3.02377 23.9165 3.33689C25.551 4.32519 26.1146 6.50728 25.1753 8.2099C24.5647 9.31562 23.428 9.9908 22.2068 9.9908Z" fill="#F57F20"/>
<path d="M15.8568 42.6735C12.8038 38.4757 11.4981 33.2798 12.1932 28.0643C12.8884 22.839 15.481 18.2106 19.5203 15.0305C22.7236 12.5059 26.5281 11.1164 30.5298 11.0283L31.0934 11.0186L31.1686 14.5119L30.605 14.5216C27.3172 14.5999 24.1796 15.735 21.5494 17.8095C14.7013 23.2109 13.3487 33.4168 18.5434 40.5501L18.8816 41.0198L16.2044 43.1334L15.8568 42.6735Z" fill="#F57F20"/>
<path d="M38.928 24.7861C36.5795 29.4536 32.6342 32.8979 27.8058 34.4734C22.9774 36.0488 17.8484 35.5693 13.3676 33.123C9.80737 31.1855 6.97985 28.1815 5.19504 24.4534L4.94141 23.9347L7.9474 22.3789L8.20104 22.8975C9.66646 25.9701 11.9961 28.4359 14.9176 30.0309C22.5265 34.1798 31.9672 31.1073 35.9502 23.1715L36.2132 22.6529L39.191 24.2772L38.928 24.7861Z" fill="#40BAEC"/>
</svg>
