<svg width="172" height="62" viewBox="0 0 172 62" fill="none" xmlns="http://www.w3.org/2000/svg">
<rect x="1" y="1" width="170" height="60" rx="16" stroke="#203A59" stroke-width="2"/>
<path d="M62.8182 37.1406H65.6307C65.2727 34.5518 62.9908 32.7301 60.0312 32.7301C56.5732 32.7301 53.9077 35.223 53.9077 39.4673C53.9077 43.6094 56.4006 46.179 60.0888 46.179C63.3935 46.179 65.7521 44.0888 65.7521 40.6435V38.9943H60.2741V41.0781H63.0866C63.0483 42.7017 61.9425 43.7308 60.1016 43.7308C58.0241 43.7308 56.7138 42.1776 56.7138 39.4418C56.7138 36.7188 58.0753 35.1783 60.076 35.1783C61.5014 35.1783 62.4666 35.9134 62.8182 37.1406ZM72.2161 46.1918C75.1948 46.1918 77.0485 44.1527 77.0485 41.1293C77.0485 38.0866 75.1948 36.054 72.2161 36.054C69.2374 36.054 67.3837 38.0866 67.3837 41.1293C67.3837 44.1527 69.2374 46.1918 72.2161 46.1918ZM72.2289 44.0824C70.8546 44.0824 70.1515 42.8232 70.1515 41.1101C70.1515 39.397 70.8546 38.1314 72.2289 38.1314C73.5776 38.1314 74.2807 39.397 74.2807 41.1101C74.2807 42.8232 73.5776 44.0824 72.2289 44.0824ZM83.2551 46.1918C86.2338 46.1918 88.0875 44.1527 88.0875 41.1293C88.0875 38.0866 86.2338 36.054 83.2551 36.054C80.2765 36.054 78.4228 38.0866 78.4228 41.1293C78.4228 44.1527 80.2765 46.1918 83.2551 46.1918ZM83.2679 44.0824C81.8936 44.0824 81.1905 42.8232 81.1905 41.1101C81.1905 39.397 81.8936 38.1314 83.2679 38.1314C84.6167 38.1314 85.3198 39.397 85.3198 41.1101C85.3198 42.8232 84.6167 44.0824 83.2679 44.0824ZM94.2814 49.8864C97.0875 49.8864 99.0819 48.608 99.0819 46.0959V36.1818H96.378V37.831H96.2757C95.9114 37.032 95.1124 36.054 93.4696 36.054C91.3155 36.054 89.4938 37.7287 89.4938 41.0717C89.4938 44.3381 91.2644 45.8594 93.476 45.8594C95.0421 45.8594 95.9178 45.0732 96.2757 44.2614H96.3908V46.0575C96.3908 47.4062 95.5279 47.9304 94.3453 47.9304C93.1436 47.9304 92.5364 47.4062 92.3127 46.8118L89.7942 47.1506C90.1202 48.6974 91.6351 49.8864 94.2814 49.8864ZM94.339 43.8139C93.003 43.8139 92.2743 42.7528 92.2743 41.0589C92.2743 39.3906 92.9902 38.2209 94.339 38.2209C95.6621 38.2209 96.4036 39.3395 96.4036 41.0589C96.4036 42.7912 95.6493 43.8139 94.339 43.8139ZM103.972 32.9091H101.249V46H103.972V32.9091ZM110.627 46.1918C113.056 46.1918 114.693 45.0092 115.076 43.1875L112.558 43.0213C112.283 43.7692 111.58 44.1591 110.672 44.1591C109.311 44.1591 108.448 43.2578 108.448 41.794V41.7876H115.134V41.0398C115.134 37.7031 113.114 36.054 110.519 36.054C107.63 36.054 105.757 38.1058 105.757 41.1357C105.757 44.2486 107.604 46.1918 110.627 46.1918ZM108.448 40.1001C108.505 38.9815 109.355 38.0866 110.564 38.0866C111.746 38.0866 112.564 38.9304 112.571 40.1001H108.448ZM121.128 46H123.896V41.7557H126.222C129.233 41.7557 130.985 39.9595 130.985 37.3452C130.985 34.7436 129.265 32.9091 126.293 32.9091H121.128V46ZM123.896 39.5376V35.1719H125.762C127.36 35.1719 128.134 36.0412 128.134 37.3452C128.134 38.6428 127.36 39.5376 125.775 39.5376H123.896ZM135.454 32.9091H132.731V46H135.454V32.9091ZM140.435 46.1854C141.886 46.1854 142.826 45.5526 143.305 44.6385H143.382V46H145.964V39.3778C145.964 37.0384 143.983 36.054 141.797 36.054C139.444 36.054 137.898 37.179 137.52 38.9688L140.039 39.1733C140.224 38.5213 140.806 38.0419 141.784 38.0419C142.711 38.0419 143.241 38.5085 143.241 39.3139V39.3523C143.241 39.9851 142.57 40.0682 140.863 40.2344C138.92 40.4134 137.175 41.0653 137.175 43.2578C137.175 45.201 138.562 46.1854 140.435 46.1854ZM141.215 44.3061C140.378 44.3061 139.777 43.9162 139.777 43.1683C139.777 42.4013 140.41 42.0241 141.368 41.8899C141.963 41.8068 142.934 41.6662 143.26 41.4489V42.4908C143.26 43.5199 142.41 44.3061 141.215 44.3061ZM149.406 49.6818C151.433 49.6818 152.507 48.6463 153.063 47.0611L156.879 36.1946L153.996 36.1818L151.944 43.392H151.842L149.809 36.1818H146.945L150.468 46.2812L150.308 46.6967C149.95 47.6172 149.266 47.6619 148.307 47.3679L147.693 49.4006C148.083 49.5668 148.716 49.6818 149.406 49.6818Z" fill="#203A59"/>
<path d="M62.8523 19H63.7614C63.4915 17.5938 62.3125 16.6278 60.7784 16.6278C58.9141 16.6278 57.5966 18.0625 57.5966 20.3636C57.5966 22.6648 58.9034 24.0994 60.8352 24.0994C62.5682 24.0994 63.804 22.9453 63.804 21.1449V20.3636H61.0341V21.1449H62.9517C62.9268 22.4517 62.0675 23.2756 60.8352 23.2756C59.4858 23.2756 58.4489 22.2528 58.4489 20.3636C58.4489 18.4744 59.4858 17.4517 60.7784 17.4517C61.8295 17.4517 62.5433 18.0447 62.8523 19ZM67.4856 24.1136C68.5936 24.1136 69.4032 23.5597 69.6589 22.7358L68.8493 22.5085C68.6362 23.0767 68.1426 23.3608 67.4856 23.3608C66.502 23.3608 65.8237 22.7251 65.7846 21.5568H69.7441V21.2017C69.7441 19.1705 68.5368 18.4744 67.4004 18.4744C65.9231 18.4744 64.943 19.6392 64.943 21.3153C64.943 22.9915 65.9089 24.1136 67.4856 24.1136ZM65.7846 20.8324C65.8414 19.9837 66.4416 19.2273 67.4004 19.2273C68.3095 19.2273 68.8919 19.9091 68.8919 20.8324H65.7846ZM73.3912 18.5455H72.2264V17.2386H71.3883V18.5455H70.5645V19.2557H71.3883V22.6648C71.3883 23.6165 72.1554 24.071 72.8656 24.071C73.1781 24.071 73.377 24.0142 73.4906 23.9716L73.3201 23.2188C73.2491 23.233 73.1355 23.2614 72.9508 23.2614C72.5815 23.2614 72.2264 23.1477 72.2264 22.4375V19.2557H73.3912V18.5455ZM77.4643 24H78.3024V18.5455H77.4643V24ZM77.8904 17.6364C78.2172 17.6364 78.487 17.3807 78.487 17.0682C78.487 16.7557 78.2172 16.5 77.8904 16.5C77.5637 16.5 77.2939 16.7557 77.2939 17.0682C77.2939 17.3807 77.5637 17.6364 77.8904 17.6364ZM82.2095 18.5455H81.0447V17.2386H80.2067V18.5455H79.3828V19.2557H80.2067V22.6648C80.2067 23.6165 80.9737 24.071 81.6839 24.071C81.9964 24.071 82.1953 24.0142 82.3089 23.9716L82.1385 23.2188C82.0675 23.233 81.9538 23.2614 81.7692 23.2614C81.3999 23.2614 81.0447 23.1477 81.0447 22.4375V19.2557H82.2095V18.5455ZM88.4986 24.1136C89.9759 24.1136 90.9702 22.9915 90.9702 21.3011C90.9702 19.5966 89.9759 18.4744 88.4986 18.4744C87.0213 18.4744 86.027 19.5966 86.027 21.3011C86.027 22.9915 87.0213 24.1136 88.4986 24.1136ZM88.4986 23.3608C87.3764 23.3608 86.8651 22.3949 86.8651 21.3011C86.8651 20.2074 87.3764 19.2273 88.4986 19.2273C89.6207 19.2273 90.1321 20.2074 90.1321 21.3011C90.1321 22.3949 89.6207 23.3608 88.4986 23.3608ZM93.0875 20.7188C93.0875 19.767 93.677 19.2273 94.4796 19.2273C95.2573 19.2273 95.7296 19.7351 95.7296 20.5909V24H96.5676V20.5341C96.5676 19.142 95.8255 18.4744 94.7211 18.4744C93.8972 18.4744 93.3858 18.8438 93.1301 19.3977H93.0591V18.5455H92.2495V24H93.0875V20.7188Z" fill="#203A59"/>
<path d="M16.5706 15.4992C16.1694 15.9806 15.9669 16.5968 16.0044 17.2223V44.4469C15.9669 45.0724 16.1694 45.6886 16.5706 46.17L16.6567 46.2562L31.9059 31.0192V30.6623L16.6567 15.4131L16.5706 15.4992Z" fill="url(#paint0_linear_0_527)"/>
<path d="M36.9521 36.1023L31.9059 31.0192V30.6623L36.9521 25.5669L37.0629 25.6284L43.1059 29.0623C44.829 30.0346 44.829 31.6346 43.1059 32.6192L37.0875 36.0407L36.9521 36.1023Z" fill="url(#paint1_linear_0_527)"/>
<path d="M37.0995 36.0298L31.9057 30.8359L16.5703 46.1713C17.2949 46.8083 18.3702 46.8393 19.1303 46.2452L37.1119 36.0298" fill="url(#paint2_linear_0_527)"/>
<path d="M37.0998 25.641L19.1183 15.4256C18.3582 14.8314 17.2828 14.8625 16.5583 15.4994L31.906 30.8348L37.0998 25.641Z" fill="url(#paint3_linear_0_527)"/>
<defs>
<linearGradient id="paint0_linear_0_527" x1="25.708" y1="16.9392" x2="12.6356" y2="30.0117" gradientUnits="userSpaceOnUse">
<stop stop-color="#00A0FF"/>
<stop offset="0.01" stop-color="#00A1FF"/>
<stop offset="0.26" stop-color="#00BEFF"/>
<stop offset="0.51" stop-color="#00D2FF"/>
<stop offset="0.76" stop-color="#00DFFF"/>
<stop offset="1" stop-color="#00E3FF"/>
</linearGradient>
<linearGradient id="paint1_linear_0_527" x1="45.3583" y1="30.8346" x2="15.5859" y2="30.8346" gradientUnits="userSpaceOnUse">
<stop stop-color="#FFE000"/>
<stop offset="0.41" stop-color="#FFBD00"/>
<stop offset="0.78" stop-color="#FFA500"/>
<stop offset="1" stop-color="#FF9C00"/>
</linearGradient>
<linearGradient id="paint2_linear_0_527" x1="34.2811" y1="35.7307" x2="11.9495" y2="58.0525" gradientUnits="userSpaceOnUse">
<stop stop-color="#FF3A44"/>
<stop offset="1" stop-color="#C31162"/>
</linearGradient>
<linearGradient id="paint3_linear_0_527" x1="12.7059" y1="13.1265" x2="22.6736" y2="23.0942" gradientUnits="userSpaceOnUse">
<stop stop-color="#32A071"/>
<stop offset="0.07" stop-color="#2DA771"/>
<stop offset="0.48" stop-color="#15CF74"/>
<stop offset="0.8" stop-color="#06E775"/>
<stop offset="1" stop-color="#00F076"/>
</linearGradient>
</defs>
</svg>
