<svg width="217" height="198" viewBox="0 0 217 198" fill="none" xmlns="http://www.w3.org/2000/svg">
<mask id="mask0_0_1324" style="mask-type:alpha" maskUnits="userSpaceOnUse" x="0" y="0" width="217" height="198">
<path d="M217 0H0V198H217V0Z" fill="#80C3CE"/>
</mask>
<g mask="url(#mask0_0_1324)">
<path d="M138.235 54.5088C138.235 54.5088 172.019 124.201 124.447 161.086C124.447 161.086 122.483 171.732 129.026 171.871C135.569 172.009 185.988 134.145 146.549 43.4717C146.549 43.4717 140.345 44.7927 138.235 54.5088Z" fill="#464B4C"/>
<path d="M146.549 43.4719C146.549 43.4719 145.825 50.9394 141.693 52.3173C130.635 56.0036 129.143 45.6473 130.274 42.2512C131.405 38.8552 125.31 29.9392 128.983 30.46C132.655 30.9808 133.735 38.3262 133.735 38.3262C134.022 34.8787 133.523 22.6805 137.031 26.8008C140.538 30.9211 138.777 39.4763 138.777 39.4763C138.777 39.4763 142.032 41.4483 142.23 34.9438C142.428 28.4392 143.023 26.6082 145.553 27.5007C147.39 28.1517 148.152 34.8325 146.549 43.4719Z" fill="#FFDCB8"/>
<path d="M131.529 56.996C131.529 56.996 135.516 61.7646 137.117 61.1163C138.717 60.468 135.177 53.3423 135.177 53.3423L131.529 56.996Z" fill="#843030"/>
<path d="M119.944 69.2101C138.873 61.5275 149.21 42.9585 143.032 27.7351C136.853 12.5118 116.499 6.39884 97.5695 14.0815C78.6399 21.7642 68.3031 40.3332 74.4815 55.5565C80.66 70.7799 101.014 76.8928 119.944 69.2101Z" fill="#FF7F00"/>
<path d="M110.453 71.9094C110.453 71.9094 117.731 69.563 123.251 64.6317L125.407 64.4961C125.407 64.4961 123.78 67.1869 116.035 70.5884C116.035 70.5884 112.463 71.5974 110.453 71.9094Z" fill="#511E1E"/>
<path d="M99.6003 19.0756C99.6003 19.0756 94.9131 11.5023 95.7242 10.7889C96.5352 10.0755 102.413 5.95519 103.78 7.90277C105.147 9.85034 108.855 17.5674 108.855 17.5674C108.855 17.5674 102.549 17.684 99.6003 19.0756Z" fill="#CC6666"/>
<path d="M115.488 10.7778C115.488 10.7778 113.415 5.14126 114.11 4.4767C114.804 3.81214 119.122 2.44232 120.042 3.6087C120.961 4.77507 123.66 12.5193 123.66 12.5193C123.66 12.5193 117.877 10.7833 115.488 10.7778Z" fill="#CC6666"/>
<path d="M75.4208 34.3409C75.4208 34.3409 70.7553 28.3734 70.4596 26.6917C70.164 25.0099 75.4669 21.5081 77.485 21.2667C79.5031 21.0253 81.825 27.1989 81.825 27.1989L75.4208 34.3409Z" fill="#CC6666"/>
<path d="M87.2909 21.2533C87.2909 21.2533 84.9066 17.293 85.8614 15.8581C86.3578 15.1176 90.7113 13.1212 91.1263 13.6691C91.5414 14.217 93.5676 17.312 93.5676 17.312L87.2909 21.2533Z" fill="#CC6666"/>
<path d="M116.985 58.0352C116.985 58.0352 117.451 62.3752 119.621 64.0433C121.791 65.7115 123.587 59.0062 123.587 59.0062L116.985 58.0352Z" fill="#843030"/>
<path d="M128.301 47.1849C128.689 48.1425 128.572 49.0837 128.03 49.3143C127.487 49.5448 126.739 48.9345 126.351 47.977C125.963 47.0195 126.08 46.0782 126.622 45.8477C127.165 45.6171 127.913 46.2166 128.301 47.1849Z" fill="#511E1E"/>
<path d="M137.38 43.4875C137.768 44.445 137.652 45.3862 137.109 45.6168C136.567 45.8474 135.818 45.2398 135.43 44.2823C135.042 43.3247 135.159 42.3699 135.701 42.1529C136.244 41.9359 136.982 42.5327 137.38 43.4875Z" fill="#511E1E"/>
<path d="M134.534 40.891C138.506 39.2779 140.421 34.7556 138.811 30.79C137.201 26.8245 132.675 24.9174 128.703 26.5305C124.73 28.1435 122.815 32.6659 124.425 36.6314C126.036 40.5969 130.561 42.504 134.534 40.891Z" fill="#843030"/>
<path d="M139.754 30.4134C141.362 34.3791 139.716 38.7923 136.073 40.2706C132.43 41.749 128.174 39.7282 126.563 35.7679C124.951 31.8077 126.601 27.389 130.243 25.9107C133.886 24.4324 138.145 26.4477 139.754 30.4134Z" fill="#D67B7B"/>
<path d="M130.58 35.9748C131.175 35.7332 131.358 34.7979 130.988 33.8859C130.618 32.974 129.835 32.4306 129.239 32.6723C128.644 32.9139 128.461 33.8492 128.831 34.7612C129.201 35.6731 129.984 36.2165 130.58 35.9748Z" fill="#843030"/>
<path d="M138.042 31.013C138.413 31.9244 138.231 32.8575 137.635 33.0989C137.038 33.3403 136.26 32.8087 135.896 31.8864C135.533 30.9642 135.709 30.0392 136.303 29.7978C136.897 29.5564 137.673 30.0962 138.042 31.013Z" fill="#843030"/>
<path d="M135.083 13.2245C138.067 13.6151 140.616 16.2435 141.593 18.9994C142.176 20.6269 144.799 19.9298 144.208 18.2779C142.767 14.2552 139.363 11.0707 135.064 10.512C133.331 10.2895 133.352 13.0048 135.064 13.2245H135.083Z" fill="#464B4C"/>
<path d="M140.057 9.61464C142.306 10.0107 143.92 11.6599 144.94 13.6237C145.753 15.1725 148.092 13.8027 147.283 12.2675C145.962 9.74484 143.654 7.52059 140.773 7.01335C139.064 6.71226 138.332 9.32711 140.055 9.6282L140.057 9.61464Z" fill="#464B4C"/>
<path d="M62.1513 30.503C60.1657 32.6404 59.71 35.4424 59.3085 38.2282C59.0644 39.937 61.6793 40.6694 61.9234 38.9497C62.2435 36.7146 62.4659 34.1513 64.069 32.4207C65.2598 31.1431 63.3448 29.2199 62.1513 30.503Z" fill="#464B4C"/>
<path d="M58.5084 28.1539C55.5789 30.3917 54.6648 33.9722 54.6295 37.5202C54.6105 39.2697 57.323 39.267 57.342 37.5202C57.3664 35.0789 57.7977 32.0952 59.8755 30.4975C61.2317 29.4505 59.8972 27.0933 58.5192 28.1539H58.5084Z" fill="#464B4C"/>
<path d="M98.6566 82.4473C98.6566 82.4473 116.708 84.4898 120.707 102.438C124.705 120.387 89.784 87.9699 98.6566 82.4473Z" fill="#725C2B"/>
<path d="M100.313 86.8718C100.313 86.8718 132.999 104.94 142.97 118.033C152.941 131.126 130.978 154.155 121.748 154.584C112.517 155.012 93.3342 141.914 93.3342 141.914C93.3342 141.914 69.1061 124.825 70.4488 113.511C71.7915 102.197 86.3902 81.463 100.313 86.8718Z" fill="#FFDCB8"/>
<path d="M100.105 145.502L101.263 141.889C101.263 141.889 84.416 120.702 76.9078 121.166C76.9078 121.166 84.4676 118.562 85.1674 116.221C85.8672 113.88 80.3093 113.319 80.3093 113.319C80.3093 113.319 92.8818 107.194 93.8094 104.216C94.7371 101.237 87.4269 102.349 87.4269 102.349C87.4269 102.349 107.478 91.1874 106.493 87.5228C105.508 83.8582 100.314 86.8718 100.314 86.8718C100.314 86.8718 108.525 61.0027 80.5263 67.1899C80.5263 67.1899 77.2306 73.3446 85.1755 78.2732C85.1755 78.2732 69.8391 77.1204 65.2387 81.9378C60.8363 86.549 70.5416 91.6621 70.5416 91.6621C70.5416 91.6621 49.7855 108.518 56.4366 125.604C56.4366 125.604 49.7069 120.301 48.2014 120.48C46.696 120.659 45.0522 126.832 52.4384 131.506C52.4384 131.506 43.7801 135.157 48.5866 140.186C53.3932 145.215 58.0939 141.379 58.0939 141.379C58.0939 141.379 75.2749 162.035 96.2859 152.468L100.105 145.502Z" fill="#725C2B"/>
<path d="M98.8812 143.774C98.8812 143.774 91.6931 143.774 89.93 150.187C88.1668 156.599 104.119 165.667 108.049 151.41C109.699 145.396 98.8812 143.774 98.8812 143.774Z" fill="#FFDCB8"/>
<path d="M88.1562 117.506C88.1562 117.506 91.7666 113.001 91.9266 107.885C91.9293 107.885 94.0939 115.143 88.1562 117.506Z" fill="#493918"/>
<path d="M97.2109 97.0139C97.2109 97.0139 102.262 93.2707 104.974 94.5184C104.974 94.5184 98.8357 90.9189 97.2109 97.0139Z" fill="#493918"/>
<path d="M134.697 120.943C134.697 120.943 115.107 121.101 110.114 129.564C105.12 138.027 114.332 146.142 114.332 146.142C114.332 146.142 130.048 124.988 134.697 120.943Z" fill="#753427"/>
<path d="M104.104 110.286C104.104 110.286 111.126 115.814 112.409 115.326C113.692 114.838 112.968 110.473 116.478 110.462C119.988 110.452 120.151 115.377 118.938 117.187C118.938 117.187 118.322 112.424 116.443 112.334C114.563 112.245 114.918 116.945 112.808 116.696C110.698 116.446 104.104 110.286 104.104 110.286Z" fill="#CB8F5E"/>
<path d="M100.577 113.565C100.577 113.565 92.7104 116.964 90.9663 121C90.9663 121 94.7638 118.312 97.5414 116.78C97.5414 116.78 96.1526 120.138 96.8063 123.29C96.8063 123.287 100.021 115.084 100.577 113.565Z" fill="#190F08"/>
<path d="M113.081 106.651C113.916 105.626 113 103.495 111.033 101.891C109.066 100.287 106.794 99.8186 105.958 100.844C105.122 101.869 106.039 104 108.006 105.604C109.973 107.207 112.245 107.676 113.081 106.651Z" fill="#190F08"/>
<path d="M86.7212 64.8517C86.8812 65.1229 84.0358 66.2595 80.5774 64.2007C77.1189 62.1419 76.7636 59.9719 75.4589 58.6753C74.1542 57.3787 76.6524 56.0333 77.4526 57.1861C78.2527 58.3389 83.8758 59.9339 86.7212 64.8517Z" fill="#FFDCB8"/>
<path d="M81.0384 62.0656C81.0384 62.0656 75.8087 55.4878 74.4281 51.9479C73.0474 48.4081 73.6577 46.4443 74.485 46.0428C75.3123 45.6414 76.4353 45.4162 77.0592 47.7653C77.6831 50.1143 78.8169 52.0727 79.0068 51.8584C79.1966 51.6441 76.08 42.2725 79.9724 40.3357C83.8648 38.399 82.3838 43.9678 83.2274 46.862C83.6777 48.4 84.3124 50.2174 84.7356 50.0411C85.1587 49.8647 85.0773 42.1341 87.1443 40.6531C89.2112 39.1721 90.9418 40.7996 90.8414 44.1929C90.741 47.5862 91.6931 52.2517 92.4363 54.1207C93.1796 55.9896 95.2384 62.5294 92.6018 64.4824C89.9653 66.4354 85.2347 69.156 81.0384 62.0656Z" fill="#FFDCB8"/>
<path d="M90.0174 167.68C90.0174 167.68 32.2792 124.491 91.4876 66.232C94.0102 63.7501 87.6169 53.3422 78.256 61.1759C78.256 61.1759 10.0692 125.611 89.1521 184.98C89.1521 184.98 101.573 186.181 90.0174 167.68Z" fill="#464B4C"/>
<path d="M100.051 164.164C100.051 164.164 93.2125 167.004 90.0145 167.69C84.6112 168.832 88.4331 181.613 91.0127 192.935C96.538 217.166 97.1077 234.293 104.079 274.951C104.079 274.951 134.258 272.016 144.742 264.027L145.45 257.501C145.45 257.501 146.98 260.81 147.642 263.398C147.642 263.398 157.634 263.875 162.465 257.591C162.465 257.591 139.634 191.115 127.23 160.711C127.23 160.711 108.028 163.307 100.051 164.164Z" fill="#464B4C"/>
<path d="M121.438 160.312C121.438 160.312 102.86 159.832 99.1335 160.041L98.9409 165.775L115.406 169.678L122.795 161.815L121.438 160.312Z" fill="#9E9E9E"/>
<path d="M113.697 152.134C113.697 152.134 116.521 164.24 118.482 165.821C122.602 185.577 107.168 168.043 107.168 168.043C107.168 168.043 103.172 158.34 103.148 153.558C103.107 144.924 113.697 152.134 113.697 152.134Z" fill="#FFDCB8"/>
<path d="M112.618 163.692L117.723 174.621L117.237 162.64L124.463 164.81C124.463 164.81 133.271 198.949 133.184 214.033C133.184 214.033 106.547 175.163 99.5488 168.656L112.618 163.692Z" fill="#E5E5E5"/>
<path d="M112.618 173.948C112.618 173.948 118.686 172.638 122.692 173.902L122.277 180.265L117.592 182.435L112.618 173.948Z" fill="#141414"/>
<path d="M119.759 194.848L117.589 182.425L122.274 180.255C122.274 180.255 131.19 194.631 133.27 198.624L134.54 216.065L119.759 194.848Z" fill="#141414"/>
<path d="M123.294 162.23C123.294 162.23 129.045 168.93 134.443 172.345C134.443 172.345 132.631 177.228 130.564 180.103C130.564 180.103 138.628 186.949 141.97 190.929C141.97 190.929 135.878 203.634 134.53 216.065C134.54 216.065 126.099 167.46 123.294 162.23Z" fill="#676B6B"/>
<path d="M117.231 162.64L122.423 172.999C122.423 172.999 125.008 166.188 124.688 163.909L121.433 160.312L117.231 162.64Z" fill="white"/>
<path d="M98.8979 162.194C98.8979 162.194 94.0696 171.734 91.4873 178.057C96.7877 180.5 102.335 182.367 108.034 183.626C108.034 183.626 102.948 198.482 103.194 199.768C103.194 199.768 125.166 209.384 134.518 216.043C128.716 207.555 105.598 175.174 99.5977 168.235L98.8979 162.194Z" fill="#676B6B"/>
<path d="M99.1338 160.025L112.618 163.687L111.506 173.943C111.506 173.943 98.8545 168.789 98.293 167.794L99.1338 160.025Z" fill="white"/>
<path d="M12.1055 46.4226C13.4048 41.3393 16.3017 37.2652 20.6878 35.0789C26.5197 32.1711 32.6554 32.9469 35.6066 38.8764C38.4493 44.5726 32.1753 49.4551 33.4881 52.0863L34.6897 54.5004L26.5333 58.5691L24.7837 55.051C22.7846 51.0148 28.6083 45.2589 27.3958 42.8448C26.5821 41.1793 24.6833 41.6377 23.1345 42.4026C21.2357 43.3439 19.8415 46.3439 19.2258 48.8421L12.1055 46.4226ZM30.9384 57.731C34.0523 56.1767 37.2286 57.278 38.4764 59.7762C39.6997 62.2337 38.7097 65.2989 35.5089 66.8965C32.6581 68.3179 29.3949 67.1515 28.2584 64.8703C27.1653 62.6786 27.781 59.3042 30.9384 57.731Z" fill="#F6F6F6"/>
<path d="M182.532 79.2064C185.958 77.5083 189.585 77.1774 192.875 78.5608C197.25 80.4026 199.735 84.1621 197.866 88.597C196.065 92.8774 190.39 91.7273 189.56 93.702L188.79 95.5166L182.668 92.9398L183.777 90.3086C185.052 87.2815 191.003 87.7724 191.766 85.9686C192.292 84.7209 191.134 83.8827 189.981 83.3972C188.568 82.8031 186.24 83.4514 184.556 84.295L182.532 79.2064ZM185.226 94.9823C187.564 95.9642 188.465 98.2373 187.667 100.117C186.87 101.997 184.727 102.87 182.323 101.858C180.186 100.958 179.28 98.6035 179.999 96.8919C180.699 95.2454 182.858 93.9841 185.226 94.9823Z" fill="#F6F6F6"/>
<path d="M117.929 73.6367L123.809 77.049C129.657 72.4107 136.116 80.1196 133.159 84.267C133.159 84.267 136.414 92.0519 129.904 95.117C123.394 98.1821 121.148 93.4624 121.148 93.4624C117.722 95.4669 110.412 84.3457 118.807 80.8194L117.929 73.6367Z" fill="#CEECEF"/>
<path d="M123.961 70.8677C123.961 70.8677 128.361 69.4273 129.574 68.7492C129.574 68.7492 129.381 65.0873 131.711 65.3586C134.041 65.6298 134.25 68.204 134.25 68.204C134.25 68.204 137.706 67.9328 137.977 71.1878C138.248 74.4428 134.955 73.629 134.955 73.629C134.955 73.629 131.413 77.6381 130.073 72.5115L123.961 70.8677Z" fill="#CEECEF"/>
<path d="M114.959 73.0078L110.51 77.6191C110.51 77.6191 108.408 75.4491 106.233 77.7493C104.703 79.3551 106.873 80.912 106.873 80.912C106.873 80.912 104.947 83.3533 107.334 84.5414C109.721 85.7294 110.453 84.6227 111.234 83.9012C112.206 84.7394 117.11 83.9663 113.489 79.29L114.959 73.0078Z" fill="#CEECEF"/>
</g>
</svg>
