<svg width="64" height="64" viewBox="0 0 64 64" fill="none" xmlns="http://www.w3.org/2000/svg">
<rect width="64" height="64" rx="32" fill="#DCDEE7"/>
<g clip-path="url(#clip0_149_1469)">
<path d="M12.001 49.4998C12.5519 48.3494 13.4778 47.9178 14.724 48.0277C15.3063 48.0795 15.898 48.0371 16.6733 48.0371C14.1527 45.6672 13.3052 43.0132 14.6314 39.981C15.8729 37.1418 18.2349 35.9333 21.286 36.0369C22.0095 33.9479 23.783 33.7125 25.4074 35.453C25.5769 35.1768 25.6962 34.8629 25.9128 34.6463C33.1073 27.4362 40.3112 20.2338 47.5166 13.0315C47.7379 12.8102 47.9545 12.5795 48.2025 12.3943C49.0076 11.7979 50.0749 11.8889 50.7654 12.5936C51.4513 13.2936 51.5235 14.3687 50.9161 15.1613C50.7278 15.4077 50.4955 15.6227 50.2758 15.844C43.0907 23.0291 35.9072 30.2157 28.7143 37.3945C28.4962 37.6111 28.198 37.7476 27.9406 37.9187C29.6026 39.6247 29.3876 41.2868 27.33 42.0417C27.3002 42.6601 27.272 43.28 27.2374 43.9972C29.9699 43.9203 31.6649 45.1728 32.0416 47.9853C33.542 47.9853 35.0142 47.9853 36.5695 47.9853C36.2274 46.138 35.8994 44.3551 35.5682 42.5722C35.4066 41.7027 35.2245 40.8363 35.0723 39.9653C34.9388 39.2025 34.7725 38.5731 34.0286 38.0348C32.864 37.192 33.3035 35.2977 34.6893 34.8331C35.1554 34.6761 35.4097 34.5161 35.5101 33.9824C35.5902 33.554 35.857 32.9481 36.1944 32.8179C37.5834 32.2796 37.7937 30.3522 39.3506 30.1529C40.2531 30.0368 40.9405 29.6852 41.6844 29.194C43.5741 27.9509 46.0947 29.081 46.5467 31.3065C46.6518 31.8275 46.8951 32.0975 47.3142 32.4255C47.8478 32.8446 48.1585 33.543 48.5823 34.108C48.7596 34.345 48.9417 34.6557 49.1897 34.7483C49.9681 35.0387 50.4892 35.5189 50.6038 36.3508C50.7262 37.2391 50.3903 37.9218 49.604 38.3848C49.4408 38.4805 49.2336 38.6406 49.2022 38.8023C48.6105 41.8345 48.0424 44.8699 47.4444 48.0355C48.1538 48.0355 48.7675 48.0339 49.3827 48.0355C50.9287 48.0386 51.6616 48.4812 51.9347 49.5689C52.1764 50.5341 51.7165 51.2906 50.4594 52C38.161 52 25.8626 52 13.5642 52C12.8406 51.6798 12.318 51.1619 12.001 50.4368C12.001 50.126 12.001 49.8122 12.001 49.4998ZM30.6463 47.9696C30.5898 46.3609 29.5179 45.3282 27.9139 45.2889C26.8984 45.2638 25.8814 45.2795 24.866 45.2826C24.4249 45.2842 24.0608 45.1602 24.0702 44.6486C24.0812 44.1401 24.4516 44.0255 24.8895 44.0365C25.0982 44.0428 25.3101 44.06 25.5126 44.0239C25.646 44.0004 25.8186 43.9235 25.883 43.8168C26.2597 43.1937 26.0446 41.7121 25.5204 41.1848C24.3983 40.0594 23.2855 38.9247 22.1398 37.8229C21.8949 37.5875 21.5418 37.3803 21.2138 37.3333C17.9713 36.864 14.8778 39.9747 15.333 43.2172C15.7332 46.0627 17.7594 47.9429 20.6943 48.0104C23.8709 48.0842 27.0522 48.0308 30.2304 48.0308C30.3544 48.0324 30.48 47.9947 30.6463 47.9696ZM36.2038 38.6783C36.2038 38.8698 36.1881 38.9765 36.207 39.0769C36.7328 41.913 37.2507 44.7506 37.8141 47.5788C37.8518 47.7656 38.2363 48.012 38.4623 48.0151C40.8307 48.0465 43.199 48.0277 45.5689 48.0402C46.0115 48.0434 46.2014 47.9021 46.2799 47.4375C46.553 45.8241 46.8825 44.2201 47.1839 42.6098C47.4256 41.3197 47.6547 40.0265 47.9011 38.6767C43.9414 38.6783 40.1008 38.6783 36.2038 38.6783ZM32.0118 49.3131C26.1011 49.3131 20.1905 49.3146 14.2799 49.3099C13.7902 49.3099 13.3523 49.3931 13.3366 49.9801C13.3209 50.5639 13.7541 50.6942 14.2406 50.7083C14.3709 50.7115 14.5011 50.7115 14.6314 50.7115C26.2173 50.7115 37.8047 50.7115 49.3906 50.7099C49.6244 50.7099 49.9085 50.7695 50.0796 50.6612C50.3291 50.5012 50.6556 50.2108 50.6509 49.9817C50.6461 49.7572 50.2993 49.4857 50.0435 49.3397C49.8645 49.2377 49.5852 49.3115 49.3513 49.3115C43.5725 49.3131 37.7922 49.3131 32.0118 49.3131ZM27.0836 37.192C27.3065 36.988 27.4634 36.8546 27.6094 36.7086C34.9012 29.4184 42.1914 22.1282 49.4816 14.838C49.5742 14.7454 49.7217 14.6622 49.7421 14.5555C49.808 14.2133 49.9776 13.7645 49.8285 13.5353C49.5522 13.1084 49.1081 13.2544 48.7628 13.584C48.6498 13.6923 48.5399 13.8037 48.43 13.9136C41.1948 21.1488 33.9595 28.3841 26.7258 35.621C26.5327 35.814 26.3554 36.0212 26.1451 36.2488C26.4857 36.5925 26.7587 36.8671 27.0836 37.192ZM36.6998 34.6353C40.2578 34.6353 43.7797 34.6353 47.3063 34.6353C47.2325 33.7862 46.9689 33.4472 46.1292 33.3233C45.4575 33.2244 45.2754 32.9136 45.3319 32.267C45.4308 31.1605 44.9223 30.3993 43.9759 30.0823C43.0656 29.7778 42.2118 30.0713 41.6248 30.9659C41.3203 31.4289 41.0237 31.5686 40.4634 31.3975C39.5672 31.1229 38.8735 31.5356 38.7103 32.4287C38.602 33.0203 38.3085 33.2542 37.7482 33.3546C37.0922 33.4692 36.7202 33.8914 36.6998 34.6353ZM41.9764 37.3442C44.1595 37.3442 46.3442 37.3427 48.5274 37.3458C49.0092 37.3458 49.4267 37.1481 49.3341 36.6505C49.2838 36.3837 48.8554 36.1609 48.5603 35.9788C48.4285 35.8972 48.204 35.9568 48.0236 35.9568C44.0198 35.9568 40.0161 35.9553 36.0124 35.9584C35.7534 35.9584 35.427 35.8893 35.2512 36.0165C35.0016 36.1954 34.6956 36.536 34.7097 36.7934C34.7364 37.3113 35.2166 37.3505 35.6592 37.349C37.7639 37.3411 39.8701 37.3442 41.9764 37.3442ZM27.8605 40.0375C27.7601 39.824 27.7287 39.6545 27.6267 39.5525C26.3491 38.2624 25.0763 36.966 23.7548 35.7214C23.6025 35.577 23.0501 35.6272 22.8884 35.7905C22.7299 35.9506 22.7534 36.3994 22.8492 36.6678C22.9355 36.9126 23.2211 37.0869 23.4236 37.2893C24.45 38.3173 25.4624 39.3626 26.5218 40.3561C26.7211 40.5428 27.1244 40.6088 27.4132 40.5711C27.5859 40.5491 27.7177 40.2195 27.8605 40.0375Z" fill="#212D63"/>
<path d="M12.0016 27.164C12.259 27.0636 12.5085 26.9082 12.7753 26.8721C14.5739 26.621 15.5392 25.7264 15.9033 23.9152C15.9692 23.584 15.9347 23.2152 16.0697 22.9201C16.1983 22.6408 16.4871 22.4352 16.7053 22.1982C16.9046 22.4571 17.1902 22.6879 17.2876 22.9814C17.4916 23.5919 17.5293 24.2605 17.7537 24.86C18.2026 26.0607 19.105 26.745 20.3967 26.8485C20.8487 26.8846 21.2678 26.949 21.2787 27.4983C21.2897 28.0084 20.8942 28.0806 20.4752 28.1418C18.5557 28.4196 17.6046 29.5104 17.3268 31.7123C17.3111 31.841 17.3566 32.0058 17.2923 32.0953C17.1181 32.3401 16.8999 32.5536 16.699 32.7796C16.4856 32.5708 16.167 32.3966 16.0791 32.1439C15.9096 31.6605 15.9143 31.1175 15.7699 30.6216C15.3571 29.1902 14.4625 28.2956 12.9181 28.1292C12.6042 28.0947 12.306 27.9079 12 27.7918C12.0016 27.5815 12.0016 27.3727 12.0016 27.164ZM16.6723 29.1745C17.162 28.6095 17.6579 28.0366 18.1335 27.4889C17.6219 26.9082 17.1322 26.3526 16.6629 25.8221C16.167 26.3934 15.6804 26.9553 15.2064 27.5014C15.6961 28.0586 16.1811 28.6142 16.6723 29.1745Z" fill="#F57F20"/>
<path d="M36.6645 19.492C36.4777 19.6129 36.2423 19.8844 35.9724 19.9236C32.5682 20.4211 31.1556 21.8619 30.6911 25.3022C30.6252 25.7903 30.8261 26.5798 30.0366 26.5986C29.1687 26.619 29.47 25.7935 29.3194 25.2944C29.0133 24.2821 28.7952 23.2164 28.3118 22.2904C27.5003 20.735 26.0517 20.0554 24.33 19.955C23.8639 19.9267 23.3915 19.9189 23.4056 19.288C23.4197 18.6994 23.8858 18.7214 24.3112 18.6837C27.2963 18.4153 29.0306 16.5006 29.3508 13.1325C29.3649 12.9771 29.3099 12.7778 29.3868 12.6726C29.5658 12.4294 29.8059 12.2316 30.0209 12.0166C30.2187 12.2206 30.5294 12.3948 30.5922 12.6334C30.79 13.3836 30.8213 14.1793 31.0458 14.9186C31.7724 17.3057 33.2587 18.4781 35.7417 18.6822C36.1952 18.7198 36.5798 18.7732 36.6645 19.492ZM27.3716 19.3225C28.2317 20.294 29.1765 21.3628 29.9974 22.2904C30.848 21.3377 31.7976 20.2752 32.6514 19.3194C31.7866 18.3479 30.8433 17.2853 30.0037 16.3405C29.1828 17.2712 28.2521 18.3243 27.3716 19.3225Z" fill="#F57F20"/>
<path d="M47.9619 24.669C47.9556 25.7457 47.1096 26.6089 46.0424 26.6262C44.9642 26.6434 44.0602 25.7347 44.0664 24.6392C44.0727 23.5751 44.9344 22.7025 45.9953 22.6868C47.0908 22.6695 47.9697 23.5547 47.9619 24.669ZM47.028 24.658C46.5384 24.3347 46.2496 23.9926 46.0094 24.0255C45.7568 24.0601 45.5527 24.4509 45.3267 24.6847C45.5496 24.8966 45.7646 25.2701 45.9953 25.2795C46.259 25.289 46.5352 24.9751 47.028 24.658Z" fill="#40BAEC"/>
<path d="M49.3787 26.6954C50.4397 26.7064 51.3091 27.5743 51.3217 28.6369C51.3358 29.7324 50.4475 30.6066 49.3316 30.5956C48.2565 30.5862 47.3949 29.7339 47.3839 28.6698C47.3729 27.5932 48.2926 26.6829 49.3787 26.6954ZM49.3238 29.6617C49.6581 29.1831 50.0065 28.9021 49.9814 28.662C49.9547 28.4109 49.5968 28.0734 49.33 28.0122C49.1715 27.9761 48.7462 28.3873 48.7305 28.6149C48.7132 28.877 49.0193 29.1595 49.3238 29.6617Z" fill="#40BAEC"/>
<path d="M19.0576 15.1529C19.0592 14.7166 20.285 13.5316 20.7119 13.552C21.1811 13.574 21.4825 14.0527 21.1984 14.4403C20.8641 14.8955 20.4545 15.3177 20.004 15.6583C19.5991 15.9659 19.0561 15.6378 19.0576 15.1529Z" fill="#F57F20"/>
<path d="M16.6378 18.7628C16.1497 18.7361 15.8656 18.2072 16.1827 17.7991C16.5123 17.3738 16.9062 16.9799 17.3362 16.6565C17.7459 16.3489 18.2575 16.6597 18.2622 17.1619C18.2669 17.6233 17.0851 18.7863 16.6378 18.7628Z" fill="#F57F20"/>
<path d="M21.274 18.1853C21.2128 18.642 20.8581 18.9339 20.4783 18.6923C19.9494 18.3548 19.4628 17.8777 19.1144 17.3566C18.8711 16.9909 19.1333 16.5986 19.6339 16.5499C20.0671 16.5075 21.2771 17.7098 21.274 18.1853Z" fill="#F57F20"/>
<path d="M16.6995 13.5647C17.1311 13.5741 18.2689 14.7355 18.2611 15.1577C18.2517 15.6599 17.7337 15.9597 17.3163 15.6427C16.8862 15.3146 16.486 14.9191 16.1658 14.4844C15.8629 14.07 16.1988 13.5521 16.6995 13.5647Z" fill="#F57F20"/>
<path d="M43.5938 41.5029C43.2595 41.4857 42.9001 41.5374 42.5987 41.4292C42.3774 41.3507 42.0714 41.0399 42.0918 40.8704C42.1232 40.6334 42.4057 40.2677 42.6129 40.2442C43.3254 40.1673 44.0568 40.1736 44.7725 40.2411C44.9624 40.2583 45.2731 40.6256 45.2543 40.8045C45.2292 41.0368 44.9702 41.3648 44.7458 41.4307C44.3911 41.5359 43.9814 41.459 43.5938 41.459C43.5938 41.4747 43.5938 41.4888 43.5938 41.5029Z" fill="#40BAEC"/>
<path d="M39.4047 40.1924C39.5601 40.1924 39.7531 40.1343 39.8646 40.2049C40.1361 40.376 40.5269 40.5722 40.5834 40.8233C40.6932 41.3161 40.2679 41.4652 39.841 41.4825C39.5052 41.4966 39.1395 41.5657 38.8381 41.4605C38.5525 41.3616 38.1711 41.1027 38.1177 40.8531C38.0141 40.3713 38.4254 40.2065 38.8617 40.1924C39.0422 40.1861 39.2226 40.1908 39.4047 40.1924Z" fill="#40BAEC"/>
</g>
<defs>
<clipPath id="clip0_149_1469">
<rect width="40" height="40" fill="white" transform="translate(12 12)"/>
</clipPath>
</defs>
</svg>
