<svg width="959" height="182" viewBox="0 0 959 182" fill="none" xmlns="http://www.w3.org/2000/svg">
<path d="M36.5 26L943.5 15.5L932 167H15L36.5 26Z" fill="#F5F5F5"/>
<path d="M243.106 67.04C243.213 64.1867 244.146 61.9867 245.906 60.44C247.666 58.8933 250.053 58.12 253.066 58.12C255.066 58.12 256.773 58.4667 258.186 59.16C259.626 59.8533 260.706 60.8 261.426 62C262.173 63.2 262.546 64.5467 262.546 66.04C262.546 67.8 262.106 69.24 261.226 70.36C260.346 71.4533 259.32 72.2 258.146 72.6V72.76C259.666 73.2667 260.866 74.1067 261.746 75.28C262.626 76.4533 263.066 77.96 263.066 79.8C263.066 81.4533 262.68 82.92 261.906 84.2C261.16 85.4533 260.053 86.44 258.586 87.16C257.146 87.88 255.426 88.24 253.426 88.24C250.226 88.24 247.666 87.4533 245.746 85.88C243.853 84.3067 242.853 81.9333 242.746 78.76H249.386C249.413 79.9333 249.746 80.8667 250.386 81.56C251.026 82.2267 251.96 82.56 253.186 82.56C254.226 82.56 255.026 82.2667 255.586 81.68C256.173 81.0667 256.466 80.2667 256.466 79.28C256.466 78 256.053 77.08 255.226 76.52C254.426 75.9333 253.133 75.64 251.346 75.64H250.066V70.08H251.346C252.706 70.08 253.8 69.8533 254.626 69.4C255.48 68.92 255.906 68.08 255.906 66.88C255.906 65.92 255.64 65.1733 255.106 64.64C254.573 64.1067 253.84 63.84 252.906 63.84C251.893 63.84 251.133 64.1467 250.626 64.76C250.146 65.3733 249.866 66.1333 249.786 67.04H243.106ZM294.522 59.92V65.4H283.082V71.32H291.642V76.64H283.082V88H276.242V59.92H294.522ZM308.277 88.32C306.09 88.32 304.117 87.8533 302.357 86.92C300.623 85.9867 299.25 84.6533 298.237 82.92C297.25 81.1867 296.757 79.16 296.757 76.84C296.757 74.5467 297.263 72.5333 298.277 70.8C299.29 69.04 300.677 67.6933 302.437 66.76C304.197 65.8267 306.17 65.36 308.357 65.36C310.543 65.36 312.517 65.8267 314.277 66.76C316.037 67.6933 317.423 69.04 318.437 70.8C319.45 72.5333 319.957 74.5467 319.957 76.84C319.957 79.1333 319.437 81.16 318.397 82.92C317.383 84.6533 315.983 85.9867 314.197 86.92C312.437 87.8533 310.463 88.32 308.277 88.32ZM308.277 82.4C309.583 82.4 310.69 81.92 311.597 80.96C312.53 80 312.997 78.6267 312.997 76.84C312.997 75.0533 312.543 73.68 311.637 72.72C310.757 71.76 309.663 71.28 308.357 71.28C307.023 71.28 305.917 71.76 305.037 72.72C304.157 73.6533 303.717 75.0267 303.717 76.84C303.717 78.6267 304.143 80 304.997 80.96C305.877 81.92 306.97 82.4 308.277 82.4ZM330.425 69.4C331.225 68.1733 332.225 67.2133 333.425 66.52C334.625 65.8 335.959 65.44 337.425 65.44V72.68H335.545C333.839 72.68 332.559 73.0533 331.705 73.8C330.852 74.52 330.425 75.8 330.425 77.64V88H323.585V65.68H330.425V69.4ZM367.451 59.92V65.4H356.011V71.32H364.571V76.64H356.011V88H349.171V59.92H367.451ZM377.886 69.4C378.686 68.1733 379.686 67.2133 380.886 66.52C382.086 65.8 383.42 65.44 384.886 65.44V72.68H383.006C381.3 72.68 380.02 73.0533 379.166 73.8C378.313 74.52 377.886 75.8 377.886 77.64V88H371.046V65.68H377.886V69.4ZM409.196 76.48C409.196 77.12 409.156 77.7867 409.076 78.48H393.596C393.702 79.8667 394.142 80.9333 394.916 81.68C395.716 82.4 396.689 82.76 397.836 82.76C399.542 82.76 400.729 82.04 401.396 80.6H408.676C408.302 82.0667 407.622 83.3867 406.636 84.56C405.676 85.7333 404.462 86.6533 402.996 87.32C401.529 87.9867 399.889 88.32 398.076 88.32C395.889 88.32 393.942 87.8533 392.236 86.92C390.529 85.9867 389.196 84.6533 388.236 82.92C387.276 81.1867 386.796 79.16 386.796 76.84C386.796 74.52 387.262 72.4933 388.196 70.76C389.156 69.0267 390.489 67.6933 392.196 66.76C393.902 65.8267 395.862 65.36 398.076 65.36C400.236 65.36 402.156 65.8133 403.836 66.72C405.516 67.6267 406.822 68.92 407.756 70.6C408.716 72.28 409.196 74.24 409.196 76.48ZM402.196 74.68C402.196 73.5067 401.796 72.5733 400.996 71.88C400.196 71.1867 399.196 70.84 397.996 70.84C396.849 70.84 395.876 71.1733 395.076 71.84C394.302 72.5067 393.822 73.4533 393.636 74.68H402.196ZM433.844 76.48C433.844 77.12 433.804 77.7867 433.724 78.48H418.244C418.351 79.8667 418.791 80.9333 419.564 81.68C420.364 82.4 421.338 82.76 422.484 82.76C424.191 82.76 425.378 82.04 426.044 80.6H433.324C432.951 82.0667 432.271 83.3867 431.284 84.56C430.324 85.7333 429.111 86.6533 427.644 87.32C426.178 87.9867 424.538 88.32 422.724 88.32C420.538 88.32 418.591 87.8533 416.884 86.92C415.178 85.9867 413.844 84.6533 412.884 82.92C411.924 81.1867 411.444 79.16 411.444 76.84C411.444 74.52 411.911 72.4933 412.844 70.76C413.804 69.0267 415.138 67.6933 416.844 66.76C418.551 65.8267 420.511 65.36 422.724 65.36C424.884 65.36 426.804 65.8133 428.484 66.72C430.164 67.6267 431.471 68.92 432.404 70.6C433.364 72.28 433.844 74.24 433.844 76.48ZM426.844 74.68C426.844 73.5067 426.444 72.5733 425.644 71.88C424.844 71.1867 423.844 70.84 422.644 70.84C421.498 70.84 420.524 71.1733 419.724 71.84C418.951 72.5067 418.471 73.4533 418.284 74.68H426.844ZM444.769 73.92C444.769 71.1467 445.369 68.68 446.569 66.52C447.769 64.3333 449.436 62.64 451.569 61.44C453.729 60.2133 456.169 59.6 458.889 59.6C462.223 59.6 465.076 60.48 467.449 62.24C469.823 64 471.409 66.4 472.209 69.44H464.689C464.129 68.2667 463.329 67.3733 462.289 66.76C461.276 66.1467 460.116 65.84 458.809 65.84C456.703 65.84 454.996 66.5733 453.689 68.04C452.383 69.5067 451.729 71.4667 451.729 73.92C451.729 76.3733 452.383 78.3333 453.689 79.8C454.996 81.2667 456.703 82 458.809 82C460.116 82 461.276 81.6933 462.289 81.08C463.329 80.4667 464.129 79.5733 464.689 78.4H472.209C471.409 81.44 469.823 83.84 467.449 85.6C465.076 87.3333 462.223 88.2 458.889 88.2C456.169 88.2 453.729 87.6 451.569 86.4C449.436 85.1733 447.769 83.48 446.569 81.32C445.369 79.16 444.769 76.6933 444.769 73.92ZM486.558 88.32C484.371 88.32 482.398 87.8533 480.638 86.92C478.905 85.9867 477.531 84.6533 476.518 82.92C475.531 81.1867 475.038 79.16 475.038 76.84C475.038 74.5467 475.545 72.5333 476.558 70.8C477.571 69.04 478.958 67.6933 480.718 66.76C482.478 65.8267 484.451 65.36 486.638 65.36C488.825 65.36 490.798 65.8267 492.558 66.76C494.318 67.6933 495.705 69.04 496.718 70.8C497.731 72.5333 498.238 74.5467 498.238 76.84C498.238 79.1333 497.718 81.16 496.678 82.92C495.665 84.6533 494.265 85.9867 492.478 86.92C490.718 87.8533 488.745 88.32 486.558 88.32ZM486.558 82.4C487.865 82.4 488.971 81.92 489.878 80.96C490.811 80 491.278 78.6267 491.278 76.84C491.278 75.0533 490.825 73.68 489.918 72.72C489.038 71.76 487.945 71.28 486.638 71.28C485.305 71.28 484.198 71.76 483.318 72.72C482.438 73.6533 481.998 75.0267 481.998 76.84C481.998 78.6267 482.425 80 483.278 80.96C484.158 81.92 485.251 82.4 486.558 82.4ZM515.467 65.44C518.08 65.44 520.16 66.2933 521.707 68C523.28 69.68 524.067 72 524.067 74.96V88H517.267V75.88C517.267 74.3867 516.88 73.2267 516.107 72.4C515.333 71.5733 514.293 71.16 512.987 71.16C511.68 71.16 510.64 71.5733 509.867 72.4C509.093 73.2267 508.707 74.3867 508.707 75.88V88H501.867V65.68H508.707V68.64C509.4 67.6533 510.333 66.88 511.507 66.32C512.68 65.7333 514 65.44 515.467 65.44ZM542.42 65.44C545.033 65.44 547.113 66.2933 548.66 68C550.233 69.68 551.02 72 551.02 74.96V88H544.22V75.88C544.22 74.3867 543.833 73.2267 543.06 72.4C542.287 71.5733 541.247 71.16 539.94 71.16C538.633 71.16 537.593 71.5733 536.82 72.4C536.047 73.2267 535.66 74.3867 535.66 75.88V88H528.82V65.68H535.66V68.64C536.353 67.6533 537.287 66.88 538.46 66.32C539.633 65.7333 540.953 65.44 542.42 65.44ZM576.813 76.48C576.813 77.12 576.773 77.7867 576.693 78.48H561.213C561.32 79.8667 561.76 80.9333 562.533 81.68C563.333 82.4 564.306 82.76 565.453 82.76C567.16 82.76 568.346 82.04 569.013 80.6H576.293C575.92 82.0667 575.24 83.3867 574.253 84.56C573.293 85.7333 572.08 86.6533 570.613 87.32C569.146 87.9867 567.506 88.32 565.693 88.32C563.506 88.32 561.56 87.8533 559.853 86.92C558.146 85.9867 556.813 84.6533 555.853 82.92C554.893 81.1867 554.413 79.16 554.413 76.84C554.413 74.52 554.88 72.4933 555.813 70.76C556.773 69.0267 558.106 67.6933 559.813 66.76C561.52 65.8267 563.48 65.36 565.693 65.36C567.853 65.36 569.773 65.8133 571.453 66.72C573.133 67.6267 574.44 68.92 575.373 70.6C576.333 72.28 576.813 74.24 576.813 76.48ZM569.813 74.68C569.813 73.5067 569.413 72.5733 568.613 71.88C567.813 71.1867 566.813 70.84 565.613 70.84C564.466 70.84 563.493 71.1733 562.693 71.84C561.92 72.5067 561.44 73.4533 561.253 74.68H569.813ZM579.061 76.84C579.061 74.52 579.528 72.4933 580.461 70.76C581.421 69.0267 582.741 67.6933 584.421 66.76C586.128 65.8267 588.075 65.36 590.261 65.36C593.061 65.36 595.395 66.0933 597.261 67.56C599.155 69.0267 600.395 71.0933 600.981 73.76H593.701C593.088 72.0533 591.901 71.2 590.141 71.2C588.888 71.2 587.888 71.6933 587.141 72.68C586.395 73.64 586.021 75.0267 586.021 76.84C586.021 78.6533 586.395 80.0533 587.141 81.04C587.888 82 588.888 82.48 590.141 82.48C591.901 82.48 593.088 81.6267 593.701 79.92H600.981C600.395 82.5333 599.155 84.5867 597.261 86.08C595.368 87.5733 593.035 88.32 590.261 88.32C588.075 88.32 586.128 87.8533 584.421 86.92C582.741 85.9867 581.421 84.6533 580.461 82.92C579.528 81.1867 579.061 79.16 579.061 76.84ZM617.08 82.2V88H613.6C611.12 88 609.187 87.4 607.8 86.2C606.413 84.9733 605.72 82.9867 605.72 80.24V71.36H603V65.68H605.72V60.24H612.56V65.68H617.04V71.36H612.56V80.32C612.56 80.9867 612.72 81.4667 613.04 81.76C613.36 82.0533 613.893 82.2 614.64 82.2H617.08ZM624.33 63.36C623.13 63.36 622.143 63.0133 621.37 62.32C620.623 61.6 620.25 60.72 620.25 59.68C620.25 58.6133 620.623 57.7333 621.37 57.04C622.143 56.32 623.13 55.96 624.33 55.96C625.503 55.96 626.463 56.32 627.21 57.04C627.983 57.7333 628.37 58.6133 628.37 59.68C628.37 60.72 627.983 61.6 627.21 62.32C626.463 63.0133 625.503 63.36 624.33 63.36ZM627.73 65.68V88H620.89V65.68H627.73ZM642.847 88.32C640.66 88.32 638.687 87.8533 636.927 86.92C635.194 85.9867 633.82 84.6533 632.807 82.92C631.82 81.1867 631.327 79.16 631.327 76.84C631.327 74.5467 631.834 72.5333 632.847 70.8C633.86 69.04 635.247 67.6933 637.007 66.76C638.767 65.8267 640.74 65.36 642.927 65.36C645.114 65.36 647.087 65.8267 648.847 66.76C650.607 67.6933 651.994 69.04 653.007 70.8C654.02 72.5333 654.527 74.5467 654.527 76.84C654.527 79.1333 654.007 81.16 652.967 82.92C651.954 84.6533 650.554 85.9867 648.767 86.92C647.007 87.8533 645.034 88.32 642.847 88.32ZM642.847 82.4C644.154 82.4 645.26 81.92 646.167 80.96C647.1 80 647.567 78.6267 647.567 76.84C647.567 75.0533 647.114 73.68 646.207 72.72C645.327 71.76 644.234 71.28 642.927 71.28C641.594 71.28 640.487 71.76 639.607 72.72C638.727 73.6533 638.287 75.0267 638.287 76.84C638.287 78.6267 638.714 80 639.567 80.96C640.447 81.92 641.54 82.4 642.847 82.4ZM671.756 65.44C674.369 65.44 676.449 66.2933 677.996 68C679.569 69.68 680.356 72 680.356 74.96V88H673.556V75.88C673.556 74.3867 673.169 73.2267 672.396 72.4C671.622 71.5733 670.582 71.16 669.276 71.16C667.969 71.16 666.929 71.5733 666.156 72.4C665.382 73.2267 664.996 74.3867 664.996 75.88V88H658.156V65.68H664.996V68.64C665.689 67.6533 666.622 66.88 667.796 66.32C668.969 65.7333 670.289 65.44 671.756 65.44ZM694.189 88.32C692.242 88.32 690.509 87.9867 688.989 87.32C687.469 86.6533 686.269 85.7467 685.389 84.6C684.509 83.4267 684.016 82.12 683.909 80.68H690.669C690.749 81.4533 691.109 82.08 691.749 82.56C692.389 83.04 693.176 83.28 694.109 83.28C694.962 83.28 695.616 83.12 696.069 82.8C696.549 82.4533 696.789 82.0133 696.789 81.48C696.789 80.84 696.456 80.3733 695.789 80.08C695.122 79.76 694.042 79.4133 692.549 79.04C690.949 78.6667 689.616 78.28 688.549 77.88C687.482 77.4533 686.562 76.8 685.789 75.92C685.016 75.0133 684.629 73.8 684.629 72.28C684.629 71 684.976 69.84 685.669 68.8C686.389 67.7333 687.429 66.8933 688.789 66.28C690.176 65.6667 691.816 65.36 693.709 65.36C696.509 65.36 698.709 66.0533 700.309 67.44C701.936 68.8267 702.869 70.6667 703.109 72.96H696.789C696.682 72.1867 696.336 71.5733 695.749 71.12C695.189 70.6667 694.442 70.44 693.509 70.44C692.709 70.44 692.096 70.6 691.669 70.92C691.242 71.2133 691.029 71.6267 691.029 72.16C691.029 72.8 691.362 73.28 692.029 73.6C692.722 73.92 693.789 74.24 695.229 74.56C696.882 74.9867 698.229 75.4133 699.269 75.84C700.309 76.24 701.216 76.9067 701.989 77.84C702.789 78.7467 703.202 79.9733 703.229 81.52C703.229 82.8267 702.856 84 702.109 85.04C701.389 86.0533 700.336 86.8533 698.949 87.44C697.589 88.0267 696.002 88.32 694.189 88.32Z" fill="#3E4E61"/>
<path d="M154.985 120.126C154.985 121.17 154.625 122.04 153.905 122.736C153.197 123.42 152.111 123.762 150.647 123.762H148.235V129H146.597V116.454H150.647C152.063 116.454 153.137 116.796 153.869 117.48C154.613 118.164 154.985 119.046 154.985 120.126ZM150.647 122.412C151.559 122.412 152.231 122.214 152.663 121.818C153.095 121.422 153.311 120.858 153.311 120.126C153.311 118.578 152.423 117.804 150.647 117.804H148.235V122.412H150.647ZM158.659 120.738C158.947 120.174 159.355 119.736 159.883 119.424C160.423 119.112 161.077 118.956 161.845 118.956V120.648H161.413C159.577 120.648 158.659 121.644 158.659 123.636V129H157.021V119.136H158.659V120.738ZM172.736 123.69C172.736 124.002 172.718 124.332 172.682 124.68H164.798C164.858 125.652 165.188 126.414 165.788 126.966C166.4 127.506 167.138 127.776 168.002 127.776C168.71 127.776 169.298 127.614 169.766 127.29C170.246 126.954 170.582 126.51 170.774 125.958H172.538C172.274 126.906 171.746 127.68 170.954 128.28C170.162 128.868 169.178 129.162 168.002 129.162C167.066 129.162 166.226 128.952 165.482 128.532C164.75 128.112 164.174 127.518 163.754 126.75C163.334 125.97 163.124 125.07 163.124 124.05C163.124 123.03 163.328 122.136 163.736 121.368C164.144 120.6 164.714 120.012 165.446 119.604C166.19 119.184 167.042 118.974 168.002 118.974C168.938 118.974 169.766 119.178 170.486 119.586C171.206 119.994 171.758 120.558 172.142 121.278C172.538 121.986 172.736 122.79 172.736 123.69ZM171.044 123.348C171.044 122.724 170.906 122.19 170.63 121.746C170.354 121.29 169.976 120.948 169.496 120.72C169.028 120.48 168.506 120.36 167.93 120.36C167.102 120.36 166.394 120.624 165.806 121.152C165.23 121.68 164.9 122.412 164.816 123.348H171.044ZM181.738 121.71V123.096H174.556V121.71H181.738ZM186.45 120.738C186.738 120.174 187.146 119.736 187.674 119.424C188.214 119.112 188.868 118.956 189.636 118.956V120.648H189.204C187.368 120.648 186.45 121.644 186.45 123.636V129H184.812V119.136H186.45V120.738ZM200.527 123.69C200.527 124.002 200.509 124.332 200.473 124.68H192.589C192.649 125.652 192.979 126.414 193.579 126.966C194.191 127.506 194.929 127.776 195.793 127.776C196.501 127.776 197.089 127.614 197.557 127.29C198.037 126.954 198.373 126.51 198.565 125.958H200.329C200.065 126.906 199.537 127.68 198.745 128.28C197.953 128.868 196.969 129.162 195.793 129.162C194.857 129.162 194.017 128.952 193.273 128.532C192.541 128.112 191.965 127.518 191.545 126.75C191.125 125.97 190.915 125.07 190.915 124.05C190.915 123.03 191.119 122.136 191.527 121.368C191.935 120.6 192.505 120.012 193.237 119.604C193.981 119.184 194.833 118.974 195.793 118.974C196.729 118.974 197.557 119.178 198.277 119.586C198.997 119.994 199.549 120.558 199.933 121.278C200.329 121.986 200.527 122.79 200.527 123.69ZM198.835 123.348C198.835 122.724 198.697 122.19 198.421 121.746C198.145 121.29 197.767 120.948 197.287 120.72C196.819 120.48 196.297 120.36 195.721 120.36C194.893 120.36 194.185 120.624 193.597 121.152C193.021 121.68 192.691 122.412 192.607 123.348H198.835ZM206.757 118.974C207.609 118.974 208.353 119.16 208.989 119.532C209.637 119.904 210.117 120.372 210.429 120.936V119.136H212.085V129.216C212.085 130.116 211.893 130.914 211.509 131.61C211.125 132.318 210.573 132.87 209.853 133.266C209.145 133.662 208.317 133.86 207.369 133.86C206.073 133.86 204.993 133.554 204.129 132.942C203.265 132.33 202.755 131.496 202.599 130.44H204.219C204.399 131.04 204.771 131.52 205.335 131.88C205.899 132.252 206.577 132.438 207.369 132.438C208.269 132.438 209.001 132.156 209.565 131.592C210.141 131.028 210.429 130.236 210.429 129.216V127.146C210.105 127.722 209.625 128.202 208.989 128.586C208.353 128.97 207.609 129.162 206.757 129.162C205.881 129.162 205.083 128.946 204.363 128.514C203.655 128.082 203.097 127.476 202.689 126.696C202.281 125.916 202.077 125.028 202.077 124.032C202.077 123.024 202.281 122.142 202.689 121.386C203.097 120.618 203.655 120.024 204.363 119.604C205.083 119.184 205.881 118.974 206.757 118.974ZM210.429 124.05C210.429 123.306 210.279 122.658 209.979 122.106C209.679 121.554 209.271 121.134 208.755 120.846C208.251 120.546 207.693 120.396 207.081 120.396C206.469 120.396 205.911 120.54 205.407 120.828C204.903 121.116 204.501 121.536 204.201 122.088C203.901 122.64 203.751 123.288 203.751 124.032C203.751 124.788 203.901 125.448 204.201 126.012C204.501 126.564 204.903 126.99 205.407 127.29C205.911 127.578 206.469 127.722 207.081 127.722C207.693 127.722 208.251 127.578 208.755 127.29C209.271 126.99 209.679 126.564 209.979 126.012C210.279 125.448 210.429 124.794 210.429 124.05ZM215.699 117.534C215.387 117.534 215.123 117.426 214.907 117.21C214.691 116.994 214.583 116.73 214.583 116.418C214.583 116.106 214.691 115.842 214.907 115.626C215.123 115.41 215.387 115.302 215.699 115.302C215.999 115.302 216.251 115.41 216.455 115.626C216.671 115.842 216.779 116.106 216.779 116.418C216.779 116.73 216.671 116.994 216.455 117.21C216.251 117.426 215.999 117.534 215.699 117.534ZM216.491 119.136V129H214.853V119.136H216.491ZM222.774 129.162C222.018 129.162 221.34 129.036 220.74 128.784C220.14 128.52 219.666 128.16 219.318 127.704C218.97 127.236 218.778 126.702 218.742 126.102H220.434C220.482 126.594 220.71 126.996 221.118 127.308C221.538 127.62 222.084 127.776 222.756 127.776C223.38 127.776 223.872 127.638 224.232 127.362C224.592 127.086 224.772 126.738 224.772 126.318C224.772 125.886 224.58 125.568 224.196 125.364C223.812 125.148 223.218 124.938 222.414 124.734C221.682 124.542 221.082 124.35 220.614 124.158C220.158 123.954 219.762 123.66 219.426 123.276C219.102 122.88 218.94 122.364 218.94 121.728C218.94 121.224 219.09 120.762 219.39 120.342C219.69 119.922 220.116 119.592 220.668 119.352C221.22 119.1 221.85 118.974 222.558 118.974C223.65 118.974 224.532 119.25 225.204 119.802C225.876 120.354 226.236 121.11 226.284 122.07H224.646C224.61 121.554 224.4 121.14 224.016 120.828C223.644 120.516 223.14 120.36 222.504 120.36C221.916 120.36 221.448 120.486 221.1 120.738C220.752 120.99 220.578 121.32 220.578 121.728C220.578 122.052 220.68 122.322 220.884 122.538C221.1 122.742 221.364 122.91 221.676 123.042C222 123.162 222.444 123.3 223.008 123.456C223.716 123.648 224.292 123.84 224.736 124.032C225.18 124.212 225.558 124.488 225.87 124.86C226.194 125.232 226.362 125.718 226.374 126.318C226.374 126.858 226.224 127.344 225.924 127.776C225.624 128.208 225.198 128.55 224.646 128.802C224.106 129.042 223.482 129.162 222.774 129.162ZM230.685 120.486V126.3C230.685 126.78 230.787 127.122 230.991 127.326C231.195 127.518 231.549 127.614 232.053 127.614H233.259V129H231.783C230.871 129 230.187 128.79 229.731 128.37C229.275 127.95 229.047 127.26 229.047 126.3V120.486H227.769V119.136H229.047V116.652H230.685V119.136H233.259V120.486H230.685ZM244.243 123.69C244.243 124.002 244.225 124.332 244.189 124.68H236.305C236.365 125.652 236.695 126.414 237.295 126.966C237.907 127.506 238.645 127.776 239.509 127.776C240.217 127.776 240.805 127.614 241.273 127.29C241.753 126.954 242.089 126.51 242.281 125.958H244.045C243.781 126.906 243.253 127.68 242.461 128.28C241.669 128.868 240.685 129.162 239.509 129.162C238.573 129.162 237.733 128.952 236.989 128.532C236.257 128.112 235.681 127.518 235.261 126.75C234.841 125.97 234.631 125.07 234.631 124.05C234.631 123.03 234.835 122.136 235.243 121.368C235.651 120.6 236.221 120.012 236.953 119.604C237.697 119.184 238.549 118.974 239.509 118.974C240.445 118.974 241.273 119.178 241.993 119.586C242.713 119.994 243.265 120.558 243.649 121.278C244.045 121.986 244.243 122.79 244.243 123.69ZM242.551 123.348C242.551 122.724 242.413 122.19 242.137 121.746C241.861 121.29 241.483 120.948 241.003 120.72C240.535 120.48 240.013 120.36 239.437 120.36C238.609 120.36 237.901 120.624 237.313 121.152C236.737 121.68 236.407 122.412 236.323 123.348H242.551ZM248.044 120.738C248.332 120.174 248.74 119.736 249.268 119.424C249.808 119.112 250.462 118.956 251.23 118.956V120.648H250.798C248.962 120.648 248.044 121.644 248.044 123.636V129H246.406V119.136H248.044V120.738ZM259.917 120.486V126.3C259.917 126.78 260.019 127.122 260.223 127.326C260.427 127.518 260.781 127.614 261.285 127.614H262.491V129H261.015C260.103 129 259.419 128.79 258.963 128.37C258.507 127.95 258.279 127.26 258.279 126.3V120.486H257.001V119.136H258.279V116.652H259.917V119.136H262.491V120.486H259.917ZM268.778 129.162C267.854 129.162 267.014 128.952 266.258 128.532C265.514 128.112 264.926 127.518 264.494 126.75C264.074 125.97 263.864 125.07 263.864 124.05C263.864 123.042 264.08 122.154 264.512 121.386C264.956 120.606 265.556 120.012 266.312 119.604C267.068 119.184 267.914 118.974 268.85 118.974C269.786 118.974 270.632 119.184 271.388 119.604C272.144 120.012 272.738 120.6 273.17 121.368C273.614 122.136 273.836 123.03 273.836 124.05C273.836 125.07 273.608 125.97 273.152 126.75C272.708 127.518 272.102 128.112 271.334 128.532C270.566 128.952 269.714 129.162 268.778 129.162ZM268.778 127.722C269.366 127.722 269.918 127.584 270.434 127.308C270.95 127.032 271.364 126.618 271.676 126.066C272 125.514 272.162 124.842 272.162 124.05C272.162 123.258 272.006 122.586 271.694 122.034C271.382 121.482 270.974 121.074 270.47 120.81C269.966 120.534 269.42 120.396 268.832 120.396C268.232 120.396 267.68 120.534 267.176 120.81C266.684 121.074 266.288 121.482 265.988 122.034C265.688 122.586 265.538 123.258 265.538 124.05C265.538 124.854 265.682 125.532 265.97 126.084C266.27 126.636 266.666 127.05 267.158 127.326C267.65 127.59 268.19 127.722 268.778 127.722ZM281.67 117.534C281.358 117.534 281.094 117.426 280.878 117.21C280.674 116.994 280.572 116.73 280.572 116.418C280.572 116.106 280.674 115.842 280.878 115.626C281.094 115.41 281.358 115.302 281.67 115.302C281.982 115.302 282.24 115.41 282.444 115.626C282.66 115.842 282.768 116.106 282.768 116.418C282.768 116.73 282.66 116.994 282.444 117.21C282.24 117.426 281.982 117.534 281.67 117.534ZM282.48 131.142C282.48 132.018 282.258 132.66 281.814 133.068C281.37 133.476 280.722 133.68 279.87 133.68H278.916V132.294H279.6C280.056 132.294 280.374 132.204 280.554 132.024C280.746 131.844 280.842 131.538 280.842 131.106V119.136H282.48V131.142ZM289.555 129.162C288.631 129.162 287.791 128.952 287.035 128.532C286.291 128.112 285.703 127.518 285.271 126.75C284.851 125.97 284.641 125.07 284.641 124.05C284.641 123.042 284.857 122.154 285.289 121.386C285.733 120.606 286.333 120.012 287.089 119.604C287.845 119.184 288.691 118.974 289.627 118.974C290.563 118.974 291.409 119.184 292.165 119.604C292.921 120.012 293.515 120.6 293.947 121.368C294.391 122.136 294.613 123.03 294.613 124.05C294.613 125.07 294.385 125.97 293.929 126.75C293.485 127.518 292.879 128.112 292.111 128.532C291.343 128.952 290.491 129.162 289.555 129.162ZM289.555 127.722C290.143 127.722 290.695 127.584 291.211 127.308C291.727 127.032 292.141 126.618 292.453 126.066C292.777 125.514 292.939 124.842 292.939 124.05C292.939 123.258 292.783 122.586 292.471 122.034C292.159 121.482 291.751 121.074 291.247 120.81C290.743 120.534 290.197 120.396 289.609 120.396C289.009 120.396 288.457 120.534 287.953 120.81C287.461 121.074 287.065 121.482 286.765 122.034C286.465 122.586 286.315 123.258 286.315 124.05C286.315 124.854 286.459 125.532 286.747 126.084C287.047 126.636 287.443 127.05 287.935 127.326C288.427 127.59 288.967 127.722 289.555 127.722ZM297.613 117.534C297.301 117.534 297.037 117.426 296.821 117.21C296.605 116.994 296.497 116.73 296.497 116.418C296.497 116.106 296.605 115.842 296.821 115.626C297.037 115.41 297.301 115.302 297.613 115.302C297.913 115.302 298.165 115.41 298.369 115.626C298.585 115.842 298.693 116.106 298.693 116.418C298.693 116.73 298.585 116.994 298.369 117.21C298.165 117.426 297.913 117.534 297.613 117.534ZM298.405 119.136V129H296.767V119.136H298.405ZM306.003 118.956C307.203 118.956 308.175 119.322 308.919 120.054C309.663 120.774 310.035 121.818 310.035 123.186V129H308.415V123.42C308.415 122.436 308.169 121.686 307.677 121.17C307.185 120.642 306.513 120.378 305.661 120.378C304.797 120.378 304.107 120.648 303.591 121.188C303.087 121.728 302.835 122.514 302.835 123.546V129H301.197V119.136H302.835V120.54C303.159 120.036 303.597 119.646 304.149 119.37C304.713 119.094 305.331 118.956 306.003 118.956ZM322.315 118.956C323.515 118.956 324.487 119.322 325.231 120.054C325.975 120.774 326.347 121.818 326.347 123.186V129H324.727V123.42C324.727 122.436 324.481 121.686 323.989 121.17C323.497 120.642 322.825 120.378 321.973 120.378C321.109 120.378 320.419 120.648 319.903 121.188C319.399 121.728 319.147 122.514 319.147 123.546V129H317.509V119.136H319.147V120.54C319.471 120.036 319.909 119.646 320.461 119.37C321.025 119.094 321.643 118.956 322.315 118.956ZM333.325 129.162C332.401 129.162 331.561 128.952 330.805 128.532C330.061 128.112 329.473 127.518 329.041 126.75C328.621 125.97 328.411 125.07 328.411 124.05C328.411 123.042 328.627 122.154 329.059 121.386C329.503 120.606 330.103 120.012 330.859 119.604C331.615 119.184 332.461 118.974 333.397 118.974C334.333 118.974 335.179 119.184 335.935 119.604C336.691 120.012 337.285 120.6 337.717 121.368C338.161 122.136 338.383 123.03 338.383 124.05C338.383 125.07 338.155 125.97 337.699 126.75C337.255 127.518 336.649 128.112 335.881 128.532C335.113 128.952 334.261 129.162 333.325 129.162ZM333.325 127.722C333.913 127.722 334.465 127.584 334.981 127.308C335.497 127.032 335.911 126.618 336.223 126.066C336.547 125.514 336.709 124.842 336.709 124.05C336.709 123.258 336.553 122.586 336.241 122.034C335.929 121.482 335.521 121.074 335.017 120.81C334.513 120.534 333.967 120.396 333.379 120.396C332.779 120.396 332.227 120.534 331.723 120.81C331.231 121.074 330.835 121.482 330.535 122.034C330.235 122.586 330.085 123.258 330.085 124.05C330.085 124.854 330.229 125.532 330.517 126.084C330.817 126.636 331.213 127.05 331.705 127.326C332.197 127.59 332.737 127.722 333.325 127.722ZM353.676 119.136L350.598 129H348.906L346.53 121.17L344.154 129H342.462L339.366 119.136H341.04L343.308 127.416L345.756 119.136H347.43L349.824 127.434L352.056 119.136H353.676ZM359.489 124.032C359.489 123.024 359.693 122.142 360.101 121.386C360.509 120.618 361.067 120.024 361.775 119.604C362.495 119.184 363.293 118.974 364.169 118.974C365.033 118.974 365.783 119.16 366.419 119.532C367.055 119.904 367.529 120.372 367.841 120.936V119.136H369.497V129H367.841V127.164C367.517 127.74 367.031 128.22 366.383 128.604C365.747 128.976 365.003 129.162 364.151 129.162C363.275 129.162 362.483 128.946 361.775 128.514C361.067 128.082 360.509 127.476 360.101 126.696C359.693 125.916 359.489 125.028 359.489 124.032ZM367.841 124.05C367.841 123.306 367.691 122.658 367.391 122.106C367.091 121.554 366.683 121.134 366.167 120.846C365.663 120.546 365.105 120.396 364.493 120.396C363.881 120.396 363.323 120.54 362.819 120.828C362.315 121.116 361.913 121.536 361.613 122.088C361.313 122.64 361.163 123.288 361.163 124.032C361.163 124.788 361.313 125.448 361.613 126.012C361.913 126.564 362.315 126.99 362.819 127.29C363.323 127.578 363.881 127.722 364.493 127.722C365.105 127.722 365.663 127.578 366.167 127.29C366.683 126.99 367.091 126.564 367.391 126.012C367.691 125.448 367.841 124.794 367.841 124.05ZM377.071 118.956C378.271 118.956 379.243 119.322 379.987 120.054C380.731 120.774 381.103 121.818 381.103 123.186V129H379.483V123.42C379.483 122.436 379.237 121.686 378.745 121.17C378.253 120.642 377.581 120.378 376.729 120.378C375.865 120.378 375.175 120.648 374.659 121.188C374.155 121.728 373.903 122.514 373.903 123.546V129H372.265V119.136H373.903V120.54C374.227 120.036 374.665 119.646 375.217 119.37C375.781 119.094 376.399 118.956 377.071 118.956ZM383.167 124.032C383.167 123.024 383.371 122.142 383.779 121.386C384.187 120.618 384.745 120.024 385.453 119.604C386.173 119.184 386.977 118.974 387.865 118.974C388.633 118.974 389.347 119.154 390.007 119.514C390.667 119.862 391.171 120.324 391.519 120.9V115.68H393.175V129H391.519V127.146C391.195 127.734 390.715 128.22 390.079 128.604C389.443 128.976 388.699 129.162 387.847 129.162C386.971 129.162 386.173 128.946 385.453 128.514C384.745 128.082 384.187 127.476 383.779 126.696C383.371 125.916 383.167 125.028 383.167 124.032ZM391.519 124.05C391.519 123.306 391.369 122.658 391.069 122.106C390.769 121.554 390.361 121.134 389.845 120.846C389.341 120.546 388.783 120.396 388.171 120.396C387.559 120.396 387.001 120.54 386.497 120.828C385.993 121.116 385.591 121.536 385.291 122.088C384.991 122.64 384.841 123.288 384.841 124.032C384.841 124.788 384.991 125.448 385.291 126.012C385.591 126.564 385.993 126.99 386.497 127.29C387.001 127.578 387.559 127.722 388.171 127.722C388.783 127.722 389.341 127.578 389.845 127.29C390.361 126.99 390.769 126.564 391.069 126.012C391.369 125.448 391.519 124.794 391.519 124.05ZM404.809 118.974C405.661 118.974 406.405 119.16 407.041 119.532C407.689 119.904 408.169 120.372 408.481 120.936V119.136H410.137V129.216C410.137 130.116 409.945 130.914 409.561 131.61C409.177 132.318 408.625 132.87 407.905 133.266C407.197 133.662 406.369 133.86 405.421 133.86C404.125 133.86 403.045 133.554 402.181 132.942C401.317 132.33 400.807 131.496 400.651 130.44H402.271C402.451 131.04 402.823 131.52 403.387 131.88C403.951 132.252 404.629 132.438 405.421 132.438C406.321 132.438 407.053 132.156 407.617 131.592C408.193 131.028 408.481 130.236 408.481 129.216V127.146C408.157 127.722 407.677 128.202 407.041 128.586C406.405 128.97 405.661 129.162 404.809 129.162C403.933 129.162 403.135 128.946 402.415 128.514C401.707 128.082 401.149 127.476 400.741 126.696C400.333 125.916 400.129 125.028 400.129 124.032C400.129 123.024 400.333 122.142 400.741 121.386C401.149 120.618 401.707 120.024 402.415 119.604C403.135 119.184 403.933 118.974 404.809 118.974ZM408.481 124.05C408.481 123.306 408.331 122.658 408.031 122.106C407.731 121.554 407.323 121.134 406.807 120.846C406.303 120.546 405.745 120.396 405.133 120.396C404.521 120.396 403.963 120.54 403.459 120.828C402.955 121.116 402.553 121.536 402.253 122.088C401.953 122.64 401.803 123.288 401.803 124.032C401.803 124.788 401.953 125.448 402.253 126.012C402.553 126.564 402.955 126.99 403.459 127.29C403.963 127.578 404.521 127.722 405.133 127.722C405.745 127.722 406.303 127.578 406.807 127.29C407.323 126.99 407.731 126.564 408.031 126.012C408.331 125.448 408.481 124.794 408.481 124.05ZM421.906 123.69C421.906 124.002 421.888 124.332 421.852 124.68H413.968C414.028 125.652 414.358 126.414 414.958 126.966C415.57 127.506 416.308 127.776 417.172 127.776C417.88 127.776 418.468 127.614 418.936 127.29C419.416 126.954 419.752 126.51 419.944 125.958H421.708C421.444 126.906 420.916 127.68 420.124 128.28C419.332 128.868 418.348 129.162 417.172 129.162C416.236 129.162 415.396 128.952 414.652 128.532C413.92 128.112 413.344 127.518 412.924 126.75C412.504 125.97 412.294 125.07 412.294 124.05C412.294 123.03 412.498 122.136 412.906 121.368C413.314 120.6 413.884 120.012 414.616 119.604C415.36 119.184 416.212 118.974 417.172 118.974C418.108 118.974 418.936 119.178 419.656 119.586C420.376 119.994 420.928 120.558 421.312 121.278C421.708 121.986 421.906 122.79 421.906 123.69ZM420.214 123.348C420.214 122.724 420.076 122.19 419.8 121.746C419.524 121.29 419.146 120.948 418.666 120.72C418.198 120.48 417.676 120.36 417.1 120.36C416.272 120.36 415.564 120.624 414.976 121.152C414.4 121.68 414.07 122.412 413.986 123.348H420.214ZM426.066 120.486V126.3C426.066 126.78 426.168 127.122 426.372 127.326C426.576 127.518 426.93 127.614 427.434 127.614H428.64V129H427.164C426.252 129 425.568 128.79 425.112 128.37C424.656 127.95 424.428 127.26 424.428 126.3V120.486H423.15V119.136H424.428V116.652H426.066V119.136H428.64V120.486H426.066ZM443.919 119.136L437.979 133.644H436.287L438.231 128.892L434.253 119.136H436.071L439.167 127.128L442.227 119.136H443.919ZM449.868 129.162C448.944 129.162 448.104 128.952 447.348 128.532C446.604 128.112 446.016 127.518 445.584 126.75C445.164 125.97 444.954 125.07 444.954 124.05C444.954 123.042 445.17 122.154 445.602 121.386C446.046 120.606 446.646 120.012 447.402 119.604C448.158 119.184 449.004 118.974 449.94 118.974C450.876 118.974 451.722 119.184 452.478 119.604C453.234 120.012 453.828 120.6 454.26 121.368C454.704 122.136 454.926 123.03 454.926 124.05C454.926 125.07 454.698 125.97 454.242 126.75C453.798 127.518 453.192 128.112 452.424 128.532C451.656 128.952 450.804 129.162 449.868 129.162ZM449.868 127.722C450.456 127.722 451.008 127.584 451.524 127.308C452.04 127.032 452.454 126.618 452.766 126.066C453.09 125.514 453.252 124.842 453.252 124.05C453.252 123.258 453.096 122.586 452.784 122.034C452.472 121.482 452.064 121.074 451.56 120.81C451.056 120.534 450.51 120.396 449.922 120.396C449.322 120.396 448.77 120.534 448.266 120.81C447.774 121.074 447.378 121.482 447.078 122.034C446.778 122.586 446.628 123.258 446.628 124.05C446.628 124.854 446.772 125.532 447.06 126.084C447.36 126.636 447.756 127.05 448.248 127.326C448.74 127.59 449.28 127.722 449.868 127.722ZM465.827 119.136V129H464.189V127.542C463.877 128.046 463.439 128.442 462.875 128.73C462.323 129.006 461.711 129.144 461.039 129.144C460.271 129.144 459.581 128.988 458.969 128.676C458.357 128.352 457.871 127.872 457.511 127.236C457.163 126.6 456.989 125.826 456.989 124.914V119.136H458.609V124.698C458.609 125.67 458.855 126.42 459.347 126.948C459.839 127.464 460.511 127.722 461.363 127.722C462.239 127.722 462.929 127.452 463.433 126.912C463.937 126.372 464.189 125.586 464.189 124.554V119.136H465.827ZM470.231 120.738C470.519 120.174 470.927 119.736 471.455 119.424C471.995 119.112 472.649 118.956 473.417 118.956V120.648H472.985C471.149 120.648 470.231 121.644 470.231 123.636V129H468.593V119.136H470.231V120.738ZM484.121 120.486H482.051V129H480.413V120.486H479.135V119.136H480.413V118.434C480.413 117.33 480.695 116.526 481.259 116.022C481.835 115.506 482.753 115.248 484.013 115.248V116.616C483.293 116.616 482.783 116.76 482.483 117.048C482.195 117.324 482.051 117.786 482.051 118.434V119.136H484.121V120.486ZM486.877 117.534C486.565 117.534 486.301 117.426 486.085 117.21C485.869 116.994 485.761 116.73 485.761 116.418C485.761 116.106 485.869 115.842 486.085 115.626C486.301 115.41 486.565 115.302 486.877 115.302C487.177 115.302 487.429 115.41 487.633 115.626C487.849 115.842 487.957 116.106 487.957 116.418C487.957 116.73 487.849 116.994 487.633 117.21C487.429 117.426 487.177 117.534 486.877 117.534ZM487.669 119.136V129H486.031V119.136H487.669ZM492.098 120.738C492.386 120.174 492.794 119.736 493.322 119.424C493.862 119.112 494.516 118.956 495.284 118.956V120.648H494.852C493.016 120.648 492.098 121.644 492.098 123.636V129H490.46V119.136H492.098V120.738ZM500.667 129.162C499.911 129.162 499.233 129.036 498.633 128.784C498.033 128.52 497.559 128.16 497.211 127.704C496.863 127.236 496.671 126.702 496.635 126.102H498.327C498.375 126.594 498.603 126.996 499.011 127.308C499.431 127.62 499.977 127.776 500.649 127.776C501.273 127.776 501.765 127.638 502.125 127.362C502.485 127.086 502.665 126.738 502.665 126.318C502.665 125.886 502.473 125.568 502.089 125.364C501.705 125.148 501.111 124.938 500.307 124.734C499.575 124.542 498.975 124.35 498.507 124.158C498.051 123.954 497.655 123.66 497.319 123.276C496.995 122.88 496.833 122.364 496.833 121.728C496.833 121.224 496.983 120.762 497.283 120.342C497.583 119.922 498.009 119.592 498.561 119.352C499.113 119.1 499.743 118.974 500.451 118.974C501.543 118.974 502.425 119.25 503.097 119.802C503.769 120.354 504.129 121.11 504.177 122.07H502.539C502.503 121.554 502.293 121.14 501.909 120.828C501.537 120.516 501.033 120.36 500.397 120.36C499.809 120.36 499.341 120.486 498.993 120.738C498.645 120.99 498.471 121.32 498.471 121.728C498.471 122.052 498.573 122.322 498.777 122.538C498.993 122.742 499.257 122.91 499.569 123.042C499.893 123.162 500.337 123.3 500.901 123.456C501.609 123.648 502.185 123.84 502.629 124.032C503.073 124.212 503.451 124.488 503.763 124.86C504.087 125.232 504.255 125.718 504.267 126.318C504.267 126.858 504.117 127.344 503.817 127.776C503.517 128.208 503.091 128.55 502.539 128.802C501.999 129.042 501.375 129.162 500.667 129.162ZM508.577 120.486V126.3C508.577 126.78 508.679 127.122 508.883 127.326C509.087 127.518 509.441 127.614 509.945 127.614H511.151V129H509.675C508.763 129 508.079 128.79 507.623 128.37C507.167 127.95 506.939 127.26 506.939 126.3V120.486H505.661V119.136H506.939V116.652H508.577V119.136H511.151V120.486H508.577ZM517.629 119.262C517.713 118.158 518.139 117.294 518.907 116.67C519.675 116.046 520.671 115.734 521.895 115.734C522.711 115.734 523.413 115.884 524.001 116.184C524.601 116.472 525.051 116.868 525.351 117.372C525.663 117.876 525.819 118.446 525.819 119.082C525.819 119.826 525.603 120.468 525.171 121.008C524.751 121.548 524.199 121.896 523.515 122.052V122.142C524.295 122.334 524.913 122.712 525.369 123.276C525.825 123.84 526.053 124.578 526.053 125.49C526.053 126.174 525.897 126.792 525.585 127.344C525.273 127.884 524.805 128.31 524.181 128.622C523.557 128.934 522.807 129.09 521.931 129.09C520.659 129.09 519.615 128.76 518.799 128.1C517.983 127.428 517.527 126.48 517.431 125.256H519.015C519.099 125.976 519.393 126.564 519.897 127.02C520.401 127.476 521.073 127.704 521.913 127.704C522.753 127.704 523.389 127.488 523.821 127.056C524.265 126.612 524.487 126.042 524.487 125.346C524.487 124.446 524.187 123.798 523.587 123.402C522.987 123.006 522.081 122.808 520.869 122.808H520.455V121.44H520.887C521.991 121.428 522.825 121.248 523.389 120.9C523.953 120.54 524.235 119.988 524.235 119.244C524.235 118.608 524.025 118.098 523.605 117.714C523.197 117.33 522.609 117.138 521.841 117.138C521.097 117.138 520.497 117.33 520.041 117.714C519.585 118.098 519.315 118.614 519.231 119.262H517.629ZM534.719 127.578H540.839V129H532.775V127.704L538.859 117.876H532.847V116.454H540.803V117.75L534.719 127.578ZM547.374 129.162C546.45 129.162 545.61 128.952 544.854 128.532C544.11 128.112 543.522 127.518 543.09 126.75C542.67 125.97 542.46 125.07 542.46 124.05C542.46 123.042 542.676 122.154 543.108 121.386C543.552 120.606 544.152 120.012 544.908 119.604C545.664 119.184 546.51 118.974 547.446 118.974C548.382 118.974 549.228 119.184 549.984 119.604C550.74 120.012 551.334 120.6 551.766 121.368C552.21 122.136 552.432 123.03 552.432 124.05C552.432 125.07 552.204 125.97 551.748 126.75C551.304 127.518 550.698 128.112 549.93 128.532C549.162 128.952 548.31 129.162 547.374 129.162ZM547.374 127.722C547.962 127.722 548.514 127.584 549.03 127.308C549.546 127.032 549.96 126.618 550.272 126.066C550.596 125.514 550.758 124.842 550.758 124.05C550.758 123.258 550.602 122.586 550.29 122.034C549.978 121.482 549.57 121.074 549.066 120.81C548.562 120.534 548.016 120.396 547.428 120.396C546.828 120.396 546.276 120.534 545.772 120.81C545.28 121.074 544.884 121.482 544.584 122.034C544.284 122.586 544.134 123.258 544.134 124.05C544.134 124.854 544.278 125.532 544.566 126.084C544.866 126.636 545.262 127.05 545.754 127.326C546.246 127.59 546.786 127.722 547.374 127.722ZM563.333 119.136V129H561.695V127.542C561.383 128.046 560.945 128.442 560.381 128.73C559.829 129.006 559.217 129.144 558.545 129.144C557.777 129.144 557.087 128.988 556.475 128.676C555.863 128.352 555.377 127.872 555.017 127.236C554.669 126.6 554.495 125.826 554.495 124.914V119.136H556.115V124.698C556.115 125.67 556.361 126.42 556.853 126.948C557.345 127.464 558.017 127.722 558.869 127.722C559.745 127.722 560.435 127.452 560.939 126.912C561.443 126.372 561.695 125.586 561.695 124.554V119.136H563.333ZM571.607 129L567.737 124.644V129H566.099V115.68H567.737V123.51L571.535 119.136H573.821L569.177 124.05L573.839 129H571.607ZM578.855 129.162C578.099 129.162 577.421 129.036 576.821 128.784C576.221 128.52 575.747 128.16 575.399 127.704C575.051 127.236 574.859 126.702 574.823 126.102H576.515C576.563 126.594 576.791 126.996 577.199 127.308C577.619 127.62 578.165 127.776 578.837 127.776C579.461 127.776 579.953 127.638 580.313 127.362C580.673 127.086 580.853 126.738 580.853 126.318C580.853 125.886 580.661 125.568 580.277 125.364C579.893 125.148 579.299 124.938 578.495 124.734C577.763 124.542 577.163 124.35 576.695 124.158C576.239 123.954 575.843 123.66 575.507 123.276C575.183 122.88 575.021 122.364 575.021 121.728C575.021 121.224 575.171 120.762 575.471 120.342C575.771 119.922 576.197 119.592 576.749 119.352C577.301 119.1 577.931 118.974 578.639 118.974C579.731 118.974 580.613 119.25 581.285 119.802C581.957 120.354 582.317 121.11 582.365 122.07H580.727C580.691 121.554 580.481 121.14 580.097 120.828C579.725 120.516 579.221 120.36 578.585 120.36C577.997 120.36 577.529 120.486 577.181 120.738C576.833 120.99 576.659 121.32 576.659 121.728C576.659 122.052 576.761 122.322 576.965 122.538C577.181 122.742 577.445 122.91 577.757 123.042C578.081 123.162 578.525 123.3 579.089 123.456C579.797 123.648 580.373 123.84 580.817 124.032C581.261 124.212 581.639 124.488 581.951 124.86C582.275 125.232 582.443 125.718 582.455 126.318C582.455 126.858 582.305 127.344 582.005 127.776C581.705 128.208 581.279 128.55 580.727 128.802C580.187 129.042 579.563 129.162 578.855 129.162ZM588.954 124.05C588.954 123.03 589.158 122.142 589.566 121.386C589.974 120.618 590.538 120.024 591.258 119.604C591.99 119.184 592.824 118.974 593.76 118.974C594.972 118.974 595.968 119.268 596.748 119.856C597.54 120.444 598.062 121.26 598.314 122.304H596.55C596.382 121.704 596.052 121.23 595.56 120.882C595.08 120.534 594.48 120.36 593.76 120.36C592.824 120.36 592.068 120.684 591.492 121.332C590.916 121.968 590.628 122.874 590.628 124.05C590.628 125.238 590.916 126.156 591.492 126.804C592.068 127.452 592.824 127.776 593.76 127.776C594.48 127.776 595.08 127.608 595.56 127.272C596.04 126.936 596.37 126.456 596.55 125.832H598.314C598.05 126.84 597.522 127.65 596.73 128.262C595.938 128.862 594.948 129.162 593.76 129.162C592.824 129.162 591.99 128.952 591.258 128.532C590.538 128.112 589.974 127.518 589.566 126.75C589.158 125.982 588.954 125.082 588.954 124.05ZM604.801 129.162C603.877 129.162 603.037 128.952 602.281 128.532C601.537 128.112 600.949 127.518 600.517 126.75C600.097 125.97 599.887 125.07 599.887 124.05C599.887 123.042 600.103 122.154 600.535 121.386C600.979 120.606 601.579 120.012 602.335 119.604C603.091 119.184 603.937 118.974 604.873 118.974C605.809 118.974 606.655 119.184 607.411 119.604C608.167 120.012 608.761 120.6 609.193 121.368C609.637 122.136 609.859 123.03 609.859 124.05C609.859 125.07 609.631 125.97 609.175 126.75C608.731 127.518 608.125 128.112 607.357 128.532C606.589 128.952 605.737 129.162 604.801 129.162ZM604.801 127.722C605.389 127.722 605.941 127.584 606.457 127.308C606.973 127.032 607.387 126.618 607.699 126.066C608.023 125.514 608.185 124.842 608.185 124.05C608.185 123.258 608.029 122.586 607.717 122.034C607.405 121.482 606.997 121.074 606.493 120.81C605.989 120.534 605.443 120.396 604.855 120.396C604.255 120.396 603.703 120.534 603.199 120.81C602.707 121.074 602.311 121.482 602.011 122.034C601.711 122.586 601.561 123.258 601.561 124.05C601.561 124.854 601.705 125.532 601.993 126.084C602.293 126.636 602.689 127.05 603.181 127.326C603.673 127.59 604.213 127.722 604.801 127.722ZM616.819 118.956C618.019 118.956 618.991 119.322 619.735 120.054C620.479 120.774 620.851 121.818 620.851 123.186V129H619.231V123.42C619.231 122.436 618.985 121.686 618.493 121.17C618.001 120.642 617.329 120.378 616.477 120.378C615.613 120.378 614.923 120.648 614.407 121.188C613.903 121.728 613.651 122.514 613.651 123.546V129H612.013V119.136H613.651V120.54C613.975 120.036 614.413 119.646 614.965 119.37C615.529 119.094 616.147 118.956 616.819 118.956ZM628.333 118.956C629.533 118.956 630.505 119.322 631.249 120.054C631.993 120.774 632.365 121.818 632.365 123.186V129H630.745V123.42C630.745 122.436 630.499 121.686 630.007 121.17C629.515 120.642 628.843 120.378 627.991 120.378C627.127 120.378 626.437 120.648 625.921 121.188C625.417 121.728 625.165 122.514 625.165 123.546V129H623.527V119.136H625.165V120.54C625.489 120.036 625.927 119.646 626.479 119.37C627.043 119.094 627.661 118.956 628.333 118.956ZM644.04 123.69C644.04 124.002 644.022 124.332 643.986 124.68H636.102C636.162 125.652 636.492 126.414 637.092 126.966C637.704 127.506 638.442 127.776 639.306 127.776C640.014 127.776 640.602 127.614 641.07 127.29C641.55 126.954 641.886 126.51 642.078 125.958H643.842C643.578 126.906 643.05 127.68 642.258 128.28C641.466 128.868 640.482 129.162 639.306 129.162C638.37 129.162 637.53 128.952 636.786 128.532C636.054 128.112 635.478 127.518 635.058 126.75C634.638 125.97 634.428 125.07 634.428 124.05C634.428 123.03 634.632 122.136 635.04 121.368C635.448 120.6 636.018 120.012 636.75 119.604C637.494 119.184 638.346 118.974 639.306 118.974C640.242 118.974 641.07 119.178 641.79 119.586C642.51 119.994 643.062 120.558 643.446 121.278C643.842 121.986 644.04 122.79 644.04 123.69ZM642.348 123.348C642.348 122.724 642.21 122.19 641.934 121.746C641.658 121.29 641.28 120.948 640.8 120.72C640.332 120.48 639.81 120.36 639.234 120.36C638.406 120.36 637.698 120.624 637.11 121.152C636.534 121.68 636.204 122.412 636.12 123.348H642.348ZM645.59 124.05C645.59 123.03 645.794 122.142 646.202 121.386C646.61 120.618 647.174 120.024 647.894 119.604C648.626 119.184 649.46 118.974 650.396 118.974C651.608 118.974 652.604 119.268 653.384 119.856C654.176 120.444 654.698 121.26 654.95 122.304H653.186C653.018 121.704 652.688 121.23 652.196 120.882C651.716 120.534 651.116 120.36 650.396 120.36C649.46 120.36 648.704 120.684 648.128 121.332C647.552 121.968 647.264 122.874 647.264 124.05C647.264 125.238 647.552 126.156 648.128 126.804C648.704 127.452 649.46 127.776 650.396 127.776C651.116 127.776 651.716 127.608 652.196 127.272C652.676 126.936 653.006 126.456 653.186 125.832H654.95C654.686 126.84 654.158 127.65 653.366 128.262C652.574 128.862 651.584 129.162 650.396 129.162C649.46 129.162 648.626 128.952 647.894 128.532C647.174 128.112 646.61 127.518 646.202 126.75C645.794 125.982 645.59 125.082 645.59 124.05ZM659.134 120.486V126.3C659.134 126.78 659.236 127.122 659.44 127.326C659.644 127.518 659.998 127.614 660.502 127.614H661.708V129H660.232C659.32 129 658.636 128.79 658.18 128.37C657.724 127.95 657.496 127.26 657.496 126.3V120.486H656.218V119.136H657.496V116.652H659.134V119.136H661.708V120.486H659.134ZM664.539 117.534C664.227 117.534 663.963 117.426 663.747 117.21C663.531 116.994 663.423 116.73 663.423 116.418C663.423 116.106 663.531 115.842 663.747 115.626C663.963 115.41 664.227 115.302 664.539 115.302C664.839 115.302 665.091 115.41 665.295 115.626C665.511 115.842 665.619 116.106 665.619 116.418C665.619 116.73 665.511 116.994 665.295 117.21C665.091 117.426 664.839 117.534 664.539 117.534ZM665.331 119.136V129H663.693V119.136H665.331ZM672.424 129.162C671.5 129.162 670.66 128.952 669.904 128.532C669.16 128.112 668.572 127.518 668.14 126.75C667.72 125.97 667.51 125.07 667.51 124.05C667.51 123.042 667.726 122.154 668.158 121.386C668.602 120.606 669.202 120.012 669.958 119.604C670.714 119.184 671.56 118.974 672.496 118.974C673.432 118.974 674.278 119.184 675.034 119.604C675.79 120.012 676.384 120.6 676.816 121.368C677.26 122.136 677.482 123.03 677.482 124.05C677.482 125.07 677.254 125.97 676.798 126.75C676.354 127.518 675.748 128.112 674.98 128.532C674.212 128.952 673.36 129.162 672.424 129.162ZM672.424 127.722C673.012 127.722 673.564 127.584 674.08 127.308C674.596 127.032 675.01 126.618 675.322 126.066C675.646 125.514 675.808 124.842 675.808 124.05C675.808 123.258 675.652 122.586 675.34 122.034C675.028 121.482 674.62 121.074 674.116 120.81C673.612 120.534 673.066 120.396 672.478 120.396C671.878 120.396 671.326 120.534 670.822 120.81C670.33 121.074 669.934 121.482 669.634 122.034C669.334 122.586 669.184 123.258 669.184 124.05C669.184 124.854 669.328 125.532 669.616 126.084C669.916 126.636 670.312 127.05 670.804 127.326C671.296 127.59 671.836 127.722 672.424 127.722ZM684.442 118.956C685.642 118.956 686.614 119.322 687.358 120.054C688.102 120.774 688.474 121.818 688.474 123.186V129H686.854V123.42C686.854 122.436 686.608 121.686 686.116 121.17C685.624 120.642 684.952 120.378 684.1 120.378C683.236 120.378 682.546 120.648 682.03 121.188C681.526 121.728 681.274 122.514 681.274 123.546V129H679.636V119.136H681.274V120.54C681.598 120.036 682.036 119.646 682.588 119.37C683.152 119.094 683.77 118.956 684.442 118.956ZM699.963 120.486H697.893V129H696.255V120.486H694.977V119.136H696.255V118.434C696.255 117.33 696.537 116.526 697.101 116.022C697.677 115.506 698.595 115.248 699.854 115.248V116.616C699.135 116.616 698.625 116.76 698.325 117.048C698.037 117.324 697.893 117.786 697.893 118.434V119.136H699.963V120.486ZM710.872 123.69C710.872 124.002 710.854 124.332 710.818 124.68H702.934C702.994 125.652 703.324 126.414 703.924 126.966C704.536 127.506 705.274 127.776 706.138 127.776C706.846 127.776 707.434 127.614 707.902 127.29C708.382 126.954 708.718 126.51 708.91 125.958H710.674C710.41 126.906 709.882 127.68 709.09 128.28C708.298 128.868 707.314 129.162 706.138 129.162C705.202 129.162 704.362 128.952 703.618 128.532C702.886 128.112 702.31 127.518 701.89 126.75C701.47 125.97 701.26 125.07 701.26 124.05C701.26 123.03 701.464 122.136 701.872 121.368C702.28 120.6 702.85 120.012 703.582 119.604C704.326 119.184 705.178 118.974 706.138 118.974C707.074 118.974 707.902 119.178 708.622 119.586C709.342 119.994 709.894 120.558 710.278 121.278C710.674 121.986 710.872 122.79 710.872 123.69ZM709.18 123.348C709.18 122.724 709.042 122.19 708.766 121.746C708.49 121.29 708.112 120.948 707.632 120.72C707.164 120.48 706.642 120.36 706.066 120.36C705.238 120.36 704.53 120.624 703.942 121.152C703.366 121.68 703.036 122.412 702.952 123.348H709.18ZM722.034 123.69C722.034 124.002 722.016 124.332 721.98 124.68H714.096C714.156 125.652 714.486 126.414 715.086 126.966C715.698 127.506 716.436 127.776 717.3 127.776C718.008 127.776 718.596 127.614 719.064 127.29C719.544 126.954 719.88 126.51 720.072 125.958H721.836C721.572 126.906 721.044 127.68 720.252 128.28C719.46 128.868 718.476 129.162 717.3 129.162C716.364 129.162 715.524 128.952 714.78 128.532C714.048 128.112 713.472 127.518 713.052 126.75C712.632 125.97 712.422 125.07 712.422 124.05C712.422 123.03 712.626 122.136 713.034 121.368C713.442 120.6 714.012 120.012 714.744 119.604C715.488 119.184 716.34 118.974 717.3 118.974C718.236 118.974 719.064 119.178 719.784 119.586C720.504 119.994 721.056 120.558 721.44 121.278C721.836 121.986 722.034 122.79 722.034 123.69ZM720.342 123.348C720.342 122.724 720.204 122.19 719.928 121.746C719.652 121.29 719.274 120.948 718.794 120.72C718.326 120.48 717.804 120.36 717.228 120.36C716.4 120.36 715.692 120.624 715.104 121.152C714.528 121.68 714.198 122.412 714.114 123.348H720.342ZM727.689 129.162C726.933 129.162 726.255 129.036 725.655 128.784C725.055 128.52 724.581 128.16 724.233 127.704C723.885 127.236 723.693 126.702 723.657 126.102H725.349C725.397 126.594 725.625 126.996 726.033 127.308C726.453 127.62 726.999 127.776 727.671 127.776C728.295 127.776 728.787 127.638 729.147 127.362C729.507 127.086 729.687 126.738 729.687 126.318C729.687 125.886 729.495 125.568 729.111 125.364C728.727 125.148 728.133 124.938 727.329 124.734C726.597 124.542 725.997 124.35 725.529 124.158C725.073 123.954 724.677 123.66 724.341 123.276C724.017 122.88 723.855 122.364 723.855 121.728C723.855 121.224 724.005 120.762 724.305 120.342C724.605 119.922 725.031 119.592 725.583 119.352C726.135 119.1 726.765 118.974 727.473 118.974C728.565 118.974 729.447 119.25 730.119 119.802C730.791 120.354 731.151 121.11 731.199 122.07H729.561C729.525 121.554 729.315 121.14 728.931 120.828C728.559 120.516 728.055 120.36 727.419 120.36C726.831 120.36 726.363 120.486 726.015 120.738C725.667 120.99 725.493 121.32 725.493 121.728C725.493 122.052 725.595 122.322 725.799 122.538C726.015 122.742 726.279 122.91 726.591 123.042C726.915 123.162 727.359 123.3 727.923 123.456C728.631 123.648 729.207 123.84 729.651 124.032C730.095 124.212 730.473 124.488 730.785 124.86C731.109 125.232 731.277 125.718 731.289 126.318C731.289 126.858 731.139 127.344 730.839 127.776C730.539 128.208 730.113 128.55 729.561 128.802C729.021 129.042 728.397 129.162 727.689 129.162ZM751.54 119.136L748.462 129H746.77L744.394 121.17L742.018 129H740.326L737.23 119.136H738.904L741.172 127.416L743.62 119.136H745.294L747.688 127.434L749.92 119.136H751.54ZM752.553 124.032C752.553 123.024 752.757 122.142 753.165 121.386C753.573 120.618 754.131 120.024 754.839 119.604C755.559 119.184 756.357 118.974 757.233 118.974C758.097 118.974 758.847 119.16 759.483 119.532C760.119 119.904 760.593 120.372 760.905 120.936V119.136H762.561V129H760.905V127.164C760.581 127.74 760.095 128.22 759.447 128.604C758.811 128.976 758.067 129.162 757.215 129.162C756.339 129.162 755.547 128.946 754.839 128.514C754.131 128.082 753.573 127.476 753.165 126.696C752.757 125.916 752.553 125.028 752.553 124.032ZM760.905 124.05C760.905 123.306 760.755 122.658 760.455 122.106C760.155 121.554 759.747 121.134 759.231 120.846C758.727 120.546 758.169 120.396 757.557 120.396C756.945 120.396 756.387 120.54 755.883 120.828C755.379 121.116 754.977 121.536 754.677 122.088C754.377 122.64 754.227 123.288 754.227 124.032C754.227 124.788 754.377 125.448 754.677 126.012C754.977 126.564 755.379 126.99 755.883 127.29C756.387 127.578 756.945 127.722 757.557 127.722C758.169 127.722 758.727 127.578 759.231 127.29C759.747 126.99 760.155 126.564 760.455 126.012C760.755 125.448 760.905 124.794 760.905 124.05ZM766.175 117.534C765.863 117.534 765.599 117.426 765.383 117.21C765.167 116.994 765.059 116.73 765.059 116.418C765.059 116.106 765.167 115.842 765.383 115.626C765.599 115.41 765.863 115.302 766.175 115.302C766.475 115.302 766.727 115.41 766.931 115.626C767.147 115.842 767.255 116.106 767.255 116.418C767.255 116.73 767.147 116.994 766.931 117.21C766.727 117.426 766.475 117.534 766.175 117.534ZM766.967 119.136V129H765.329V119.136H766.967ZM773.431 127.488L776.491 119.136H778.237L774.367 129H772.459L768.589 119.136H770.353L773.431 127.488ZM788.849 123.69C788.849 124.002 788.831 124.332 788.795 124.68H780.911C780.971 125.652 781.301 126.414 781.901 126.966C782.513 127.506 783.251 127.776 784.115 127.776C784.823 127.776 785.411 127.614 785.879 127.29C786.359 126.954 786.695 126.51 786.887 125.958H788.651C788.387 126.906 787.859 127.68 787.067 128.28C786.275 128.868 785.291 129.162 784.115 129.162C783.179 129.162 782.339 128.952 781.595 128.532C780.863 128.112 780.287 127.518 779.867 126.75C779.447 125.97 779.237 125.07 779.237 124.05C779.237 123.03 779.441 122.136 779.849 121.368C780.257 120.6 780.827 120.012 781.559 119.604C782.303 119.184 783.155 118.974 784.115 118.974C785.051 118.974 785.879 119.178 786.599 119.586C787.319 119.994 787.871 120.558 788.255 121.278C788.651 121.986 788.849 122.79 788.849 123.69ZM787.157 123.348C787.157 122.724 787.019 122.19 786.743 121.746C786.467 121.29 786.089 120.948 785.609 120.72C785.141 120.48 784.619 120.36 784.043 120.36C783.215 120.36 782.507 120.624 781.919 121.152C781.343 121.68 781.013 122.412 780.929 123.348H787.157ZM790.399 124.032C790.399 123.024 790.603 122.142 791.011 121.386C791.419 120.618 791.977 120.024 792.685 119.604C793.405 119.184 794.209 118.974 795.097 118.974C795.865 118.974 796.579 119.154 797.239 119.514C797.899 119.862 798.403 120.324 798.751 120.9V115.68H800.407V129H798.751V127.146C798.427 127.734 797.947 128.22 797.311 128.604C796.675 128.976 795.931 129.162 795.079 129.162C794.203 129.162 793.405 128.946 792.685 128.514C791.977 128.082 791.419 127.476 791.011 126.696C790.603 125.916 790.399 125.028 790.399 124.032ZM798.751 124.05C798.751 123.306 798.601 122.658 798.301 122.106C798.001 121.554 797.593 121.134 797.077 120.846C796.573 120.546 796.015 120.396 795.403 120.396C794.791 120.396 794.233 120.54 793.729 120.828C793.225 121.116 792.823 121.536 792.523 122.088C792.223 122.64 792.073 123.288 792.073 124.032C792.073 124.788 792.223 125.448 792.523 126.012C792.823 126.564 793.225 126.99 793.729 127.29C794.233 127.578 794.791 127.722 795.403 127.722C796.015 127.722 796.573 127.578 797.077 127.29C797.593 126.99 798.001 126.564 798.301 126.012C798.601 125.448 798.751 124.794 798.751 124.05Z" fill="#3E4E61"/>
<rect x="5" y="5" width="75" height="75" fill="#0EAAFF"/>
<rect x="954" y="177" width="75" height="75" transform="rotate(-180 954 177)" fill="#0EAAFF"/>
<rect width="75" height="75" fill="#FF7F00"/>
<rect x="959" y="182" width="75" height="75" transform="rotate(-180 959 182)" fill="#FF7F00"/>
</svg>
